<svg width="1015" height="248" viewBox="0 0 1015 248" fill="none" xmlns="http://www.w3.org/2000/svg">
<path d="M184.009 233.704C180.519 233.704 177.365 233.003 174.547 231.603C171.773 230.202 169.558 228.296 167.903 225.884C166.292 223.433 165.465 220.691 165.42 217.656V190.114C165.42 189.414 165.643 188.869 166.091 188.48C166.583 188.052 167.232 187.838 168.037 187.838C168.798 187.838 169.401 188.052 169.849 188.48C170.341 188.869 170.587 189.414 170.587 190.114V207.27C172.064 205.441 174.01 203.983 176.426 202.893C178.886 201.765 181.615 201.201 184.613 201.201C188.057 201.201 191.144 201.921 193.873 203.36C196.603 204.76 198.75 206.686 200.316 209.137C201.926 211.588 202.732 214.35 202.732 217.423C202.732 220.535 201.904 223.317 200.249 225.768C198.638 228.218 196.424 230.163 193.605 231.603C190.787 233.003 187.588 233.704 184.009 233.704ZM184.009 229.619C186.604 229.619 188.93 229.094 190.988 228.043C193.046 226.954 194.657 225.495 195.82 223.667C197.028 221.839 197.631 219.757 197.631 217.423C197.631 215.128 197.028 213.066 195.82 211.238C194.657 209.37 193.046 207.912 190.988 206.861C188.93 205.811 186.604 205.286 184.009 205.286C181.459 205.286 179.155 205.811 177.097 206.861C175.039 207.912 173.428 209.37 172.265 211.238C171.102 213.066 170.52 215.128 170.52 217.423C170.52 219.757 171.102 221.839 172.265 223.667C173.428 225.495 175.039 226.954 177.097 228.043C179.155 229.094 181.459 229.619 184.009 229.619ZM229.51 233.704C225.886 233.704 222.665 233.023 219.846 231.661C217.073 230.261 214.88 228.335 213.27 225.884C211.704 223.433 210.921 220.632 210.921 217.481C210.921 214.291 211.659 211.49 213.135 209.079C214.657 206.628 216.737 204.702 219.376 203.302C222.016 201.901 225.058 201.201 228.503 201.201C231.903 201.201 234.856 201.882 237.361 203.243C239.911 204.566 241.88 206.414 243.267 208.787C244.654 211.16 245.347 213.864 245.347 216.898C245.347 217.52 245.123 218.026 244.676 218.415C244.228 218.765 243.647 218.94 242.931 218.94H214.41V215.206H243.468L240.582 217.015C240.627 214.758 240.157 212.736 239.173 210.946C238.189 209.156 236.779 207.756 234.945 206.744C233.156 205.733 231.008 205.227 228.503 205.227C225.953 205.227 223.716 205.752 221.792 206.803C219.868 207.853 218.37 209.312 217.296 211.179C216.267 213.008 215.753 215.108 215.753 217.481C215.753 219.855 216.334 221.955 217.497 223.784C218.705 225.612 220.338 227.051 222.396 228.102C224.454 229.152 226.825 229.677 229.51 229.677C231.12 229.677 232.731 229.444 234.341 228.977C235.997 228.471 237.316 227.849 238.301 227.11C238.793 226.76 239.352 226.584 239.978 226.584C240.605 226.545 241.141 226.682 241.589 226.993C242.171 227.46 242.461 227.966 242.461 228.51C242.506 229.055 242.26 229.521 241.723 229.911C240.247 231 238.368 231.914 236.086 232.653C233.805 233.353 231.612 233.704 229.51 233.704ZM292.337 233.704C288.848 233.704 285.694 233.003 282.875 231.603C280.101 230.202 277.887 228.296 276.231 225.884C274.621 223.433 273.793 220.691 273.749 217.656V190.114C273.749 189.414 273.972 188.869 274.42 188.48C274.912 188.052 275.56 187.838 276.366 187.838C277.127 187.838 277.73 188.052 278.178 188.48C278.67 188.869 278.916 189.414 278.916 190.114V207.27C280.392 205.441 282.338 203.983 284.754 202.893C287.215 201.765 289.944 201.201 292.941 201.201C296.386 201.201 299.473 201.921 302.202 203.36C304.931 204.76 307.079 206.686 308.644 209.137C310.255 211.588 311.06 214.35 311.06 217.423C311.06 220.535 310.233 223.317 308.577 225.768C306.967 228.218 304.752 230.163 301.934 231.603C299.115 233.003 295.917 233.704 292.337 233.704ZM292.337 229.619C294.932 229.619 297.259 229.094 299.316 228.043C301.375 226.954 302.985 225.495 304.148 223.667C305.356 221.839 305.96 219.757 305.96 217.423C305.96 215.128 305.356 213.066 304.148 211.238C302.985 209.37 301.375 207.912 299.316 206.861C297.259 205.811 294.932 205.286 292.337 205.286C289.787 205.286 287.483 205.811 285.425 206.861C283.368 207.912 281.757 209.37 280.593 211.238C279.43 213.066 278.849 215.128 278.849 217.423C278.849 219.757 279.43 221.839 280.593 223.667C281.757 225.495 283.368 226.954 285.425 228.043C287.483 229.094 289.787 229.619 292.337 229.619ZM337.368 233.704C333.924 233.704 330.837 233.003 328.108 231.603C325.379 230.163 323.209 228.218 321.598 225.768C320.033 223.317 319.249 220.555 319.249 217.481C319.249 214.369 320.055 211.588 321.665 209.137C323.321 206.686 325.558 204.76 328.376 203.36C331.195 201.921 334.371 201.201 337.905 201.201C341.44 201.201 344.594 201.921 347.367 203.36C350.186 204.76 352.401 206.686 354.011 209.137C355.667 211.588 356.517 214.369 356.561 217.481L354.481 218.882C354.481 221.683 353.72 224.211 352.199 226.468C350.723 228.685 348.687 230.455 346.092 231.778C343.542 233.062 340.634 233.704 337.368 233.704ZM337.905 229.619C340.5 229.619 342.804 229.094 344.817 228.043C346.875 226.993 348.486 225.553 349.649 223.725C350.857 221.858 351.461 219.777 351.461 217.481C351.461 215.147 350.857 213.066 349.649 211.238C348.486 209.409 346.875 207.97 344.817 206.92C342.804 205.83 340.5 205.286 337.905 205.286C335.355 205.286 333.051 205.83 330.993 206.92C328.936 207.97 327.302 209.409 326.094 211.238C324.886 213.066 324.283 215.147 324.283 217.481C324.283 219.777 324.886 221.858 326.094 223.725C327.302 225.553 328.936 226.993 330.993 228.043C333.051 229.094 335.355 229.619 337.905 229.619ZM353.944 233.412C353.184 233.412 352.557 233.217 352.065 232.828C351.573 232.4 351.327 231.856 351.327 231.194V221.216L352.602 216.606L356.561 217.481V231.194C356.561 231.856 356.315 232.4 355.823 232.828C355.331 233.217 354.705 233.412 353.944 233.412ZM382.986 233.704C379.451 233.704 376.297 233.003 373.523 231.603C370.794 230.163 368.624 228.218 367.014 225.768C365.448 223.317 364.665 220.555 364.665 217.481C364.665 214.369 365.426 211.588 366.947 209.137C368.468 206.686 370.548 204.76 373.188 203.36C375.827 201.921 378.869 201.201 382.314 201.201C385.043 201.201 387.549 201.668 389.831 202.601C392.157 203.535 394.193 204.936 395.937 206.803C396.429 207.27 396.608 207.776 396.474 208.32C396.34 208.826 395.96 209.273 395.333 209.662C394.841 209.973 394.282 210.09 393.656 210.012C393.074 209.896 392.559 209.604 392.112 209.137C389.517 206.569 386.251 205.286 382.314 205.286C379.809 205.286 377.594 205.811 375.671 206.861C373.792 207.912 372.315 209.351 371.242 211.179C370.213 213.008 369.698 215.108 369.698 217.481C369.698 219.816 370.257 221.897 371.376 223.725C372.494 225.553 374.06 226.993 376.074 228.043C378.087 229.094 380.391 229.619 382.986 229.619C384.73 229.619 386.318 229.424 387.75 229.035C389.227 228.608 390.524 227.966 391.642 227.11C392.179 226.721 392.738 226.507 393.32 226.468C393.901 226.429 394.438 226.584 394.931 226.935C395.468 227.362 395.758 227.849 395.803 228.393C395.892 228.938 395.691 229.405 395.199 229.794C391.933 232.4 387.862 233.704 382.986 233.704ZM410.75 222.733L407.596 219.757L430.545 201.726C431.081 201.298 431.643 201.104 432.222 201.143C432.805 201.143 433.342 201.376 433.833 201.843C434.328 202.31 434.55 202.816 434.504 203.36C434.504 203.866 434.236 204.313 433.699 204.702L410.75 222.733ZM409.072 233.412C408.311 233.412 407.685 233.217 407.193 232.828C406.745 232.4 406.522 231.856 406.522 231.194V190.056C406.522 189.394 406.745 188.869 407.193 188.48C407.685 188.052 408.311 187.838 409.072 187.838C409.832 187.838 410.436 188.052 410.884 188.48C411.376 188.869 411.622 189.394 411.622 190.056V231.194C411.622 231.856 411.376 232.4 410.884 232.828C410.436 233.217 409.832 233.412 409.072 233.412ZM433.9 233.12C433.321 233.548 432.717 233.723 432.088 233.645C431.463 233.606 430.926 233.334 430.478 232.828L415.514 216.84L419.138 214.039L434.235 230.202C434.684 230.669 434.886 231.175 434.84 231.72C434.798 232.225 434.483 232.692 433.9 233.12ZM481.295 233.704C477.717 233.704 474.517 233.003 471.698 231.603C468.88 230.202 466.665 228.277 465.055 225.826C463.444 223.375 462.639 220.593 462.639 217.481C462.639 214.33 463.444 211.529 465.055 209.079C466.665 206.628 468.88 204.702 471.698 203.302C474.517 201.901 477.717 201.201 481.295 201.201C484.872 201.201 488.051 201.901 490.824 203.302C493.642 204.702 495.857 206.628 497.467 209.079C499.078 211.529 499.904 214.33 499.95 217.481C499.95 220.593 499.124 223.375 497.467 225.826C495.857 228.277 493.642 230.202 490.824 231.603C488.051 233.003 484.872 233.704 481.295 233.704ZM481.295 229.619C483.891 229.619 486.214 229.094 488.274 228.043C490.333 226.993 491.944 225.553 493.106 223.725C494.267 221.897 494.85 219.816 494.85 217.481C494.85 215.147 494.267 213.066 493.106 211.238C491.944 209.37 490.333 207.912 488.274 206.861C486.214 205.811 483.891 205.286 481.295 205.286C478.698 205.286 476.375 205.811 474.315 206.861C472.256 207.912 470.624 209.37 469.417 211.238C468.255 213.066 467.672 215.147 467.672 217.481C467.672 219.816 468.255 221.897 469.417 223.725C470.624 225.553 472.256 226.993 474.315 228.043C476.375 229.094 478.698 229.619 481.295 229.619ZM541.473 233.412C540.714 233.412 540.089 233.198 539.594 232.77C539.103 232.342 538.856 231.817 538.856 231.194V216.023C538.856 213.611 538.319 211.627 537.245 210.071C536.218 208.514 534.788 207.347 532.951 206.569C531.164 205.792 529.125 205.402 526.844 205.402C524.654 205.402 522.662 205.772 520.871 206.511C519.126 207.25 517.742 208.262 516.711 209.545C515.683 210.829 515.167 212.288 515.167 213.922H511.476C511.568 211.471 512.328 209.293 513.758 207.386C515.192 205.441 517.092 203.924 519.462 202.835C521.836 201.707 524.474 201.143 527.381 201.143C530.56 201.143 533.399 201.726 535.903 202.893C538.411 204.021 540.378 205.694 541.809 207.912C543.285 210.129 544.023 212.833 544.023 216.023V231.194C544.023 231.817 543.78 232.342 543.285 232.77C542.794 233.198 542.19 233.412 541.473 233.412ZM512.617 233.412C511.812 233.412 511.166 233.217 510.671 232.828C510.226 232.4 510 231.856 510 231.194V203.768C510 203.068 510.226 202.524 510.671 202.135C511.166 201.707 511.812 201.493 512.617 201.493C513.38 201.493 513.984 201.707 514.429 202.135C514.924 202.524 515.167 203.068 515.167 203.768V231.194C515.167 231.856 514.924 232.4 514.429 232.828C513.984 233.217 513.38 233.412 512.617 233.412ZM589.438 233.412C587.068 233.412 584.942 232.926 583.063 231.953C581.23 230.98 579.775 229.658 578.701 227.985C577.627 226.273 577.09 224.328 577.09 222.15V193.615C577.09 192.954 577.313 192.409 577.762 191.981C578.252 191.553 578.881 191.339 579.641 191.339C580.4 191.339 581.029 191.553 581.52 191.981C582.01 192.409 582.258 192.954 582.258 193.615V222.15C582.258 224.134 582.929 225.768 584.271 227.051C585.613 228.296 587.337 228.919 589.438 228.919H591.25C591.967 228.919 592.546 229.133 592.995 229.56C593.444 229.988 593.666 230.533 593.666 231.194C593.666 231.856 593.398 232.4 592.861 232.828C592.324 233.217 591.653 233.412 590.847 233.412H589.438ZM572.728 206.569C572.057 206.569 571.5 206.394 571.051 206.044C570.602 205.655 570.38 205.188 570.38 204.644C570.38 204.06 570.602 203.593 571.051 203.243C571.5 202.854 572.057 202.66 572.728 202.66H589.841C590.512 202.66 591.07 202.854 591.519 203.243C591.967 203.593 592.19 204.06 592.19 204.644C592.19 205.188 591.967 205.655 591.519 206.044C591.07 206.394 590.512 206.569 589.841 206.569H572.728ZM604.693 220.399C603.887 220.399 603.241 220.185 602.746 219.757C602.302 219.329 602.075 218.785 602.075 218.123V190.114C602.075 189.414 602.302 188.869 602.746 188.48C603.241 188.052 603.887 187.838 604.693 187.838C605.456 187.838 606.06 188.052 606.504 188.48C606.999 188.869 607.243 189.414 607.243 190.114V218.123C607.243 218.785 606.999 219.329 606.504 219.757C606.06 220.185 605.456 220.399 604.693 220.399ZM633.549 233.412C632.79 233.412 632.165 233.198 631.67 232.77C631.179 232.342 630.932 231.817 630.932 231.194V216.023C630.932 213.611 630.395 211.627 629.321 210.071C628.293 208.514 626.863 207.347 625.026 206.569C623.239 205.792 621.201 205.402 618.919 205.402C616.73 205.402 614.738 205.772 612.947 206.511C611.202 207.25 609.818 208.262 608.786 209.545C607.759 210.829 607.243 212.288 607.243 213.922H603.552C603.644 211.471 604.403 209.293 605.833 207.386C607.268 205.441 609.168 203.924 611.537 202.835C613.911 201.707 616.55 201.143 619.456 201.143C622.635 201.143 625.475 201.726 627.979 202.893C630.487 204.021 632.454 205.694 633.884 207.912C635.361 210.129 636.099 212.833 636.099 216.023V231.194C636.099 231.817 635.856 232.342 635.361 232.77C634.87 233.198 634.266 233.412 633.549 233.412ZM604.693 233.412C603.887 233.412 603.241 233.217 602.746 232.828C602.302 232.4 602.075 231.856 602.075 231.194V203.768C602.075 203.068 602.302 202.524 602.746 202.135C603.241 201.707 603.887 201.493 604.693 201.493C605.456 201.493 606.06 201.707 606.504 202.135C606.999 202.524 607.243 203.068 607.243 203.768V231.194C607.243 231.856 606.999 232.4 606.504 232.828C606.06 233.217 605.456 233.412 604.693 233.412ZM664.137 233.704C660.513 233.704 657.292 233.023 654.474 231.661C651.697 230.261 649.504 228.335 647.897 225.884C646.329 223.433 645.548 220.632 645.548 217.481C645.548 214.291 646.287 211.49 647.763 209.079C649.281 206.628 651.362 204.702 654.004 203.302C656.642 201.901 659.683 201.201 663.131 201.201C666.528 201.201 669.481 201.882 671.989 203.243C674.539 204.566 676.506 206.414 677.894 208.787C679.278 211.16 679.974 213.864 679.974 216.898C679.974 217.52 679.748 218.026 679.303 218.415C678.855 218.765 678.272 218.94 677.559 218.94H649.038V215.206H678.096L675.21 217.015C675.252 214.758 674.782 212.736 673.801 210.946C672.815 209.156 671.406 207.756 669.573 206.744C667.782 205.733 665.635 205.227 663.131 205.227C660.58 205.227 658.341 205.752 656.42 206.803C654.495 207.853 652.997 209.312 651.924 211.179C650.892 213.008 650.38 215.108 650.38 217.481C650.38 219.855 650.959 221.955 652.125 223.784C653.333 225.612 654.964 227.051 657.024 228.102C659.079 229.152 661.453 229.677 664.137 229.677C665.748 229.677 667.358 229.444 668.969 228.977C670.621 228.471 671.943 227.849 672.928 227.11C673.419 226.76 673.977 226.584 674.606 226.584C675.231 226.545 675.768 226.682 676.216 226.993C676.795 227.46 677.089 227.966 677.089 228.51C677.131 229.055 676.888 229.521 676.351 229.911C674.874 231 672.995 231.914 670.714 232.653C668.432 233.353 666.238 233.704 664.137 233.704ZM710.521 213.747C710.655 211.335 711.372 209.176 712.668 207.27C714.011 205.363 715.734 203.866 717.836 202.776C719.983 201.687 722.353 201.143 724.949 201.143C727.008 201.143 728.594 201.395 729.714 201.901C730.834 202.407 731.257 203.146 730.989 204.119C730.808 204.702 730.498 205.091 730.049 205.286C729.647 205.48 729.131 205.558 728.506 205.519C727.923 205.48 727.252 205.441 726.493 205.402C723.989 205.208 721.749 205.441 719.782 206.103C717.857 206.725 716.313 207.697 715.151 209.02C714.032 210.343 713.474 211.919 713.474 213.747H710.521ZM710.924 233.412C710.118 233.412 709.493 233.217 709.045 232.828C708.596 232.439 708.374 231.895 708.374 231.194V203.71C708.374 203.01 708.596 202.465 709.045 202.076C709.493 201.687 710.118 201.493 710.924 201.493C711.729 201.493 712.354 201.687 712.803 202.076C713.251 202.465 713.474 203.01 713.474 203.71V231.194C713.474 231.895 713.251 232.439 712.803 232.828C712.354 233.217 711.729 233.412 710.924 233.412ZM752.597 233.704C749.15 233.704 746.063 233.003 743.337 231.603C740.606 230.163 738.438 228.218 736.827 225.768C735.258 223.317 734.478 220.555 734.478 217.481C734.478 214.369 735.284 211.588 736.894 209.137C738.547 206.686 740.786 204.76 743.605 203.36C746.423 201.921 749.599 201.201 753.134 201.201C756.666 201.201 759.82 201.921 762.596 203.36C765.415 204.76 767.629 206.686 769.24 209.137C770.893 211.588 771.744 214.369 771.79 217.481L769.71 218.882C769.71 221.683 768.946 224.211 767.428 226.468C765.952 228.685 763.913 230.455 761.321 231.778C758.771 233.062 755.86 233.704 752.597 233.704ZM753.134 229.619C755.726 229.619 758.033 229.094 760.046 228.043C762.101 226.993 763.712 225.553 764.878 223.725C766.086 221.858 766.69 219.777 766.69 217.481C766.69 215.147 766.086 213.066 764.878 211.238C763.712 209.409 762.101 207.97 760.046 206.92C758.033 205.83 755.726 205.286 753.134 205.286C750.584 205.286 748.277 205.83 746.222 206.92C744.163 207.97 742.531 209.409 741.323 211.238C740.115 213.066 739.511 215.147 739.511 217.481C739.511 219.777 740.115 221.858 741.323 223.725C742.531 225.553 744.163 226.993 746.222 228.043C748.277 229.094 750.584 229.619 753.134 229.619ZM769.173 233.412C768.41 233.412 767.785 233.217 767.294 232.828C766.799 232.4 766.556 231.856 766.556 231.194V221.216L767.831 216.606L771.79 217.481V231.194C771.79 231.856 771.543 232.4 771.052 232.828C770.557 233.217 769.932 233.412 769.173 233.412ZM785.53 233.412C784.725 233.412 784.075 233.217 783.584 232.828C783.135 232.4 782.913 231.836 782.913 231.136V203.768C782.913 203.068 783.135 202.524 783.584 202.135C784.075 201.707 784.725 201.493 785.53 201.493C786.289 201.493 786.893 201.707 787.342 202.135C787.833 202.524 788.08 203.068 788.08 203.768V231.136C788.08 231.836 787.833 232.4 787.342 232.828C786.893 233.217 786.289 233.412 785.53 233.412ZM785.463 195.424C784.478 195.424 783.626 195.113 782.913 194.49C782.196 193.868 781.839 193.109 781.839 192.215C781.839 191.242 782.196 190.483 782.913 189.939C783.672 189.355 784.545 189.064 785.53 189.064C786.47 189.064 787.296 189.355 788.013 189.939C788.772 190.483 789.154 191.242 789.154 192.215C789.154 193.109 788.793 193.868 788.08 194.49C787.363 195.113 786.491 195.424 785.463 195.424ZM809.156 233.412C807.365 233.412 805.755 232.984 804.325 232.128C802.936 231.272 801.842 230.086 801.036 228.568C800.273 227.051 799.896 225.301 799.896 223.317V190.056C799.896 189.394 800.118 188.869 800.567 188.48C801.057 188.052 801.682 187.838 802.446 187.838C803.205 187.838 803.809 188.052 804.257 188.48C804.748 188.869 804.996 189.394 804.996 190.056V223.317C804.996 224.99 805.373 226.351 806.136 227.401C806.942 228.452 807.948 228.977 809.156 228.977H810.834C811.505 228.977 812.042 229.191 812.445 229.619C812.847 230.008 813.049 230.533 813.049 231.194C813.049 231.856 812.755 232.4 812.176 232.828C811.639 233.217 810.922 233.412 810.029 233.412H809.156ZM832.992 233.704C830.354 233.704 827.737 233.314 825.141 232.536C822.548 231.759 820.443 230.592 818.832 229.035C818.342 228.568 818.14 228.043 818.228 227.46C818.321 226.876 818.656 226.37 819.235 225.943C819.864 225.553 820.51 225.398 821.181 225.476C821.852 225.553 822.414 225.807 822.859 226.234C823.932 227.324 825.342 228.16 827.087 228.744C828.878 229.327 830.845 229.619 832.992 229.619C836.305 229.619 838.696 229.133 840.173 228.16C841.649 227.149 842.412 225.943 842.454 224.542C842.454 223.142 841.695 221.994 840.173 221.099C838.654 220.166 836.146 219.446 832.656 218.94C828.139 218.318 824.83 217.229 822.725 215.672C820.623 214.116 819.571 212.269 819.571 210.129C819.571 208.145 820.175 206.492 821.382 205.169C822.59 203.846 824.201 202.854 826.214 202.193C828.227 201.532 830.442 201.201 832.858 201.201C835.857 201.201 838.428 201.648 840.575 202.543C842.769 203.438 844.535 204.644 845.877 206.161C846.325 206.667 846.506 207.192 846.414 207.736C846.325 208.281 845.969 208.728 845.34 209.079C844.803 209.351 844.178 209.448 843.461 209.37C842.79 209.254 842.211 208.962 841.716 208.495C840.6 207.367 839.3 206.55 837.824 206.044C836.347 205.5 834.649 205.227 832.724 205.227C830.266 205.227 828.294 205.675 826.818 206.569C825.342 207.425 824.604 208.514 824.604 209.837C824.604 210.732 824.872 211.51 825.409 212.171C825.992 212.833 826.952 213.416 828.294 213.922C829.683 214.428 831.608 214.856 834.066 215.206C837.421 215.672 840.063 216.373 841.984 217.306C843.956 218.201 845.34 219.271 846.145 220.516C846.997 221.722 847.42 223.044 847.42 224.484C847.42 226.312 846.795 227.927 845.541 229.327C844.333 230.689 842.635 231.759 840.441 232.536C838.294 233.314 835.811 233.704 832.992 233.704Z" fill="white"/>
<path d="M130.021 217H0" stroke="white" stroke-width="2"/>
<path d="M1015 217H880.785" stroke="white" stroke-width="2"/>
<path d="M38.654 35.3036H25.0647C12.4821 35.3036 6.19073 40.3365 6.19073 50.4024H3.1709V40.5553C3.1709 33.553 7.449 30.0518 16.0052 30.0518H86.2163V35.3036H52.2432V116.706H38.654V35.3036ZM104.035 45.8071C104.035 41.3431 103.33 38.0607 101.921 35.96C100.511 33.7718 97.693 32.6777 93.4652 32.6777H90.4454V30.0518H154.768C163.324 30.0518 167.602 33.553 167.602 40.5553V50.4024H164.582C164.582 40.3365 158.291 35.3036 145.708 35.3036H117.624V69.44H158.392V74.6918H117.624V111.454H144.047C150.993 111.454 156.429 110.36 160.355 108.172C164.28 105.984 167.401 102.264 169.716 97.0118L172.736 97.6683L167.451 110.141C165.639 114.518 161.864 116.706 156.127 116.706H104.035V45.8071ZM271.008 117.362C266.176 117.362 261.395 116.224 256.664 113.949C251.933 111.585 248.158 107.034 245.339 100.294L241.565 91.76H199.287L187.208 116.706H180.413L222.691 30.0518H227.22L260.439 100.294C262.955 105.371 265.321 108.872 267.535 110.798C269.75 112.636 272.921 113.73 277.048 114.08V116.706C275.236 117.144 273.223 117.362 271.008 117.362ZM201.552 86.5083H238.545L220.426 48.433L201.552 86.5083ZM368.664 119.332C358.799 119.332 349.941 117.231 342.089 113.03C334.339 108.828 328.249 103.139 323.819 95.9614C319.491 88.6965 317.327 80.7313 317.327 72.0659C317.327 63.7506 319.239 56.2231 323.065 49.4833C326.89 42.656 332.325 37.273 339.372 33.3341C346.519 29.3953 354.773 27.4259 364.134 27.4259C372.791 27.4259 380.24 28.4325 386.481 30.4457C392.823 32.3713 397.453 34.8659 400.372 37.9294C401.983 39.68 402.989 41.9995 403.392 44.888C403.895 47.7765 404.147 51.3652 404.147 55.6541H401.127C399.215 47.9516 395.591 42.2184 390.256 38.4546C384.921 34.6033 377.724 32.6777 368.664 32.6777C360.51 32.6777 353.716 34.5596 348.28 38.3233C342.844 41.9996 338.818 46.8137 336.201 52.7657C333.684 58.7177 332.426 65.1511 332.426 72.0659C332.426 86.8584 335.748 97.5807 342.391 104.233C349.035 110.798 357.793 114.08 368.664 114.08C373.798 114.08 378.176 113.686 381.8 112.898C385.424 112.111 388.847 110.973 392.068 109.485V86.6396C392.068 83.6636 392.621 81.0814 393.729 78.8932C394.836 76.705 397.201 74.9106 400.825 73.5101C404.55 72.0221 409.935 71.2781 416.981 71.2781V73.904C412.452 73.904 409.432 74.9106 407.922 76.9238C406.412 78.937 405.657 82.088 405.657 86.377V111.06C400.221 113.949 394.534 116.049 388.595 117.362C382.656 118.675 376.012 119.332 368.664 119.332ZM501.796 118.019C496.461 118.019 491.78 116.662 487.754 113.949C483.828 111.148 479.449 106.159 474.617 98.9812L459.518 76.6612H448.949V116.706H435.36V45.8071C435.36 41.3431 434.655 38.0607 433.246 35.96C431.836 33.7718 429.018 32.6777 424.79 32.6777H421.77V30.0518H461.028C470.591 30.0518 479.248 31.7148 486.999 35.041C494.85 38.2796 498.776 44.4941 498.776 53.6847C498.776 65.3261 490.723 72.7661 474.617 76.0047L490.472 98.9812C494.196 104.408 497.518 108.216 500.437 110.404C503.457 112.504 506.93 113.73 510.855 114.08V116.706C509.95 117.056 508.641 117.362 506.93 117.625C505.319 117.888 503.608 118.019 501.796 118.019ZM460.273 72.0659C463.394 72.0659 466.766 71.4094 470.39 70.0965C474.114 68.7835 477.235 66.7266 479.751 63.9257C482.368 61.1247 483.677 57.7111 483.677 53.6847C483.677 49.3958 482.368 45.8508 479.751 43.0499C477.235 40.1614 474.114 38.0607 470.39 36.7478C466.766 35.3473 463.394 34.6471 460.273 34.6471C456.75 34.6471 452.975 35.0847 448.949 35.96V70.753C452.975 71.6283 456.75 72.0659 460.273 72.0659ZM562.91 119.332C553.548 119.332 545.294 117.319 538.147 113.292C531.101 109.266 525.665 103.752 521.84 96.7492C518.015 89.7468 516.102 81.9567 516.102 73.3788C516.102 64.801 518.015 57.0108 521.84 50.0085C525.665 43.0061 531.101 37.4918 538.147 33.4654C545.294 29.4391 553.548 27.4259 562.91 27.4259C572.271 27.4259 580.475 29.4391 587.521 33.4654C594.668 37.4918 600.154 43.0061 603.98 50.0085C607.805 57.0108 609.717 64.801 609.717 73.3788C609.717 81.9567 607.805 89.7468 603.98 96.7492C600.154 103.752 594.668 109.266 587.521 113.292C580.475 117.319 572.271 119.332 562.91 119.332ZM562.91 114.08C569.453 114.08 575.09 112.417 579.821 109.091C584.653 105.765 588.327 101.082 590.843 95.0424C593.36 88.9153 594.618 81.6941 594.618 73.3788C594.618 65.0636 593.36 57.8861 590.843 51.8466C588.327 45.7196 584.653 40.993 579.821 37.6668C575.09 34.3407 569.453 32.6777 562.91 32.6777C556.367 32.6777 550.68 34.3407 545.848 37.6668C541.117 40.993 537.493 45.7196 534.976 51.8466C532.46 57.8861 531.202 65.0636 531.202 73.3788C531.202 81.6941 532.46 88.9153 534.976 95.0424C537.493 101.082 541.117 105.765 545.848 109.091C550.68 112.417 556.367 114.08 562.91 114.08ZM670.097 118.019C660.434 118.019 652.784 116.618 647.146 113.817C641.509 110.929 637.483 106.684 635.067 101.082C632.752 95.48 631.594 88.2151 631.594 79.2871V45.8071C631.594 41.3431 630.89 38.0607 629.48 35.96C628.071 33.7718 625.253 32.6777 621.025 32.6777H618.005V30.0518H631.594C635.319 30.0518 638.087 30.4894 639.899 31.3647C641.811 32.1525 643.17 33.6405 643.976 35.8287C644.781 38.017 645.184 41.3431 645.184 45.8071V83.2259C645.184 92.9417 647.247 100.294 651.374 105.283C655.501 110.272 662.346 112.767 671.909 112.767C679.559 112.767 685.599 111.585 690.028 109.222C694.558 106.859 697.779 103.27 699.692 98.456C701.604 93.6419 702.56 87.2523 702.56 79.2871V30.0518H708.6V79.2871C708.6 88.3901 707.493 95.7426 705.278 101.344C703.064 106.859 699.138 111.016 693.501 113.817C687.965 116.618 680.163 118.019 670.097 118.019ZM742.955 47.7765V116.706H736.915V45.8071C736.915 41.6057 735.858 38.3671 733.744 36.0913C731.731 33.8156 728.258 32.6777 723.326 32.6777H721.816V30.0518H731.631C736.261 30.0518 740.187 30.7083 743.408 32.0212C746.629 33.3341 749.498 35.3035 752.014 37.9294L804.862 95.0424V30.0518H810.901V118.019H807.881L742.955 47.7765ZM839.678 45.8071C839.678 41.3431 838.973 38.0607 837.564 35.96C836.155 33.7718 833.336 32.6777 829.108 32.6777H826.088V30.0518H865.648C885.177 30.0518 899.923 33.8156 909.889 41.3431C919.955 48.8706 924.988 59.3741 924.988 72.8537C924.988 81.5191 922.874 89.1779 918.646 95.8301C914.419 102.395 908.127 107.515 899.772 111.192C891.518 114.868 881.452 116.706 869.574 116.706H839.678V45.8071ZM869.121 112.111C876.57 112.111 883.264 110.535 889.203 107.384C895.243 104.145 899.974 99.6377 903.396 93.8607C906.819 87.9963 908.53 81.169 908.53 73.3788C908.53 65.7638 906.819 59.024 903.396 53.1596C900.074 47.2951 895.394 42.7436 889.354 39.505C883.314 36.2664 876.469 34.6471 868.819 34.6471C863.987 34.6471 858.954 35.3473 853.72 36.7478V110.404C859.357 111.542 864.491 112.111 869.121 112.111ZM974.186 118.938C968.65 118.938 963.214 118.281 957.879 116.968C952.544 115.656 948.165 113.774 944.743 111.323C941.421 108.872 939.76 106.071 939.76 102.92V88.8716H942.478C944.189 97.6245 947.511 103.97 952.443 107.909C957.376 111.76 964.17 113.686 972.827 113.686C978.263 113.686 982.893 112.505 986.719 110.141C990.644 107.778 992.607 104.496 992.607 100.294C992.607 96.6179 991.299 93.4231 988.681 90.7097C986.064 87.9963 981.836 85.1516 975.998 82.1755L957.426 72.5911C950.984 69.265 946.404 65.8951 943.686 62.4814C941.069 59.0678 939.76 54.9101 939.76 50.0085C939.76 43.2687 942.428 37.8857 947.763 33.8593C953.198 29.7454 960.295 27.6885 969.052 27.6885C974.186 27.6885 979.27 28.345 984.303 29.6579C989.336 30.8833 993.463 32.7214 996.684 35.1723C1000.01 37.5356 1001.67 40.2927 1001.67 43.4438V57.4923H998.949C997.238 48.7393 993.966 42.481 989.134 38.7172C984.403 34.8659 977.709 32.9403 969.052 32.9403C964.422 32.9403 960.345 34.1657 956.822 36.6165C953.299 39.0673 951.537 42.2621 951.537 46.201C951.537 49.7897 952.796 52.7657 955.312 55.129C957.929 57.4923 962.258 60.2494 968.297 63.4005L986.869 72.985C993.714 76.5737 998.546 79.8998 1001.36 82.9633C1004.18 86.0268 1005.59 89.9219 1005.59 94.6485C1005.59 102.001 1002.77 107.909 997.137 112.373C991.5 116.75 983.85 118.938 974.186 118.938Z" fill="white"/>
</svg>
