<svg width="241" height="165" viewBox="0 0 241 165" fill="none" xmlns="http://www.w3.org/2000/svg">
<path d="M113.885 0.0899963C108.858 0.165176 98.2202 0.541031 93.0801 0.804123C74.3838 1.81892 62.0702 3.82974 50.0579 7.85138C39.5894 11.3468 33.8845 15.4624 33.5268 19.8035C33.4891 20.3297 33.5832 22.5661 33.7527 24.7836C33.9222 27.0012 34.2234 31.4738 34.4305 34.725C35.805 55.9795 38.0079 69.1156 43.468 88.2842C44.8425 93.1703 44.8236 93.0951 44.5412 93.3018C44.4282 93.3958 43.581 93.6213 42.6584 93.7905C39.7024 94.373 31.1544 97.1919 25.0164 99.6162C19.5375 101.759 12.6275 105.442 8.59832 108.336C4.92684 110.967 1.23653 116.041 0.257464 119.762C-0.269724 121.81 0.0126981 124.517 1.10473 127.918C2.25325 131.507 3.64653 133.387 7.93934 137.164C9.46442 138.517 10.8954 139.87 11.1213 140.171C11.3472 140.472 11.705 140.716 11.9121 140.716C12.7593 140.716 18.935 143.967 19.9893 144.963C20.4224 145.358 20.7236 145.47 21.4956 145.489C22.324 145.508 22.4747 145.564 22.5311 145.903C22.5688 146.222 22.6818 146.279 23.1713 146.203C23.5855 146.147 23.8303 146.203 23.9997 146.448C24.188 146.711 24.4139 146.748 24.9223 146.673C25.6001 146.56 25.6001 146.579 25.4872 147.087C25.3742 147.613 25.3742 147.632 26.2779 147.632C28.0854 147.632 31.5498 148.834 31.7381 149.53C31.8134 149.83 31.9264 149.849 32.51 149.718C33.6021 149.473 33.6962 149.492 33.5644 149.999C33.4515 150.469 33.4703 150.469 34.5058 150.357C35.3531 150.263 35.6355 150.319 35.9179 150.563C36.125 150.751 36.4451 150.864 36.6711 150.826C36.8782 150.789 37.1606 150.92 37.3112 151.127C37.5183 151.428 37.8572 151.503 38.8739 151.54C39.7212 151.578 42.0371 152.067 45.4826 152.931C51.79 154.51 58.5682 155.882 61.4865 156.182C64.4237 156.464 64.5555 156.22 61.9572 155.28C59.5284 154.416 57.9845 153.664 57.5326 153.157C57.3443 152.95 56.6289 152.536 55.9699 152.255C55.3109 151.973 54.7649 151.672 54.7649 151.597C54.7649 151.428 55.9322 151.522 58.4364 151.916C60.6204 152.236 62.0514 152.668 62.2773 153.063C62.4279 153.345 62.6162 153.363 64.1036 153.157C65.0074 153.044 65.7982 152.988 65.8358 153.025C65.8923 153.081 65.7793 153.288 65.5911 153.495C65.2522 153.852 65.271 153.871 65.6664 153.871C65.8923 153.871 66.8902 153.777 67.8693 153.645C69.4132 153.457 69.6768 153.476 69.9592 153.72C70.4299 154.134 71.2018 154.228 75.9089 154.435C78.1494 154.547 80.8418 154.754 81.8774 154.904C86.0007 155.525 93.9086 156.013 102.607 156.182C104.565 156.22 105.017 156.276 105.3 156.558C105.488 156.727 105.676 156.878 105.751 156.878C105.827 156.878 106.599 156.972 107.484 157.066C110.025 157.366 114.337 157.329 115.956 156.99C117.594 156.671 123.619 156.408 136.291 156.107C145.234 155.919 146.044 155.863 149 155.205C151.297 154.698 156.851 154.077 160.297 153.946C162.518 153.852 163.441 153.739 164.589 153.382C166.227 152.875 173.702 151.954 176.451 151.916L178.108 151.898L178.71 152.555C179.294 153.213 179.294 153.213 178.861 153.269C178.616 153.307 178.089 153.57 177.675 153.871C176.621 154.641 175.566 154.773 174.851 154.247C174.549 154.021 174.022 153.796 173.702 153.758C172.874 153.626 170.012 153.965 169.748 154.228C169.372 154.604 169.937 154.867 171.104 154.904C171.725 154.923 172.347 155.017 172.478 155.13C172.874 155.449 174.964 155.618 176.997 155.468C178.334 155.374 178.805 155.28 178.597 155.149C178.409 155.055 178.277 154.867 178.277 154.735C178.277 154.566 178.748 154.453 179.84 154.378C182.627 154.19 192.398 151.728 200.118 149.267C204.524 147.876 208.892 146.598 209.777 146.448C210.172 146.391 210.549 146.203 210.605 146.053C210.662 145.884 211.001 145.79 211.641 145.79C212.658 145.79 212.996 145.658 214.22 144.719C214.691 144.362 215.275 144.099 215.557 144.099C215.858 144.099 216.48 143.817 216.988 143.441C218.927 142.031 219.605 141.656 220.113 141.656C220.49 141.656 220.829 141.468 221.206 141.017C221.507 140.678 222.429 139.945 223.22 139.4C226.157 137.39 228.379 135.585 230.092 133.8C232.107 131.695 234.084 128.933 234.592 127.467C235.044 126.17 235.383 122.712 235.289 120.025C235.232 118.127 235.176 117.751 234.705 116.793C232.597 112.546 228.774 108.543 223.559 105.141C218.193 101.665 212.337 99.0148 202.566 95.6697L198.518 94.2979L201.248 94.3918C210.342 94.6925 211.453 94.7113 213.768 94.5046C216.856 94.2227 218.927 93.7717 222.109 92.6817C227.249 90.9528 229.716 89.5245 232.973 86.3673C237.04 82.4585 239.262 78.4744 240.448 73.0057C240.994 70.4687 241.032 65.4135 240.523 62.7449C239.469 57.1071 236.965 52.2774 233.086 48.4249C228.36 43.7079 223.597 41.7346 214.804 40.8326C213.015 40.6447 209.156 40.4755 204.863 40.4192L197.821 40.3064L197.99 35.0256C198.066 32.1128 198.141 26.8696 198.141 23.3554C198.141 15.4624 198.122 15.4061 196.108 13.3952C190.535 7.87018 178.334 3.84854 160.767 1.74376C148.585 0.296722 133.843 -0.229477 113.885 0.0899963ZM121.661 1.59341C120.08 1.631 117.481 1.631 115.919 1.59341C114.337 1.57463 115.617 1.53703 118.781 1.53703C121.944 1.53703 123.224 1.57463 121.661 1.59341ZM104.998 2.11961C104.885 2.23238 103.247 2.32634 88.8438 3.05925C77.0197 3.66061 76.5679 3.64183 82.0657 2.96529C85.0217 2.60823 89.4463 2.26996 92.7036 2.1572C95.7537 2.04445 105.092 2.02565 104.998 2.11961ZM139.774 2.21358C139.849 2.32634 139.341 2.4015 138.362 2.4015C137.383 2.4015 136.874 2.32634 136.95 2.21358C137.006 2.10081 137.646 2.02565 138.362 2.02565C139.077 2.02565 139.717 2.10081 139.774 2.21358ZM152.389 2.30754C157.679 2.73978 161.407 3.13441 163.177 3.45389C164.043 3.60423 165.361 3.73578 166.096 3.75458H167.451L166.152 4.2056C164.552 4.75058 164.137 4.75058 161.031 4.28076C159.694 4.09283 156.06 3.75458 152.954 3.52905C147.682 3.172 143.464 2.72098 142.768 2.45789C141.468 1.96927 146.929 1.87531 152.389 2.30754ZM132.807 3.43509C144.462 3.86732 153.744 4.44991 159.826 5.12643C168.129 6.06607 180.461 8.8286 182.1 10.1065C182.363 10.3132 183.022 10.5763 183.549 10.6703C185.47 11.0274 189.631 13.0945 191.683 14.7107C192.945 15.7067 193.716 17.1162 193.773 18.6196C193.811 19.5029 193.773 19.5968 193.396 19.6532C193.133 19.6908 192.737 20.123 192.229 20.9123C191.024 22.8292 188.633 24.3702 183.568 26.4374C180.706 27.6213 178.936 28.1475 177.92 28.1475C177.449 28.1475 176.922 28.2979 176.621 28.5046C176.282 28.7489 175.66 28.8992 174.7 28.9556C173.928 29.012 172.817 29.2375 172.252 29.4442C171.65 29.6697 170.784 29.8389 170.162 29.8389C169.428 29.8389 169.052 29.914 168.995 30.102C168.788 30.6282 164.683 31.455 159.393 32C157.811 32.1504 156.569 32.3759 156.192 32.5826C155.627 32.8645 152.859 33.2028 152.859 32.9772C152.859 32.9209 153.292 32.7329 153.801 32.5638C154.328 32.3947 154.742 32.1692 154.742 32.0564C154.742 31.7557 153.65 32.0564 152.012 32.8081C150.581 33.4659 150.412 33.4846 147.776 33.5974C146.251 33.6726 144.933 33.7665 144.839 33.8417C144.726 33.8981 142.24 34.1236 139.303 34.3303C121.303 35.6458 109.592 35.7774 93.8332 34.8001C88.166 34.4619 86.0007 34.2551 82.9318 33.7477C81.0678 33.4471 80.1075 33.3907 78.8837 33.5034L77.2645 33.6162L77.6975 33.1652L78.1494 32.6954L75.8147 32.7893C73.4612 32.9021 70.8629 32.6954 67.9446 32.1692C65.7982 31.7933 65.1015 31.5302 65.2145 31.1544C65.2898 30.91 64.9886 30.8725 63.0869 30.8537C60.0556 30.8349 55.5557 29.8764 54.7649 29.0871C54.5201 28.8428 54.1436 28.7301 53.5034 28.7301C52.0348 28.7489 47.4407 27.1327 46.1793 26.1743C45.8404 25.9112 45.445 25.7608 45.2755 25.8172C44.6354 26.0615 41.1145 23.9379 39.5141 22.3406C38.1961 21.0063 37.8007 19.1082 38.5915 17.8115C39.0811 17.0222 39.2882 16.8531 40.7003 16.1014C41.2839 15.7631 42.3948 14.955 43.1479 14.2973C43.9011 13.6395 44.8048 13.0194 45.1625 12.9254C45.5579 12.8127 45.8968 12.5684 46.0098 12.3241C46.1604 11.967 46.3111 11.8918 46.9512 11.9482C47.855 12.0234 49.2859 11.7227 50.4156 11.2153C51.0746 10.9334 51.1875 10.8018 51.0181 10.5951C50.7168 10.2381 51.9783 9.76823 55.9322 8.80981C60.338 7.73863 63.4258 7.17485 67.2856 6.74261C69.1496 6.51711 71.6537 6.17883 72.8399 5.97211C78.7707 4.93851 93.3625 3.52907 100.8 3.28476C106.184 3.09683 126.425 3.1908 132.807 3.43509ZM75.4758 3.90491C75.6829 4.03647 75.4947 4.09283 74.8168 4.07405C74.1202 4.07405 73.9696 4.01767 74.252 3.90491C74.7604 3.6794 75.1369 3.6794 75.4758 3.90491ZM170.125 4.39352C170.652 4.54387 170.501 4.84454 169.899 4.84454C169.428 4.84454 169.165 4.61903 169.372 4.39352C169.522 4.26198 169.598 4.26198 170.125 4.39352ZM171.123 5.80298C171.123 5.89694 170.821 5.97211 170.464 5.97211C169.824 5.97211 169.56 5.70901 170.031 5.55867C170.37 5.44592 171.123 5.61505 171.123 5.80298ZM183.041 7.88896C183.417 8.00172 183.719 8.20845 183.7 8.3212C183.662 8.45274 183.851 8.73463 184.114 8.94136C184.735 9.46756 184.434 9.44876 182.664 8.88498C181.064 8.37758 180.273 7.92656 180.461 7.62587C180.593 7.41914 181.855 7.5507 183.041 7.88896ZM35.7673 19.9727C35.5602 20.4425 35.2966 20.8184 35.2025 20.8184C35.0895 20.8184 34.9954 20.7808 34.9954 20.7244C34.9954 20.5177 35.579 19.2398 35.7861 18.9767C36.1815 18.5069 36.1627 19.0706 35.7673 19.9727ZM37.5372 25.7421C39.1187 26.5877 44.5789 28.7301 47.7985 29.7637C51.1122 30.8161 51.8089 31.098 51.6582 31.3423C51.5264 31.549 51.0181 31.4738 48.5139 30.8537C47.5161 30.6094 46.5935 30.4026 46.4617 30.4026C45.9345 30.4026 46.6311 30.7597 48.2692 31.3423C49.6248 31.8309 50.3591 31.9624 51.9407 32.0564C53.6729 32.1316 53.9364 32.188 54.2189 32.5638C54.4072 32.7893 54.9155 33.0712 55.3674 33.2028C56.6665 33.5974 57.2125 33.9357 57.2125 34.3867C57.2125 34.725 57.2879 34.7626 57.9657 34.6498C58.3799 34.5934 59.0765 34.4807 59.5284 34.4243L60.3192 34.2927L59.8485 34.8001L59.3966 35.3075L60.9217 35.176C62.2961 35.0632 62.5221 35.082 63.1246 35.4767C63.6706 35.7962 63.953 35.8525 64.5555 35.7586C65.045 35.6834 65.4216 35.7022 65.5911 35.8525C65.7417 35.9841 67.3609 36.172 69.6203 36.3223C72.8211 36.5291 73.48 36.623 74.0072 36.9425C74.5344 37.262 74.9298 37.3372 76.5114 37.3184C77.5657 37.2996 79.072 37.4311 79.9569 37.6003C81.6891 37.9573 87.3752 38.3708 94.3039 38.6902C101.233 38.9909 129.287 39.1225 136.291 38.8782C142.09 38.6714 142.786 38.5963 146.834 37.7506C147.813 37.5439 149.734 37.2808 151.071 37.168C152.426 37.0553 154.121 36.8485 154.836 36.6982C155.571 36.5667 157.209 36.3975 158.508 36.3223C161.991 36.1532 163.61 35.9089 164.194 35.4767C164.928 34.9505 165.606 34.8565 166.886 35.082C168.129 35.3075 168.298 35.2512 167.865 34.7626C167.564 34.4431 167.621 34.4243 169.202 34.4995C171.424 34.5934 175.641 33.7477 175.641 33.2028C175.641 32.8833 176.395 32.6578 178.372 32.3759C180.631 32.0376 182.702 31.4362 184.848 30.4966C186.769 29.6509 187.597 29.5006 187.842 29.9704C188.03 30.2899 188.087 30.2711 188.671 29.7261C189.367 29.0684 191.871 27.377 191.984 27.471C192.022 27.5086 191.834 27.9784 191.551 28.5234C190.76 30.0832 190.666 30.4026 191.005 30.4026C191.175 30.4026 191.551 30.1395 191.852 29.8013C192.624 28.9932 193.905 26.8132 193.905 26.3246C193.905 25.7796 194.187 25.6293 194.564 26.0051C194.827 26.287 194.827 26.3622 194.47 26.9636C194.112 27.5649 194.112 27.6589 194.375 27.9596C195.204 28.8804 195.449 35.6834 194.733 37.6566C194.601 37.9949 194.601 37.9949 194.978 37.6754C195.901 36.8673 196.785 37.6942 196.541 39.0849C196.183 41.0581 197.237 41.6031 202.283 42.0541C203.432 42.1481 206.181 42.3736 208.402 42.5427C215.124 43.0313 219.925 43.7643 222.844 44.7603C224.67 45.3804 226.666 46.4516 226.666 46.8275C226.666 47.053 225.913 46.9214 223.616 46.3013C222.335 45.9442 220.434 45.5308 219.398 45.3616C218.381 45.1925 217.045 44.8918 216.461 44.6851C215.199 44.2529 213.448 44.2153 207.555 44.4972C202.961 44.7227 199.986 45.0234 199.365 45.3053C199.045 45.4744 198.875 45.7375 198.8 46.2073C198.725 46.5644 198.536 47.0718 198.367 47.3161C197.915 47.9738 197.972 48.3497 198.593 48.8759C199.327 49.4772 200.796 49.8343 202.697 49.8343C203.884 49.8343 204.317 49.7591 204.599 49.5148C205.484 48.7067 213.9 49.496 219.247 50.8867C221.996 51.6008 223.503 52.3713 226.026 54.3821C228.285 56.1862 229.885 57.0507 231.335 57.2198C232.54 57.3514 234.009 57.1447 234.122 56.8064C234.178 56.6561 233.933 56.1487 233.557 55.66C232.785 54.6452 232.728 54.4573 233.256 54.3258C234.14 54.1003 233.519 52.7096 231.58 50.6236L230.902 49.8719L231.655 50.5108C232.898 51.5444 234.159 53.2546 235.025 55.0775C237.511 60.3018 237.548 60.3958 237.868 63.008C238.301 66.541 238.509 67.631 238.942 68.3639C239.488 69.3036 239.582 70.8258 239.205 72.705C238.866 74.34 238.283 75.881 238.019 75.881C237.925 75.881 237.755 75.787 237.624 75.6555C237.304 75.336 236.983 75.8246 236.099 78.1361C235.195 80.4664 235.157 80.598 235.477 80.7107C235.609 80.7671 235.891 80.3913 236.174 79.7523C236.437 79.1697 236.72 78.6999 236.833 78.6999C237.417 78.6999 236.532 80.4288 234.856 82.5524C232.71 85.2962 230.036 87.5701 226.854 89.3554C225.611 90.0507 223.295 91.0091 223.164 90.8588C223.107 90.8024 223.954 90.295 225.028 89.7124C226.101 89.1299 227.193 88.4909 227.438 88.2842C227.871 87.9459 227.871 87.9271 227.513 87.9083C226.421 87.9083 221.639 90.5769 221.45 91.3098C221.356 91.6481 221.243 91.6857 220.697 91.5729C220.339 91.5165 219.944 91.4226 219.831 91.3662C219.699 91.3286 219.511 91.479 219.417 91.7045C218.984 92.7005 214.465 93.3582 208.308 93.3582C201.53 93.3582 197.972 92.7757 198.348 91.7608C198.499 91.3662 199.76 90.934 201.191 90.8024C202.472 90.6709 202.472 90.6709 202.133 91.0467C201.813 91.4226 201.813 91.4414 202.227 91.5541C202.886 91.7233 207.197 91.6857 208.779 91.479C209.664 91.3474 210.229 91.1971 210.342 91.0091C210.549 90.6145 211.867 90.6333 212.281 91.0467C212.545 91.3098 212.883 91.3662 213.825 91.3286C214.484 91.3098 215.162 91.2159 215.331 91.1219C215.595 90.9715 215.519 90.8776 214.898 90.6145L214.145 90.2762L215.256 90.1259C216.461 89.9755 218.588 89.0735 219.247 88.4533C219.756 87.9835 222.599 86.9687 223.371 86.9875L223.936 87.0063L223.408 87.1942C222.844 87.4009 222.523 88.1714 222.862 88.5097C223.182 88.8292 225.555 87.5889 227.061 86.3485C229.151 84.6196 231.674 80.8423 232.239 78.6247C232.371 78.0798 232.371 78.0798 231.674 78.1925C230.3 78.418 224.896 82.4397 223.936 83.9619C223.352 84.8827 221.676 85.766 218.57 86.7808C215.124 87.9083 213.279 88.1714 208.497 88.1714C204.844 88.1902 204.279 88.1526 203.733 87.852C203.394 87.664 203.131 87.4197 203.187 87.2882C203.3 86.9311 204.241 86.7996 208.44 86.5928C210.681 86.4989 213.411 86.2734 214.503 86.123C216.536 85.8411 221.563 84.7887 221.733 84.6196C221.789 84.5632 220.904 84.582 219.775 84.6384C217.892 84.7512 217.741 84.7324 218.005 84.4505C218.174 84.3001 219.436 83.6612 220.81 83.0786C222.203 82.4772 223.371 81.8759 223.427 81.7443C223.54 81.3873 223.182 81.4624 220.904 82.3645C218.607 83.2665 218.494 83.3041 218.664 83.0222C219.021 82.4397 223.484 80.5792 224.482 80.5792C225.348 80.5792 227.362 79.1133 227.513 78.3804C227.664 77.6851 228.191 76.6139 229.076 75.2045C229.471 74.5655 230.074 73.2124 230.412 72.1976C230.996 70.4499 231.373 69.6794 231.373 70.2056C231.373 70.6566 231.712 70.4123 231.919 69.811C232.54 68.082 232.333 64.7933 231.467 62.2939C231.015 61.0348 229.603 58.4038 229.358 58.4038C229.302 58.4038 229.302 58.6481 229.377 58.9676C229.433 59.2682 229.452 59.5313 229.415 59.5313C229.377 59.5313 228.982 58.9864 228.548 58.3098C227.08 56.0735 224.821 54.4009 221.563 53.1418C218.984 52.1646 215.143 51.4693 212.168 51.4505C209.852 51.4505 208.967 51.3001 209.099 50.9619C209.174 50.7364 208.61 50.6988 205.729 50.6988C201.643 50.6988 198.8 50.8679 198.8 51.1122C198.8 51.225 199.064 51.3941 199.365 51.5069C199.685 51.6196 199.93 51.7887 199.93 51.8639C199.93 52.0706 197.633 52.0518 197.313 51.8451C197.087 51.6948 197.068 51.1498 197.162 48.7819C197.294 45.3804 197.482 44.6851 198.216 44.6851C198.499 44.6851 199.158 44.5536 199.666 44.4032C200.175 44.2529 201.267 44.0274 202.095 43.8958L203.601 43.6703L201.888 43.5387C199.666 43.3696 199.365 43.2757 199.365 42.6931C199.365 42.4488 199.29 42.2421 199.195 42.2421C198.913 42.2421 198.423 42.8058 198.423 43.1441C198.405 43.3884 198.311 43.332 197.99 42.9374C197.52 42.3736 197.294 42.2984 197.294 42.6931C197.294 43.0126 196.428 43.7455 196.051 43.7455C195.901 43.7455 195.788 43.6327 195.788 43.4824C195.788 43.0689 194.244 41.8098 192.907 41.1333C191.325 40.3252 190.742 40.3816 190.233 41.3964C189.894 42.0729 189.857 42.5239 189.857 46.2073C189.857 50.4733 189.932 50.8867 190.704 50.8867C190.892 50.8867 191.363 50.5296 191.721 50.0974C192.097 49.6652 192.455 49.3833 192.53 49.4397C192.775 49.7028 192.191 51.0746 191.627 51.5069L191.043 51.9579L192.078 52.0894C193.34 52.2586 194.696 53.0667 195.129 53.9123C195.505 54.6264 195.58 55.8104 195.26 55.9231C194.714 56.0923 194.507 56.5245 194.601 57.2574C194.733 58.291 194.206 59.3058 192.643 61.016L191.363 62.4066L191.118 61.5798C190.591 59.8132 190.12 57.3326 190.12 56.299C190.101 55.4533 190.045 55.209 189.819 55.209C189.668 55.209 188.859 54.5137 188.012 53.6492C186.731 52.3525 186.166 51.9391 184.679 51.225C180.782 49.3081 175.999 48.3497 171.782 48.6504C169.861 48.7819 168.976 49.1954 168.449 50.2102C168.091 50.8867 168.073 51.1874 168.167 52.9539C168.223 54.0439 168.411 55.3969 168.581 55.9607C169.278 58.4602 169.654 60.4898 169.692 61.9744C169.711 63.5718 169.711 63.5906 168.656 65.6578C167.432 68.0444 167.056 69.1156 167.47 69.1156C167.752 69.1156 169.014 67.5934 169.748 66.3343C171.236 63.8161 171.537 61.1099 170.633 58.1971C169.692 55.1151 169.391 52.6344 169.805 51.5444C170.068 50.8679 171.029 50.5108 172.572 50.5108C174.813 50.5108 180.198 51.2062 181.384 51.6572C185.112 53.0479 187.616 55.7164 187.842 58.5353C187.936 59.7193 187.729 60.0763 187.353 59.4186C187.089 58.93 186.995 59.2682 186.75 61.5985C186.637 62.7825 186.411 63.9476 186.261 64.1731C186.11 64.4174 185.733 64.643 185.3 64.6993C184.02 64.9249 183.851 65.0188 182.589 66.2215C181.685 67.1048 180.932 67.6122 179.727 68.176C178.823 68.5894 178.089 68.9841 178.089 69.0592C178.089 69.1156 178.24 69.3411 178.428 69.5479C178.729 69.9237 178.729 69.9237 178.372 69.7922C176.978 69.2848 175.077 69.6418 175.077 70.4123C175.077 70.9197 174.757 71.0701 172.46 71.6526C170.501 72.1413 170.012 72.16 170.727 71.709C170.953 71.5775 171.123 71.4083 171.123 71.3332C171.123 70.9949 170.407 71.2204 169.485 71.8594C168.506 72.5171 168.054 72.6299 166.698 72.4419C166.491 72.4231 166.322 72.4983 166.322 72.6299C166.322 73.0997 165.851 73.25 163.027 73.7198C161.426 73.9829 158.546 74.4903 156.625 74.8474C151.504 75.787 149.527 75.9374 144.726 75.8246C140.527 75.7307 138.381 75.4864 135.255 74.7534C132.148 74.0393 128.082 73.7574 120.287 73.7574C110.195 73.7386 107.672 73.9266 94.5864 75.6743C87.3752 76.6327 84.7769 76.6139 78.8649 75.5803C75.7206 75.0165 75.1557 74.8662 74.8733 74.5091C74.5909 74.1521 74.3085 74.0769 72.6139 73.9641C68.0952 73.6635 67.681 73.5883 67.3232 73.2312C66.9467 72.8178 66.8337 72.8178 65.704 73.0809C64.7626 73.2876 64.5179 73.1749 65.045 72.799C65.5911 72.3856 65.2898 72.2916 64.1789 72.4983C63.2752 72.6674 62.5974 72.5735 63.1999 72.3668C63.6141 72.2164 63.4258 71.803 62.8233 71.5399C62.1267 71.258 59.8861 71.2016 58.9636 71.4271C58.474 71.5587 58.3422 71.5211 58.3422 71.3332C58.3422 70.8633 57.5326 70.2808 55.631 69.3975C53.0515 68.2136 52.2796 67.5934 50.6792 65.4886C49.9261 64.4926 49.2106 63.6657 49.0976 63.6657C49.0035 63.6657 49.1353 63.9852 49.38 64.3611C49.7001 64.8309 49.7943 65.1128 49.6813 65.2631C49.5495 65.4135 49.6625 65.7141 50.0579 66.2028C50.3591 66.5974 50.6227 66.9921 50.6227 67.0672C50.6227 67.3303 49.9825 67.2739 49.1918 66.9357C48.7022 66.729 48.175 66.6726 47.5537 66.729C46.9889 66.8041 46.7064 66.7853 46.7629 66.6538C47.1583 66.0148 46.0286 64.3047 45.3508 64.5114C45.0684 64.6054 44.9366 64.5114 44.8048 64.1731C44.6918 63.8725 44.4282 63.6845 44.0517 63.6094C43.5245 63.4966 43.468 63.4214 43.468 62.7449C43.468 62.1811 43.2986 61.7865 42.7149 61.016C41.8676 59.8884 41.7923 59.6253 42.3383 59.7757C42.6772 59.8696 42.7149 59.7757 42.7149 59.0615C42.7149 57.7836 43.9575 56.205 46.3111 54.4385C47.4972 53.5553 50.2461 52.1458 50.4156 52.3149C50.4721 52.3525 50.2838 52.6344 50.039 52.9163C48.9846 54.0627 48.9846 54.0439 50.2838 54.0251C51.2252 54.0063 51.6394 54.0815 52.2796 54.4573C53.2586 55.0023 53.5034 55.3782 53.8235 56.7124C54.2754 58.6105 54.9343 59.5313 55.8381 59.5313C56.5724 59.5313 56.836 59.9636 57.0243 61.4106C57.1372 62.1811 57.269 63.102 57.3255 63.4402C57.4385 63.9852 57.4008 64.0416 57.0054 64.004C56.5724 63.9476 56.5536 64.004 56.4971 65.1692L56.4406 66.3907L57.0054 65.8457C57.4197 65.451 57.6832 65.3383 58.0222 65.4135C58.2669 65.4886 59.4154 66.4095 60.6016 67.4619C64.6685 71.1452 65.9676 72.1225 66.8525 72.1225C67.2291 72.1225 67.2103 72.0661 66.589 71.5587C66.2124 71.258 65.7229 70.619 65.5157 70.168C65.2898 69.717 64.0095 68.176 62.6539 66.7477C61.2982 65.3195 60.0932 63.9476 59.9803 63.7033C59.8297 63.3839 59.6414 63.2899 59.3025 63.3275L58.8129 63.3839V61.8241C58.8129 60.5462 58.7564 60.2079 58.4929 60.02C57.382 59.2119 58.8506 57.746 61.8631 56.6185C63.84 55.8856 63.7836 56.0359 63.2752 52.6344L62.9363 50.3605L64.0095 50.0598C64.5932 49.8907 65.817 49.59 66.7207 49.4021C68.4906 49.0074 68.6224 48.951 68.4153 48.6316C68.3211 48.4812 67.455 48.4436 65.6475 48.4812C63.0681 48.5376 63.0304 48.5376 62.6915 48.0866C62.4091 47.7295 62.1267 47.6168 61.2418 47.5416C60.0179 47.4476 59.9991 47.6731 61.2229 47.9738C61.6371 48.0678 62.0137 48.2745 62.0702 48.3873C62.202 48.8195 61.1288 49.0262 58.0598 49.1954C51.6582 49.5336 46.97 51.2813 43.1479 54.7204C41.6605 56.0923 41.2651 56.9192 40.9262 59.5313C40.625 61.7865 40.5497 62.0496 40.2296 61.8616C39.7024 61.5422 39.307 60.0387 39.1187 57.6145C39.0246 56.2426 38.648 53.0854 38.2903 50.6048C37.9514 48.1242 37.556 45.2677 37.443 44.2529C37.3112 43.2569 37.1418 42.3924 37.0664 42.336C36.9911 42.2984 36.8217 42.7307 36.6711 43.332L36.4263 44.4032L36.2945 42.8998C36.1062 40.6071 35.8615 26.2119 36.0121 25.6481C36.0686 25.3662 36.2004 25.1407 36.2757 25.1407C36.3698 25.1407 36.9347 25.4038 37.5372 25.7421ZM196.145 27.3018C196.145 27.6025 196.07 28.0348 195.976 28.2415C195.863 28.5046 195.806 28.2039 195.806 27.3018C195.806 26.3998 195.863 26.0991 195.976 26.3622C196.07 26.5689 196.145 26.9824 196.145 27.3018ZM180.537 31.3423C179.915 31.8121 179.219 31.9812 178.955 31.7181C178.635 31.3799 179.351 30.9664 180.236 30.9664H181.007L180.537 31.3423ZM173.947 33.4095C173.947 33.5034 173.646 33.5974 173.288 33.5974C172.93 33.5974 172.629 33.5034 172.629 33.4095C172.629 33.2967 172.93 33.2215 173.288 33.2215C173.646 33.2215 173.947 33.2967 173.947 33.4095ZM205.107 41.3964C205.22 41.434 204.486 41.4528 203.507 41.4528C202.151 41.434 201.944 41.3964 202.66 41.3212C203.545 41.2085 204.693 41.246 205.107 41.3964ZM214.465 42.0917C214.314 42.2421 214.032 42.2421 213.448 42.1105L212.639 41.9038L213.674 41.885C214.446 41.8662 214.635 41.9226 214.465 42.0917ZM218.946 42.6179C218.946 42.7119 218.701 42.8058 218.4 42.8058C218.08 42.8058 217.779 42.7119 217.722 42.6179C217.647 42.5051 217.873 42.43 218.268 42.43C218.645 42.43 218.946 42.5051 218.946 42.6179ZM223.804 43.7643C224.896 44.1213 225.348 44.4972 224.67 44.4972C223.823 44.4972 220.641 43.4636 220.641 43.1817C220.641 42.9938 222.392 43.3132 223.804 43.7643ZM195.486 45.8315C195.712 46.4892 195.486 47.3349 195.016 47.4476C194.752 47.5228 194.658 47.6919 194.696 48.049C194.733 48.4436 194.658 48.5564 194.319 48.594C193.698 48.688 193.34 48.3121 193.34 47.5604C193.34 46.8463 193.792 45.6247 194.15 45.3992C194.601 45.0985 195.298 45.3241 195.486 45.8315ZM207.141 46.9214C207.725 47.2973 207.725 47.3161 207.273 47.3161C206.727 47.3161 204.712 46.7147 204.505 46.4892C204.204 46.1509 206.557 46.5456 207.141 46.9214ZM210.812 47.1094C211.001 47.2221 210.982 47.2973 210.681 47.3725C210.172 47.504 209.494 47.3349 209.645 47.1094C209.777 46.9026 210.492 46.9026 210.812 47.1094ZM37.2547 48.688C37.2547 49.0262 37.1606 49.4209 37.0664 49.5712C36.9347 49.7779 36.8782 49.5712 36.8782 48.8571C36.8782 48.2369 36.9535 47.8987 37.0664 47.9738C37.1794 48.0302 37.2547 48.3685 37.2547 48.688ZM222.316 48.1805C223.032 48.3309 223.051 48.5 222.429 48.7819C221.752 49.1014 220.829 49.0638 219.36 48.688C218.212 48.3873 218.155 48.3497 218.664 48.2369C219.417 48.0678 221.582 48.0302 222.316 48.1805ZM234.291 51.2626C234.799 51.77 234.931 52.0143 234.724 52.0143C234.555 52.0143 234.14 51.676 233.82 51.2626C233.5 50.8491 233.293 50.5108 233.387 50.5108C233.481 50.5108 233.896 50.8491 234.291 51.2626ZM57.9657 51.2438C57.9657 51.4881 56.8548 52.3901 56.5536 52.3901C56.0452 52.3901 56.0264 51.9391 56.5347 51.5069C57.0431 51.0746 57.9657 50.9055 57.9657 51.2438ZM61.2041 52.0143C61.656 52.6156 61.9007 54.8895 61.543 55.303C61.2794 55.6225 59.02 56.3366 58.3234 56.3366C57.7586 56.3178 57.0807 55.754 56.29 54.664C55.5745 53.668 55.5557 53.4425 56.177 53.5928C56.5536 53.6868 56.7607 53.5928 57.1184 53.217C57.382 52.9351 57.5891 52.6532 57.5891 52.578C57.5891 52.3525 58.5117 52.0143 58.8129 52.127C59.133 52.2586 59.133 52.2962 59.1707 54.119C59.1707 54.8144 59.2836 55.3969 59.3778 55.4157C59.4907 55.4345 59.7167 55.1714 59.905 54.8144C60.1874 54.307 60.225 53.9123 60.1497 52.9351C60.0932 52.2586 60.0932 51.6384 60.1686 51.5632C60.3945 51.3377 60.8275 51.5257 61.2041 52.0143ZM213.204 52.766C216.856 53.0291 218.099 53.217 220.17 53.9123C223.07 54.8895 224.18 55.5097 225.668 57.0131C226.722 58.0655 227.212 58.7608 227.871 60.1327C229.151 62.7449 229.565 64.6618 229.565 67.9881C229.546 70.4123 229.509 70.8633 229.076 72.0473C228.153 74.6407 226.176 76.9898 223.371 78.8127C219.323 81.4436 214.747 82.59 209.061 82.4021C206.331 82.3269 206.011 82.2705 199.836 80.8047C196.315 79.9778 193.189 79.2261 192.888 79.1509C192.361 79.0194 192.361 79.0006 192.474 78.0422C192.53 77.4972 193.095 74.4903 193.698 71.352C194.846 65.4886 195.656 61.1099 196.352 56.8064C196.955 53.0291 196.804 53.3861 197.934 53.1418C200.589 52.5968 207.894 52.4089 213.204 52.766ZM37.9325 54.5889C38.2715 56.5057 38.4786 60.0951 38.215 59.7193C37.7819 59.0427 37.1606 52.5968 37.556 53.0103C37.6313 53.0854 37.8007 53.7808 37.9325 54.5889ZM55.2168 54.8708C55.5933 55.4157 55.6122 57.2574 55.2544 57.7648C54.8402 58.3286 54.6896 57.9715 54.6143 56.1487C54.5201 54.3821 54.6707 54.0815 55.2168 54.8708ZM238.829 61.1287C238.753 61.3918 238.622 61.561 238.527 61.5046C238.32 61.373 238.283 60.6025 238.471 60.4146C238.716 60.1515 238.96 60.6401 238.829 61.1287ZM188.256 61.4858C188.256 62.1059 187.936 62.914 187.691 62.914C187.447 62.914 187.447 62.1435 187.691 61.5234C187.917 60.9032 188.256 60.8844 188.256 61.4858ZM189.763 62.2375C189.763 62.3878 189.574 62.9892 189.348 63.5718C189.028 64.4362 188.915 64.5866 188.802 64.3047C188.614 63.8161 188.802 62.7073 189.16 62.2939C189.499 61.8992 189.763 61.8804 189.763 62.2375ZM239.431 65.1692C239.431 65.639 239.375 66.184 239.281 66.3907C239.168 66.635 239.13 66.184 239.13 65.0752C239.13 63.9476 239.186 63.5342 239.281 63.8537C239.356 64.1168 239.431 64.6993 239.431 65.1692ZM231.354 65.3195C231.354 65.6014 231.279 65.996 231.184 66.2028C231.071 66.4846 231.015 66.3155 231.015 65.5826C230.996 64.9624 231.071 64.6242 231.184 64.6993C231.297 64.7557 231.373 65.0376 231.354 65.3195ZM190.516 65.8269C190.647 65.9772 190.704 66.2967 190.629 66.5598C190.516 66.9921 190.553 67.0108 191.175 66.9169C191.664 66.8417 191.834 66.8793 191.834 67.0672C191.834 67.4619 191.288 68.176 190.986 68.176C190.629 68.176 190.252 68.8713 190.516 69.0217C190.629 69.0968 190.836 69.0968 190.986 69.0405C191.193 68.9653 191.269 69.0968 191.269 69.6042C191.269 70.3559 190.572 72.1225 190.271 72.1225C190.158 72.1225 190.139 72.4231 190.214 72.8742C190.346 73.6635 190.026 76.0313 189.744 76.4824C189.612 76.6703 189.461 76.6139 189.104 76.2005C188.501 75.5239 188.219 74.4528 188.369 73.4004C188.445 72.8178 188.407 72.4983 188.256 72.4044C187.861 72.16 187.673 72.5923 187.409 74.4903C187.108 76.52 186.825 77.6851 186.581 77.8354C186.392 77.967 185.809 74.9977 185.677 73.2124C185.583 72.0473 185.62 71.8594 186.11 71.1452C186.392 70.6942 186.618 70.2056 186.618 70.0553C186.599 69.8673 187.127 69.4539 187.917 69.0217C189.612 68.0632 189.951 67.631 189.951 66.4659C189.951 65.5262 190.101 65.3383 190.516 65.8269ZM188.802 67.1236C189.085 67.4619 188.878 67.9505 188.407 68.1008C187.993 68.2324 187.691 67.9317 187.691 67.4055C187.691 66.8229 188.407 66.635 188.802 67.1236ZM48.834 71.7466C49.0223 71.9533 49.1164 72.2352 49.0411 72.4044C48.9658 72.6299 49.0976 72.6111 49.6436 72.2916L50.3403 71.8782L50.9616 72.4607C51.6582 73.1185 53.4281 73.7574 55.1791 74.0017C55.8946 74.1145 56.836 74.434 57.6268 74.8286C59.6602 75.8998 62.1643 76.5012 70.3922 77.8542C73.2353 78.3241 76.6808 78.9066 78.0176 79.1697C81.1619 79.7335 81.8774 79.7899 90.4442 80.0154C118.931 80.7671 132.939 80.8799 134.615 80.3725C135.933 79.9966 139.153 79.6583 143.445 79.4516C154.064 78.963 157.774 78.5684 162.462 77.4784C163.968 77.1213 166.039 76.6703 167.075 76.4636C168.11 76.2569 169.673 75.8622 170.558 75.5991C172.968 74.8662 178.315 73.6447 181.12 73.1749C181.666 73.0809 181.836 73.1185 181.949 73.3816C182.005 73.5695 182.194 75.2796 182.325 77.1965C182.495 79.602 182.664 80.9362 182.909 81.5188C183.323 82.5524 183.342 84.3189 182.984 86.1606C182.74 87.4009 182.74 87.5513 183.041 87.8708C183.361 88.209 183.361 88.2842 182.966 89.299C182.683 90.1071 182.627 90.4266 182.777 90.6145C182.966 90.8212 181.911 91.1407 177.016 92.3246C170.219 93.9784 165.851 95.1811 165.568 95.463C165.437 95.5946 165.493 95.6321 165.757 95.557C165.964 95.5006 166.773 95.3503 167.545 95.2375C168.317 95.1059 170.294 94.7301 171.932 94.373C173.57 94.016 175.095 93.7341 175.321 93.7341C176.112 93.7529 175.133 94.1287 172.572 94.7865C171.217 95.1435 170.068 95.463 170.031 95.5194C169.767 95.7825 171.876 95.5382 176.338 94.7677C184.171 93.4334 184.453 93.4334 184.076 94.8241C183.851 95.6509 182.589 98.6766 181.855 100.124C181.196 101.439 180.725 101.853 180.047 101.777C179.558 101.721 179.52 101.777 179.595 102.191C179.784 103.093 179.671 104.916 179.388 105.48C179.238 105.78 178.974 106.062 178.786 106.1C178.503 106.156 178.447 106.043 178.485 105.404C178.541 104.596 178.428 104.333 178.108 104.521C177.938 104.634 177.863 104.916 177.618 106.363C177.562 106.795 177.223 107.396 176.79 107.904C176.395 108.355 175.754 109.313 175.359 110.009C174.964 110.723 174.399 111.625 174.079 112.019C173.777 112.414 173.382 113.109 173.194 113.598C172.874 114.462 172.554 114.726 171.292 115.233C170.916 115.364 170.388 115.778 170.125 116.116C169.259 117.3 168.298 120.608 168.845 120.608C169.108 120.608 169.485 120.081 170.275 118.578C171.01 117.187 171.518 116.755 171.65 117.45C171.688 117.638 171.349 118.578 170.916 119.518C170.294 120.852 170.106 121.51 170.106 122.243C170.087 122.788 170.031 123.239 169.974 123.239C169.918 123.239 169.485 122.769 169.033 122.205C168.581 121.641 168.186 121.228 168.148 121.265C168.091 121.303 168.167 121.904 168.298 122.581C168.43 123.257 168.487 123.859 168.43 123.934C168.374 123.99 168.073 123.859 167.771 123.633C167.112 123.163 166.792 123.126 166.792 123.521C166.792 123.784 167.508 124.554 167.752 124.554C167.828 124.554 168.035 124.686 168.204 124.855C168.713 125.381 168.223 125.682 166.868 125.682C165.512 125.682 165.192 126.058 166.265 126.358C166.999 126.565 167.15 127.054 166.679 127.58C166.416 127.88 166.19 127.937 165.738 127.843C165.305 127.768 165.117 127.824 165.022 128.031C164.966 128.219 164.665 128.313 164.175 128.313C163.516 128.313 163.384 128.388 163.29 128.782C163.14 129.384 163.441 130.267 163.836 130.342C164.025 130.38 164.307 130.154 164.533 129.779L164.928 129.158L164.872 129.722C164.834 130.192 164.665 130.361 163.93 130.737C163.309 131.038 163.027 131.282 163.027 131.545C163.027 132.128 161.972 133.518 159.882 135.661C158.018 137.577 156.248 139.043 156.248 138.686C156.248 138.592 157.435 137.277 158.884 135.773C160.334 134.251 161.52 132.973 161.52 132.917C161.52 132.56 160.805 133.03 159.11 134.514C157.096 136.281 155.495 137.333 154.799 137.333C154.573 137.333 154.328 137.427 154.253 137.54C154.102 137.784 154.121 139.889 154.29 140.378C154.422 140.829 155.495 141.092 157.19 141.111C158.244 141.111 158.489 141.167 158.169 141.28C157.943 141.374 157.698 141.599 157.623 141.749C157.397 142.37 157.868 142.407 159.336 141.919C161.464 141.204 161.483 141.599 159.374 142.708C158.47 143.178 158.433 143.197 157.472 142.896C156.606 142.614 156.343 142.614 154.723 142.858C153.744 143.027 151.975 143.234 150.788 143.347C147.813 143.629 145.479 143.986 141.393 144.85C139.473 145.245 137.439 145.621 136.912 145.696C135.707 145.846 135.538 145.527 136.724 145.32L137.514 145.17L136.253 144.888C135.538 144.738 134.973 144.55 134.973 144.474C134.973 144.399 135.914 144.193 137.081 144.023C140.15 143.554 141.563 142.933 141.563 142.069C141.563 141.975 141.299 141.58 140.998 141.186C140.32 140.34 140.452 140.152 141.788 140.152C142.899 140.152 143.257 140.021 143.257 139.57C143.257 139.288 143.351 139.231 143.709 139.325C144.255 139.457 144.613 138.949 144.443 138.31C144.311 137.784 143.37 137.521 141.563 137.521C139.924 137.521 134.201 137.07 131.81 136.751C129.456 136.45 129.4 136.168 131.734 136.318C136.084 136.6 132.393 135.134 126.5 134.251C123.054 133.725 121.661 133.293 121.059 132.56C120.72 132.146 120.098 132.165 120.098 132.597C120.098 132.785 120.193 133.03 120.306 133.142C120.456 133.293 120.419 133.405 120.174 133.537C119.421 133.932 115.128 134.439 110.967 134.627C109.423 134.683 107.728 134.834 107.201 134.928C106.693 135.022 103.887 135.172 100.988 135.247C95.3207 135.398 94.5299 135.529 95.1512 136.206C95.4336 136.525 95.4148 136.563 94.6429 136.995C93.9839 137.352 93.8144 137.54 93.7768 138.047C93.7014 138.761 93.2872 139.006 91.4232 139.419C90.8207 139.551 90.2936 139.72 90.2371 139.795C90.1994 139.889 90.463 140.039 90.8584 140.152C91.6868 140.396 92.6659 140.171 94.6805 139.288C95.7537 138.799 96.1491 138.743 97.9001 138.724C100.084 138.686 100.329 138.63 100.329 138.066C100.329 137.634 100.611 137.615 101.986 138.01C103.191 138.367 105.846 138.273 108.048 137.822C109.216 137.596 109.141 137.577 106.26 137.671L103.247 137.747L103.624 137.352C103.887 137.089 104.415 136.882 105.13 136.769C107.634 136.356 125.672 136.694 126.557 137.164C126.82 137.314 128.496 137.446 131.019 137.54C135.048 137.69 136.799 137.822 137.514 138.029L137.891 138.141L137.514 138.292C137.307 138.367 136.554 138.442 135.82 138.461C134.709 138.498 133.146 138.761 133.768 138.818C133.862 138.837 134.125 138.949 134.314 139.1C134.653 139.344 134.634 139.382 133.843 139.588C132.506 139.945 130.642 139.851 128.816 139.344C126.839 138.78 124.711 138.461 122.866 138.461C121.04 138.461 118.969 138.254 118.969 138.066C118.969 137.991 119.232 137.878 119.534 137.803C120.475 137.596 120.174 137.333 119.025 137.333C117.048 137.333 112.981 137.822 112.548 138.104C112.322 138.254 112.322 138.292 112.567 138.461C112.718 138.555 112.812 138.649 112.756 138.667C112.699 138.686 110.138 138.761 107.069 138.818C101.666 138.931 101.459 138.949 101.101 139.344C100.498 139.983 95.7537 140.866 92.6282 140.923C91.0843 140.96 90.2371 141.129 90.3124 141.43C90.3877 141.825 89.8793 141.881 88.4672 141.674C87.4693 141.524 87.0363 141.524 86.735 141.674L86.3208 141.9L86.7539 142.238C87.94 143.197 91.1032 143.817 94.1533 143.685C95.7914 143.61 96.2432 143.516 97.034 143.103C98.2014 142.482 100.706 142.219 105.036 142.238C107.728 142.238 107.898 142.257 107.164 142.482C106.731 142.633 106.109 142.896 105.751 143.103C105.036 143.535 104.057 143.76 103.624 143.591C103.36 143.497 103.379 143.422 103.737 143.046C104.208 142.539 104.132 142.52 102.739 142.802C100.875 143.178 99.9524 143.535 99.9524 143.911C99.9524 144.099 100.084 144.305 100.254 144.362C101.346 144.775 104.848 144.907 115.768 144.888C127.103 144.869 132.167 145.001 132.469 145.301C132.638 145.47 132.243 145.734 131.395 145.997C129.55 146.56 110.082 146.542 107.691 145.978C106.166 145.602 104.095 145.414 97.5989 145.038C90.8207 144.625 90.3877 144.587 86.3961 143.835C85.0029 143.591 82.5552 143.197 80.9548 142.971C77.8293 142.539 76.6432 142.182 78.0176 142.069C78.4318 142.031 79.731 142.088 80.9172 142.219C82.0845 142.332 83.1012 142.37 83.1577 142.313C83.3271 142.163 82.6305 141.505 81.915 141.167C81.5197 140.979 80.8042 140.772 80.277 140.716L79.3356 140.622L79.1473 139.4C78.9214 137.972 78.7896 137.709 78.2812 137.709C78.0553 137.709 77.8482 137.521 77.7164 137.202C77.6034 136.92 76.9821 136.13 76.3231 135.454C75.457 134.552 75.0804 133.988 74.911 133.368C74.6286 132.316 74.3085 131.958 72.9905 131.301C71.955 130.775 71.3336 130.06 71.3336 129.365C71.3336 129.046 70.9947 128.782 70.8064 128.97C70.7311 129.046 70.637 129.741 70.5805 130.53C70.524 131.338 70.3922 131.977 70.2793 132.015C70.0533 132.09 68.3211 130.06 68.3211 129.722C68.3211 129.591 68.6036 129.553 68.9801 129.591C69.5261 129.647 69.6391 129.609 69.6391 129.309C69.6391 129.121 69.5073 128.764 69.3379 128.538C69.1684 128.294 68.9613 127.505 68.8671 126.79C68.773 126.058 68.66 125.4 68.6036 125.287C68.5282 125.193 67.9822 125.118 67.3797 125.118C66.0241 125.118 65.817 124.93 65.3275 123.276C65.1204 122.581 64.8379 121.585 64.6685 121.04C64.0471 118.841 63.5011 118.634 63.6894 120.645C63.8212 122.224 64.0095 122.355 61.9196 119.48C61.2041 118.503 60.5263 117.394 60.4133 117.037C60.3192 116.68 59.5472 115.233 58.7 113.842C56.9678 110.967 54.2565 105.517 53.6352 103.694C53.3904 103.018 53.2022 102.116 53.2022 101.702C53.2022 101.063 53.1457 100.95 52.8632 101.007C52.6185 101.082 52.3925 100.838 51.9783 99.9921C51.3758 98.8081 50.1897 95.6134 50.3026 95.4818C50.3403 95.4442 50.6039 95.7073 50.8863 96.0832C51.4323 96.7785 51.7524 96.9288 51.7524 96.459C51.7524 95.9704 52.0725 96.1583 52.3361 96.7785C52.4867 97.1168 52.5997 97.8873 52.5997 98.4886C52.5997 99.3155 52.6561 99.5598 52.8632 99.5222C53.2586 99.4471 53.4657 98.4886 53.3339 97.2671C53.2586 96.6845 53.2586 96.1395 53.3339 96.0268C53.3904 95.9328 54.1059 95.9892 55.1791 96.1959C65.1768 98.094 68.3023 98.639 74.5344 99.541C84.7957 101.044 92.4965 101.796 91.9316 101.27C91.8375 101.176 90.6701 100.913 89.3145 100.687C87.9777 100.481 86.4903 100.218 86.0196 100.142C85.5112 100.048 86.3961 100.03 88.2789 100.067C90.1618 100.105 91.235 100.067 91.009 99.9733C90.5195 99.7477 86.5656 99.1652 80.1829 98.3383C73.8943 97.5302 69.6391 96.8161 63.8024 95.6134C61.3736 95.1247 58.0786 94.4482 56.5159 94.1287C53.2022 93.4522 52.7691 93.2831 52.6185 92.6817C52.4867 92.1931 51.1311 91.385 50.698 91.5541C50.1897 91.7421 49.7754 90.5769 49.7754 88.9044C49.7754 87.9271 49.6813 87.2694 49.5495 87.1378C49.3989 86.9875 49.3047 86.3298 49.3047 85.3525C49.3047 83.6236 48.9846 81.5564 48.175 78.1925C47.4031 74.9602 46.97 71.8782 47.2148 71.3895C47.4031 71.0701 47.4972 71.0513 47.9679 71.2016C48.2692 71.3144 48.6646 71.5587 48.834 71.7466ZM183.38 72.6674C183.455 73.0057 183.436 73.701 183.38 74.246C183.229 75.2045 183.229 75.2045 183.022 74.6971C182.721 73.9641 182.721 71.8782 183.022 71.9721C183.154 72.0285 183.305 72.3292 183.38 72.6674ZM184.491 74.1709C184.491 74.4903 184.415 74.791 184.302 74.8474C184.189 74.9226 184.114 74.6971 184.114 74.3024C184.114 73.9266 184.208 73.6259 184.302 73.6259C184.415 73.6259 184.491 73.8702 184.491 74.1709ZM129.004 75.8246C129.174 75.9938 128.59 76.6327 128.251 76.6327C127.95 76.6327 127.931 76.2193 128.232 75.9186C128.477 75.6743 128.816 75.6179 129.004 75.8246ZM47.0454 76.426C47.0454 76.7455 46.97 77.0462 46.8571 77.1025C46.7441 77.1777 46.6688 76.9522 46.6688 76.5575C46.6688 76.1817 46.7629 75.881 46.8571 75.881C46.97 75.881 47.0454 76.1253 47.0454 76.426ZM101.101 76.6327C101.892 77.0649 101.289 77.7603 100.103 77.7603C98.8604 77.7603 98.7097 77.1965 99.8394 76.7079C100.555 76.4072 100.63 76.3884 101.101 76.6327ZM115.674 76.7455C114.808 76.9334 112.605 77.0462 109.178 77.1025C105.413 77.1589 104.283 77.1213 105.036 76.9898C107.032 76.6327 109.31 76.5012 113.132 76.4824C116.954 76.4824 116.973 76.4824 115.674 76.7455ZM136.008 76.877C136.366 77.0649 136.366 77.0649 136.008 77.2153C135.5 77.4032 131.96 77.422 131.96 77.2341C131.96 77.1401 132.45 76.9522 133.052 76.8206C133.636 76.6891 134.22 76.5575 134.314 76.5387C134.577 76.4448 135.575 76.6515 136.008 76.877ZM126.105 76.8206C127.121 76.9898 128.929 77.6851 128.722 77.8354C128.665 77.873 120.23 77.2905 118.875 77.1589C118.573 77.1213 119.327 77.0274 120.569 76.9334C121.812 76.8582 122.923 76.7643 123.017 76.7267C123.412 76.5951 124.937 76.6515 126.105 76.8206ZM227.325 78.3053C227.155 78.5872 224.934 80.0342 224.821 79.9214C224.67 79.7711 225.216 79.2261 226.082 78.6623C226.91 78.1549 227.551 77.967 227.325 78.3053ZM195.223 81.143C195.43 81.2745 195.317 81.3309 194.808 81.3309C194.413 81.3309 194.093 81.2369 194.093 81.143C194.093 80.8987 194.846 80.8987 195.223 81.143ZM198.141 81.7067C198.216 81.8195 197.915 81.8947 197.388 81.8947C196.861 81.8947 196.56 81.8195 196.635 81.7067C196.691 81.594 197.03 81.5188 197.388 81.5188C197.746 81.5188 198.085 81.594 198.141 81.7067ZM47.3278 83.8867C47.6479 85.3713 47.6667 85.8411 47.4596 85.8411C47.2336 85.8411 46.8382 84.4693 46.7253 83.229C46.5746 81.7631 46.97 82.1766 47.3278 83.8867ZM199.271 83.2665C201.248 83.7364 203.695 84.2626 204.731 84.4317C206.35 84.6948 211.132 85.0331 214.333 85.0894C215.049 85.1082 215.181 85.1458 214.879 85.2774C214.333 85.5029 210.831 85.8223 206.614 86.0291C202.716 86.217 202.114 86.311 202.264 86.7056C202.434 87.1378 201.643 87.4009 200.513 87.2882C199.93 87.2318 198.744 86.8935 197.859 86.5365C195.863 85.7096 194.206 85.3713 193.02 85.5592C192.286 85.6532 191.965 85.8411 191.344 86.4801L190.572 87.2882L190.723 86.4801C190.93 85.4277 191.325 84.4881 191.702 84.1686C191.89 84.037 192.022 83.6424 192.022 83.3229C192.022 82.9846 192.135 82.6088 192.267 82.4772C192.662 82.045 195.411 82.3645 199.271 83.2665ZM217.045 83.3793C217.233 83.4921 217.233 83.5672 217.063 83.68C216.781 83.8679 215.896 83.6236 216.028 83.3981C216.178 83.1726 216.687 83.1538 217.045 83.3793ZM212.168 83.9619C212.45 84.0558 211.49 84.1122 209.815 84.1122C208.139 84.1122 207.216 84.0558 207.555 83.9619C208.308 83.7739 211.566 83.7739 212.168 83.9619ZM188.03 85.5029C187.993 85.8223 187.823 85.9539 187.466 85.9915C186.863 86.0667 186.807 85.9163 187.258 85.4277C187.691 84.9579 188.106 84.9955 188.03 85.5029ZM48.5139 88.4157C48.8152 89.2238 49.1353 90.1823 49.1918 90.5393C49.3047 91.1407 49.3047 91.1783 49.0411 90.84C48.5328 90.201 47.5537 86.9687 47.8738 86.9687C47.9303 86.9687 48.2127 87.6264 48.5139 88.4157ZM190.723 89.6936C191.608 90.4829 193.152 90.9715 194.884 90.9903C195.938 91.0091 196.202 90.934 196.578 90.5769C197.539 89.6936 197.802 90.3326 196.993 91.5165C196.71 91.9112 196.352 92.2307 196.183 92.2307C196.013 92.2307 195.242 92.0615 194.47 91.8548C193.698 91.6481 192.361 91.4226 191.514 91.3474C189.461 91.1971 189.292 91.0655 189.612 89.9192C189.725 89.4305 189.876 89.0359 189.913 89.0359C189.97 89.0359 190.327 89.3366 190.723 89.6936ZM215.463 89.2238C215.538 89.3366 215.312 89.4118 214.917 89.4118C214.54 89.4118 214.239 89.3178 214.239 89.2238C214.239 89.1111 214.484 89.0359 214.785 89.0359C215.105 89.0359 215.406 89.1111 215.463 89.2238ZM193.528 95.8201C197.84 96.8913 202.396 98.1692 205.296 99.1088C210.304 100.744 221.262 106.194 225.235 109.05C226.929 110.253 227.513 110.441 226.948 109.595C225.8 107.829 229.49 111.437 231.297 113.823C232.578 115.534 233.632 117.357 233.632 117.864C233.632 118.108 233.519 118.146 233.143 118.052L232.653 117.92L232.785 119.443C232.898 120.796 232.879 120.965 232.559 121.134C232.295 121.303 232.22 121.566 232.201 122.525C232.201 123.878 231.467 125.569 230.808 125.776C230.582 125.851 230.431 126.058 230.431 126.283C230.431 126.509 230.074 127.148 229.641 127.711C228.812 128.782 225.856 131.507 225.536 131.507C225.423 131.507 224.632 132.071 223.766 132.767C222.166 134.063 219.04 136.055 218.231 136.3C217.835 136.412 217.798 136.375 217.911 136.036C218.118 135.36 217.421 135.567 216.461 136.469C214.201 138.649 203.469 142.858 191.965 146.091C189.198 146.861 188.934 146.917 188.52 146.654C187.71 146.109 186.373 143.967 186.694 143.666C186.75 143.61 186.618 143.197 186.411 142.745C185.884 141.693 185.432 139.682 185.376 138.254C185.338 137.239 185.394 137.089 185.809 136.769C186.072 136.563 186.204 136.394 186.091 136.394C185.997 136.394 184.848 136.281 183.549 136.13C180.104 135.736 176.47 135.604 175.19 135.83C174.568 135.924 174.041 135.98 174.003 135.961C173.985 135.924 174.662 135.416 175.51 134.834C178.428 132.861 178.466 132.316 175.604 133.687C174.248 134.326 173.439 134.608 172.893 134.608C172.177 134.608 172.102 134.646 172.121 135.059C172.158 135.416 172.045 135.548 171.688 135.642C171.236 135.755 171.236 135.755 171.593 135.961C172.158 136.281 171.801 136.469 170.483 136.544C169.334 136.619 168.487 136.394 168.487 136.018C168.487 135.943 168.694 135.604 168.957 135.304C169.503 134.646 169.56 134.214 169.108 133.725C168.675 133.255 168.543 133.293 168.637 133.932C168.694 134.326 168.562 134.627 168.091 135.172C167.037 136.356 166.058 136.431 166.359 135.322C166.416 135.078 166.397 134.89 166.34 134.89C166.265 134.89 165.681 135.398 165.004 136.018C164.345 136.619 163.591 137.183 163.328 137.258C162.744 137.39 162.707 137.54 163.215 137.859C163.422 137.991 163.591 138.179 163.591 138.273C163.591 138.517 161.953 138.517 161.803 138.254C161.539 137.841 168.261 129.591 169.089 129.327C169.372 129.252 169.428 129.102 169.353 128.764C169.259 128.407 169.334 128.2 169.654 127.937C171.255 126.621 171.612 126.245 172.271 125.268C172.685 124.667 172.93 124.178 172.836 124.178C172.742 124.178 172.591 124.253 172.535 124.366C172.478 124.46 172.252 124.648 172.026 124.761C171.556 125.005 171.499 125.137 173.307 122.393C174.06 121.247 175.528 118.804 176.583 116.943C178.918 112.809 184.378 101.909 185.903 98.3759C186.731 96.4402 187.183 95.6321 187.654 95.2187C188.426 94.5234 188.332 94.5234 193.528 95.8201ZM46.8571 97.4362C48.4198 101.458 49.3989 103.487 53.0139 110.328C55.405 114.876 55.9699 115.816 60.9782 123.502C63.1434 126.866 64.9886 129.722 65.045 129.872C65.1015 130.023 65.0639 130.211 64.9509 130.286C64.6873 130.436 64.6873 131.695 64.9321 131.695C65.045 131.695 65.2898 131.601 65.4781 131.47C65.7605 131.301 65.93 131.32 66.3065 131.545C66.8337 131.902 68.1893 133.875 68.1893 134.308C68.1893 134.477 68.9048 135.36 69.7709 136.262C71.3148 137.897 71.5596 138.273 71.0889 138.273C70.3546 138.273 67.7563 135.247 67.7563 134.364L67.7375 133.857L67.2668 134.383L66.7961 134.928L67.3044 135.773C67.6622 136.394 67.7375 136.657 67.568 136.769C67.4174 136.863 67.4927 137.014 67.8316 137.296C68.0952 137.502 68.3211 137.709 68.3211 137.765C68.3211 137.822 67.8881 137.747 67.3797 137.615C66.8525 137.484 65.817 137.277 65.0639 137.145C62.9175 136.807 61.8631 136.412 61.9761 135.999C62.0514 135.736 61.8819 135.604 61.2041 135.379C60.1121 135.003 60.0368 135.003 60.0368 135.435C60.0368 135.849 59.3401 136.112 57.815 136.281C56.3841 136.431 55.9699 136.206 55.4427 134.984C55.1414 134.326 54.859 133.95 54.6519 133.95C54.4072 133.95 54.3695 134.063 54.4825 134.458C54.8402 135.905 54.8967 135.849 52.3172 136.694C49.6248 137.577 49.1729 137.972 48.6646 139.757C48.3257 140.941 48.288 141.618 48.5328 141.994C48.7211 142.294 48.8152 142.163 49.6813 140.622C50.3779 139.363 51.1311 138.461 51.5076 138.461C51.6394 138.461 51.7524 138.592 51.7524 138.724C51.7524 138.874 52.0348 139.212 52.3737 139.476C53.1268 140.039 55.8193 141.336 56.064 141.242C56.177 141.223 55.7439 140.81 55.085 140.34C53.5975 139.269 52.6938 138.461 52.6938 138.254C52.6938 138.16 53.0892 138.085 53.5599 138.085C54.1812 138.085 55.1979 138.386 57.0054 139.1C59.9238 140.246 61.8819 140.885 63.52 141.167C64.4614 141.336 64.6685 141.449 64.7061 141.787C64.8003 142.445 65.5722 142.915 67.0597 143.253C70.3169 143.967 74.3085 145.546 74.4779 146.166C74.6097 146.692 75.8524 146.993 77.434 146.861C78.6766 146.748 78.7143 146.748 78.3942 147.105C78.0176 147.519 77.9988 147.481 79.8063 148.383C80.5406 148.74 80.8607 149.022 80.8983 149.304C80.9736 149.793 81.1619 149.849 83.0824 150.018C84.7016 150.169 85.4736 150.45 87.074 151.409C87.7706 151.841 88.825 152.349 89.3898 152.555C91.3668 153.269 91.3291 153.326 88.9756 153.213C87.7518 153.157 86.5279 153.025 86.2643 152.912C86.0007 152.818 84.4192 152.649 82.7435 152.555C71.8232 151.898 70.0722 151.747 63.8965 150.845C60.7146 150.375 59.5472 150.281 57.9092 150.357C56.0829 150.432 55.8757 150.413 55.9887 150.131C56.1958 149.605 56.177 149.454 55.9134 149.511C55.4239 149.624 53.5034 149.586 52.5808 149.454C50.6415 149.173 48.2315 148.515 40.945 146.279C29.0457 142.595 21.4014 139.739 20.14 138.48C19.9517 138.292 19.4998 138.085 19.1232 138.029C17.5229 137.784 12.797 134.947 10.2552 132.748C8.9184 131.564 8.3159 131.169 8.82426 131.789C9.21965 132.259 8.7866 132.109 8.22176 131.564C7.88285 131.244 7.69457 130.868 7.69457 130.53C7.69457 130.117 7.60043 130.004 7.29918 130.004C6.67785 130.004 5.9059 129.346 5.07746 128.106C4.47496 127.204 4.30551 126.772 4.30551 126.133C4.30551 125.4 4.26785 125.306 3.89129 125.362C3.60887 125.381 3.40176 125.249 3.23231 124.892C2.93106 124.31 2.62981 122.092 2.61098 120.57C2.61098 119.33 2.38504 119.048 2.04614 119.875C1.61309 120.89 1.42481 120.175 1.83903 119.048C2.61098 116.83 5.67996 112.508 7.50629 111.042L8.33473 110.366L7.90168 111.08C7.65692 111.474 7.50629 111.85 7.5816 111.907C7.86403 112.189 10.9142 109.576 11.3472 108.693C11.9121 107.509 14.3974 105.931 15.7907 105.855C17.2216 105.78 19.1797 104.634 19.1797 103.845C19.1797 103.6 19.4998 103.337 20.1776 103.036C21.1943 102.548 22.004 102.435 22.004 102.755C22.004 103.074 22.4747 102.961 24.7717 102.078C27.7465 100.932 35.5602 98.3571 39.9848 97.0604C41.9618 96.4778 43.9952 95.8764 44.5036 95.7261C46.0475 95.2751 45.991 95.2187 46.8571 97.4362ZM58.9071 95.6134C58.9071 95.7073 58.6623 95.8013 58.3422 95.8013C58.041 95.8013 57.7774 95.7073 57.7774 95.6134C57.7774 95.5006 58.041 95.4254 58.3422 95.4254C58.6623 95.4254 58.9071 95.5006 58.9071 95.6134ZM61.7313 96.1771C61.7313 96.2711 61.3924 96.3651 60.9782 96.3651C60.5639 96.3651 60.225 96.2711 60.225 96.1771C60.225 96.0644 60.5639 95.9892 60.9782 95.9892C61.3924 95.9892 61.7313 96.0644 61.7313 96.1771ZM64.1789 96.7409C64.1789 96.8349 63.8777 96.9288 63.52 96.9288C63.1622 96.9288 62.861 96.8349 62.861 96.7409C62.861 96.6282 63.1622 96.553 63.52 96.553C63.8777 96.553 64.1789 96.6282 64.1789 96.7409ZM67.0032 97.3047C67.0032 97.3987 66.6643 97.4926 66.25 97.4926C65.8358 97.4926 65.4969 97.3987 65.4969 97.3047C65.4969 97.1919 65.8358 97.1168 66.25 97.1168C66.6643 97.1168 67.0032 97.1919 67.0032 97.3047ZM71.9738 97.9812C74.4779 98.3759 74.9486 98.6766 72.8399 98.5262C70.9759 98.3947 69.0931 98.094 68.6977 97.8497C68.227 97.5866 69.865 97.643 71.9738 97.9812ZM77.7352 98.996C77.7352 99.09 77.321 99.184 76.7938 99.184C76.2854 99.184 75.8524 99.09 75.8524 98.996C75.8524 98.8833 76.2854 98.8081 76.7938 98.8081C77.321 98.8081 77.7352 98.8833 77.7352 98.996ZM82.3481 99.5598C82.4234 99.6726 82.0092 99.7477 81.2184 99.7477C80.4276 99.7477 80.0134 99.6726 80.0887 99.5598C80.1452 99.4471 80.6536 99.3719 81.2184 99.3719C81.7832 99.3719 82.2916 99.4471 82.3481 99.5598ZM73.3859 132.146C73.5177 132.297 73.593 132.579 73.5554 132.767C73.4989 133.048 73.4047 133.011 72.8587 132.503C72.5198 132.165 72.3127 131.808 72.3692 131.695C72.501 131.47 73.0282 131.714 73.3859 132.146ZM10.5188 135.623C10.5188 136.074 10.8389 136.318 11.592 136.488C11.9309 136.544 12.684 136.939 13.2865 137.352C13.9832 137.841 14.5292 138.066 14.8116 138.029C15.32 137.935 15.3388 138.16 14.8493 138.649C14.3409 139.156 13.9267 139.118 13.7196 138.536C13.5689 138.16 13.4372 138.066 13.1359 138.141C12.8347 138.216 12.684 138.104 12.4769 137.596C12.251 137.051 12.138 136.976 11.7614 137.07C11.0648 137.239 9.20082 136.318 9.20082 135.792C9.20082 135.623 9.87864 135.304 10.2929 135.285C10.4058 135.266 10.5188 135.416 10.5188 135.623ZM74.4779 136.13C74.9486 136.6 75.2687 137.032 75.2122 137.089C75.0051 137.296 73.2164 135.792 73.2164 135.416C73.2164 135.04 73.7248 135.322 74.4779 136.13ZM114.544 135.83C114.619 135.943 113.697 136.018 111.927 136.018C110.214 136.018 109.178 135.943 109.178 135.83C109.178 135.717 110.176 135.642 111.795 135.642C113.358 135.642 114.469 135.717 114.544 135.83ZM125.841 135.83C125.916 135.943 125.144 136.018 123.695 136.018C122.301 136.018 121.416 135.943 121.416 135.83C121.416 135.717 122.264 135.642 123.563 135.642C124.806 135.642 125.766 135.717 125.841 135.83ZM222.298 136.694C222.128 137.615 219.662 138.705 219.398 137.991C219.247 137.596 219.605 137.333 220.302 137.333C221.055 137.333 221.394 137.145 221.394 136.751C221.394 136.488 221.526 136.394 221.883 136.394C222.222 136.394 222.354 136.488 222.298 136.694ZM180.273 138.066C182.438 139.081 183.267 140.133 183.738 142.501C183.982 143.666 184.34 144.456 185.168 145.602C185.545 146.128 185.62 146.429 185.583 147.199C185.545 147.913 185.451 148.158 185.206 148.195C184.98 148.233 184.848 148.101 184.773 147.726C184.698 147.444 184.622 147.105 184.585 146.993C184.547 146.842 184.208 146.917 183.606 147.218C183.116 147.462 181.93 147.82 180.97 148.026C180.028 148.233 178.974 148.534 178.654 148.703C177.75 149.173 178.146 149.436 179.52 149.285C181.685 149.06 182.344 149.567 180.838 150.3C179.614 150.883 178.729 150.977 178.296 150.601C177.957 150.3 177.694 150.281 175.133 150.469C173.608 150.582 170.52 150.751 168.298 150.864C161.407 151.202 156.512 151.653 154.648 152.104C153.933 152.292 152.069 152.424 149.564 152.499C145.705 152.612 145.611 152.593 145.912 152.255C146.081 152.048 146.27 151.747 146.326 151.578C146.496 151.127 147.173 150.714 149.226 149.906C151.203 149.116 151.899 148.646 151.504 148.383C151.372 148.308 151.033 148.233 150.751 148.233C149.583 148.233 150.619 147.632 152.539 147.218C153.161 147.068 153.198 147.331 152.633 147.744C152.219 148.045 152.238 148.045 153.236 147.932C154.78 147.763 156.644 147.368 157.378 147.049C158 146.767 158.018 146.748 157.623 146.636C156.757 146.372 157.039 146.222 162.179 144.286C164.043 143.591 166.378 142.689 167.357 142.276C170.671 140.885 171.838 140.772 171.612 141.843C171.518 142.37 171.537 142.407 171.876 142.219C172.328 141.975 172.347 141.674 171.97 141.167C171.273 140.246 171.819 139.983 176.696 138.931C176.922 138.874 177.468 138.536 177.901 138.179C178.334 137.822 178.786 137.521 178.899 137.521C179.031 137.521 179.633 137.765 180.273 138.066ZM140.772 138.667C140.96 138.686 140.885 138.743 140.621 138.818C140.358 138.893 139.943 138.912 139.68 138.855C139.247 138.78 139.247 138.761 139.586 138.63C139.793 138.555 140.075 138.517 140.207 138.573C140.358 138.611 140.602 138.649 140.772 138.667ZM16.3555 139.025C16.3555 139.25 16.6944 139.607 17.2404 139.983C18.3513 140.753 17.9936 140.923 16.7132 140.227C15.6589 139.645 15.4329 139.344 15.7907 138.931C16.1107 138.536 16.3555 138.573 16.3555 139.025ZM218.551 139.57C219.003 139.87 218.438 140.34 217.647 140.34C216.837 140.34 215.482 139.983 215.632 139.814C215.934 139.513 218.174 139.325 218.551 139.57ZM115.58 139.851C115.73 139.889 114.544 139.908 112.944 139.908C110.854 139.908 110.421 139.87 111.438 139.795C112.774 139.682 114.958 139.72 115.58 139.851ZM65.3086 139.964C65.3086 140.058 65.0639 140.152 64.7626 140.152C64.4425 140.152 64.1413 140.058 64.0848 139.964C64.0095 139.851 64.2354 139.776 64.6308 139.776C65.0074 139.776 65.3086 139.851 65.3086 139.964ZM105.959 140.171C106.279 140.284 106.542 140.453 106.542 140.547C106.542 140.81 104.735 140.753 104.49 140.472C104.076 139.964 104.867 139.795 105.959 140.171ZM20.9307 140.998C21.7404 141.562 21.7968 141.749 21.2132 141.919C19.9893 142.238 19.5563 141.994 19.5563 140.979C19.5563 140.378 20.027 140.396 20.9307 140.998ZM68.7918 141.092C68.8671 141.204 68.6412 141.28 68.2458 141.28C67.8693 141.28 67.568 141.186 67.568 141.092C67.568 140.979 67.8128 140.904 68.114 140.904C68.4341 140.904 68.7354 140.979 68.7918 141.092ZM211.321 141.468C210.982 141.843 210.097 141.994 210.097 141.693C210.097 141.486 210.85 141.129 211.302 141.111C211.641 141.092 211.641 141.111 211.321 141.468ZM76.0407 141.374C76.0407 141.43 75.57 141.768 75.0051 142.144C74.4403 142.52 73.9696 142.877 73.9696 142.915C73.9696 142.971 74.2896 142.952 74.685 142.877C75.7206 142.708 77.5846 143.065 80.6159 143.986C85.0405 145.358 87.8459 145.865 97.6554 147.03C106.015 148.026 106.072 148.045 101.082 147.951C93.1554 147.801 82.9506 146.56 80.8418 145.489C80.164 145.132 79.4297 144.963 78.0176 144.85C75.9842 144.662 74.3085 144.305 73.1223 143.817C72.2374 143.441 71.6725 142.99 71.8232 142.764C72.0303 142.426 73.16 141.956 74.5344 141.637C75.3064 141.449 75.9654 141.298 76.003 141.298C76.0218 141.28 76.0407 141.317 76.0407 141.374ZM71.1454 141.749C71.1454 142.144 70.4864 142.445 69.7709 142.37L69.1684 142.313L69.8274 141.881C70.5805 141.411 71.1454 141.336 71.1454 141.749ZM133.109 141.919C135.575 142.37 136.027 142.971 133.918 142.971C132.6 142.971 127.103 142.407 126.613 142.219C126.218 142.069 126.218 142.069 126.688 141.881C127.366 141.599 131.433 141.618 133.109 141.919ZM24.4516 142.445C24.9411 142.745 25.0353 142.877 24.7905 142.933C24.4893 142.99 22.9454 142.313 22.9454 142.125C22.9454 141.881 23.8679 142.088 24.4516 142.445ZM121.04 142.783C121.04 142.877 120.626 142.971 120.098 142.971C119.59 142.971 119.157 142.877 119.157 142.783C119.157 142.67 119.59 142.595 120.098 142.595C120.626 142.595 121.04 142.67 121.04 142.783ZM156.531 143.911C156.606 144.023 156.305 144.099 155.778 144.099C155.251 144.099 154.949 144.023 155.025 143.911C155.081 143.798 155.42 143.723 155.778 143.723C156.136 143.723 156.474 143.798 156.531 143.911ZM150.506 145.207C150.223 145.696 148.19 146.222 146.364 146.279L144.481 146.354L147.211 145.715C150.148 145.019 150.675 144.944 150.506 145.207ZM35.7673 146.73C36.3886 147.068 36.1815 147.444 35.3343 147.538C34.8824 147.594 34.2987 147.688 34.0163 147.763C33.5644 147.876 33.4891 147.838 33.4891 147.519C33.4891 146.73 34.8824 146.26 35.7673 146.73ZM142.127 146.692C142.127 146.786 141.224 146.993 140.113 147.162C136.987 147.632 136.479 147.688 136.479 147.519C136.479 147.199 138.079 146.861 140.056 146.73C141.148 146.654 142.052 146.579 142.09 146.579C142.109 146.56 142.127 146.617 142.127 146.692ZM191.269 148.064C191.269 148.289 190.196 148.289 190.064 148.064C189.988 147.97 190.045 147.857 190.177 147.82C190.516 147.707 191.269 147.876 191.269 148.064ZM121.586 147.97C121.906 148.045 122.17 148.158 122.17 148.252C122.17 148.59 120.588 148.703 116.333 148.684C110.628 148.684 108.124 148.364 110.929 148.026C112.247 147.876 120.833 147.82 121.586 147.97ZM124.41 148.064C124.109 148.177 123.751 148.177 123.469 148.064C123.092 147.913 123.167 147.876 123.958 147.876C124.768 147.895 124.824 147.913 124.41 148.064ZM149.376 148.402C149.263 148.496 148.209 148.928 147.023 149.361C145.837 149.812 144.556 150.319 144.18 150.507C143.069 151.071 137.816 151.86 138.079 151.447C138.136 151.334 138.324 151.24 138.475 151.24C138.625 151.24 140.15 150.732 141.901 150.093C143.634 149.473 145.686 148.797 146.458 148.609C147.964 148.233 149.677 148.12 149.376 148.402ZM185.846 149.267L187.597 149.906L186.618 149.924C185.451 149.924 184.754 149.68 184.076 149.022C183.53 148.534 183.323 148.007 183.813 148.402C183.963 148.534 184.886 148.928 185.846 149.267ZM188.821 148.515C189.461 148.853 190.139 149.736 190.139 150.281C190.139 150.77 189.179 151.052 187.522 151.052C186.261 151.052 186.166 150.92 187.183 150.582C187.729 150.413 187.786 150.319 187.842 149.548C187.899 148.628 187.993 148.233 188.162 148.233C188.219 148.233 188.52 148.364 188.821 148.515ZM40.0789 149.041C40.0789 149.868 39.9095 149.999 39.4388 149.567C39.2129 149.361 38.7422 149.173 38.3844 149.135L37.7254 149.079L38.3844 148.759C38.7422 148.571 39.2693 148.421 39.5706 148.421C40.0225 148.421 40.0789 148.496 40.0789 149.041ZM89.5969 149.68C91.4044 150.244 93.6073 150.864 94.4922 151.033C95.8479 151.296 96.0926 151.409 96.0926 151.728C96.0926 152.367 94.3981 152.161 91.3856 151.146C87.5447 149.849 84.8899 148.797 84.8899 148.59C84.8899 148.308 85.9819 148.552 89.5969 149.68ZM45.3132 150.244C45.2755 150.751 45.1625 150.977 44.9366 151.014C44.5412 151.089 44.4847 150.507 44.786 149.906C45.1061 149.323 45.3697 149.492 45.3132 150.244ZM49.5683 150.488C50.152 150.732 50.3968 150.939 50.3214 151.108C50.1897 151.484 49.38 151.879 49.0411 151.747C48.7587 151.634 47.9868 150.544 47.9868 150.244C47.9868 149.999 48.6834 150.112 49.5683 150.488ZM135.914 150.394C135.387 151.014 133.598 151.841 132.092 152.142C130.774 152.405 128.891 152.443 119.157 152.443C105.243 152.443 100.404 152.142 99.2369 151.221C98.8604 150.92 98.5968 150.883 97.8436 150.977C96.8646 151.108 96.5633 150.808 97.4671 150.582C97.7495 150.507 103.323 150.45 109.837 150.45C116.371 150.45 123.149 150.394 124.9 150.319C126.669 150.244 129.908 150.169 132.13 150.15C135.669 150.112 136.121 150.15 135.914 150.394ZM52.5997 150.864C52.675 150.977 52.449 151.052 52.0536 151.052C51.6771 151.052 51.3758 150.958 51.3758 150.864C51.3758 150.751 51.6206 150.676 51.9218 150.676C52.2419 150.676 52.5432 150.751 52.5997 150.864ZM59.5661 150.864C59.6414 150.977 59.4154 151.052 59.02 151.052C58.6435 151.052 58.3422 150.958 58.3422 150.864C58.3422 150.751 58.587 150.676 58.8882 150.676C59.2083 150.676 59.5096 150.751 59.5661 150.864ZM183.323 151.259C183.097 151.935 183.342 152.217 184.058 152.085C185.564 151.766 185.564 151.766 185.15 152.085C184.51 152.593 183.417 152.837 182.89 152.593C182.156 152.255 182.118 151.86 182.721 151.221C183.399 150.526 183.587 150.526 183.323 151.259ZM61.8254 151.428C61.9007 151.54 61.6748 151.616 61.2794 151.616C60.9029 151.616 60.6016 151.522 60.6016 151.428C60.6016 151.315 60.8464 151.24 61.1476 151.24C61.4677 151.24 61.7689 151.315 61.8254 151.428ZM53.7105 151.973C53.9176 152.273 52.5243 152.762 51.6206 152.706C49.8507 152.593 50.7733 151.86 52.7314 151.822C53.221 151.804 53.654 151.879 53.7105 151.973ZM144.161 152.781C144.236 153.175 143.069 153.589 142.353 153.401L141.845 153.269L142.598 152.818C143.427 152.311 144.067 152.292 144.161 152.781ZM100.065 152.837C101.722 153.138 101.986 153.213 101.798 153.401C101.628 153.57 98.465 153.119 97.806 152.837L97.2223 152.593L97.806 152.574C98.1261 152.555 99.1428 152.687 100.065 152.837ZM135.349 152.724C135.349 152.969 134.784 153.081 132.28 153.326C130.285 153.514 129.644 153.495 129.908 153.213C130.04 153.1 133.711 152.593 134.653 152.574C135.029 152.555 135.349 152.63 135.349 152.724ZM181.29 153.119C181.497 153.251 181.384 153.307 180.857 153.307C180.424 153.307 180.179 153.232 180.254 153.119C180.405 152.875 180.913 152.875 181.29 153.119ZM94.6805 153.683C94.8876 153.814 94.7747 153.871 94.2663 153.871C93.8709 153.871 93.5508 153.777 93.5508 153.683C93.5508 153.439 94.3039 153.439 94.6805 153.683ZM111.155 153.683C111.23 153.796 110.835 153.871 110.12 153.871C109.404 153.871 109.009 153.796 109.084 153.683C109.141 153.57 109.611 153.495 110.12 153.495C110.628 153.495 111.099 153.57 111.155 153.683ZM123.205 153.683C122.471 153.871 117.35 153.871 116.615 153.683C116.295 153.608 117.764 153.532 119.91 153.532C122.057 153.532 123.525 153.608 123.205 153.683ZM99.1993 154.247C99.4064 154.378 99.2181 154.435 98.5403 154.435C97.8625 154.435 97.6742 154.378 97.8813 154.247C98.0319 154.153 98.3332 154.059 98.5403 154.059C98.7474 154.059 99.0486 154.153 99.1993 154.247ZM135.255 154.247C135.538 154.359 135.368 154.416 134.634 154.416C134.012 154.435 133.674 154.359 133.749 154.247C133.881 154.021 134.728 154.021 135.255 154.247Z" fill="white" fill-opacity="0.25"/>
<path d="M37.9137 27.1703C38.3844 27.6401 41.7923 29.463 42.2065 29.463C42.6207 29.463 42.6207 29.2187 42.2065 28.8429C41.7734 28.467 38.8363 27.0763 38.102 26.9072L37.5371 26.7944L37.9137 27.1703Z" fill="white" fill-opacity="0.25"/>
<path d="M40.4931 30.4214C40.5308 30.5154 40.832 30.7785 41.1709 30.9852C41.6793 31.3235 41.7734 31.3235 41.7734 31.098C41.7734 30.7597 41.0768 30.2147 40.6814 30.2147C40.5308 30.2147 40.4555 30.3087 40.4931 30.4214Z" fill="white" fill-opacity="0.25"/>
<path d="M191.834 31.3799C191.834 32.094 192.38 33.3907 192.832 33.7666C193.076 33.9545 193.114 34.2176 193.02 35.1196C192.907 36.3412 193.283 37.7506 193.547 37.0553C193.811 36.3976 193.735 33.5035 193.415 32.4887C192.944 30.8913 191.834 30.1208 191.834 31.3799Z" fill="white" fill-opacity="0.25"/>
<path d="M48.3445 32.8645C48.6269 32.9773 48.9846 32.9773 49.2859 32.8645C49.7001 32.7142 49.6436 32.6954 48.834 32.6766C48.0432 32.6766 47.9679 32.7142 48.3445 32.8645Z" fill="white" fill-opacity="0.25"/>
<path d="M191.645 37.901C191.645 38.5963 192.003 39.3668 192.568 39.8742C193.208 40.4568 193.265 40.0621 192.681 38.8406C191.984 37.3936 191.645 37.0929 191.645 37.901Z" fill="white" fill-opacity="0.25"/>
<path d="M141.525 41.4904C141.883 41.5655 142.391 41.5655 142.655 41.4904C143.05 41.3776 142.899 41.34 142.033 41.34C141.073 41.34 140.998 41.3588 141.525 41.4904Z" fill="white" fill-opacity="0.25"/>
<path d="M121.228 43.2005C114.356 43.4636 109.272 43.7643 106.467 44.0462C104.358 44.2529 101.741 44.3093 96.0173 44.2717C88.9191 44.2153 88.1472 44.2529 85.2665 44.6475C79.7498 45.3992 71.5972 46.7147 72.275 46.7335C73.2729 46.7523 79.1661 46.2261 82.4046 45.8127C85.8878 45.3617 89.1074 45.3429 98.352 45.7187C107.182 46.0758 109.385 46.0758 122.829 45.8315C140.979 45.4932 145.196 45.2865 144.387 44.7791C143.86 44.4408 136.008 44.4408 128.27 44.7791C122.847 45.0234 120.004 45.0798 119.251 44.9482C118.122 44.7791 117.745 44.4596 118.347 44.2153C118.536 44.1401 121.737 44.0086 125.465 43.9146C132.619 43.7455 136.63 43.4824 136.931 43.1817C137.157 42.9562 126.82 42.975 121.228 43.2005Z" fill="white" fill-opacity="0.25"/>
<path d="M145.855 43.2006C146.232 43.3133 146.684 43.3133 147.079 43.2006C147.606 43.0502 147.531 43.0315 146.458 43.0315C145.385 43.0315 145.309 43.0502 145.855 43.2006Z" fill="white" fill-opacity="0.25"/>
<path d="M209.344 43.2193C209.344 43.5575 210.662 43.9334 211.735 43.9146C212.808 43.8958 212.808 43.8958 212.262 43.6515C211.509 43.332 209.344 43.0126 209.344 43.2193Z" fill="white" fill-opacity="0.25"/>
<path d="M157.096 44.8731C157.02 44.9859 157.246 45.061 157.661 45.061C158.075 45.061 158.301 44.9859 158.225 44.8731C158.169 44.7604 157.905 44.6852 157.661 44.6852C157.416 44.6852 157.152 44.7604 157.096 44.8731Z" fill="white" fill-opacity="0.25"/>
<path d="M159.355 45.4368C159.28 45.5496 159.562 45.6248 160.052 45.6248C160.635 45.6248 160.786 45.5684 160.579 45.4368C160.202 45.1925 159.506 45.1925 159.355 45.4368Z" fill="white" fill-opacity="0.25"/>
<path d="M161.991 46.0007C161.916 46.1134 162.217 46.1886 162.744 46.1886C163.271 46.1886 163.573 46.1134 163.497 46.0007C163.441 45.8879 163.102 45.8127 162.744 45.8127C162.386 45.8127 162.048 45.8879 161.991 46.0007Z" fill="white" fill-opacity="0.25"/>
<path d="M64.932 47.1282C64.7249 47.2598 64.9885 47.3162 65.7793 47.3162C66.5701 47.3162 66.8337 47.2598 66.6265 47.1282C66.4759 47.0343 66.0994 46.9403 65.7793 46.9403C65.478 46.9403 65.0826 47.0343 64.932 47.1282Z" fill="white" fill-opacity="0.25"/>
<path d="M82.4422 47.335C81.1431 47.4289 79.5803 47.5793 78.959 47.6544C77.8858 47.786 77.9799 47.8236 80.71 48.0491C83.4213 48.2746 87.2622 48.2182 89.4086 47.9363L90.2559 47.8236L89.6346 47.5605C88.8061 47.2222 85.417 47.1094 82.4422 47.335Z" fill="white" fill-opacity="0.25"/>
<path d="M159.958 47.2598C159.694 47.5229 159.845 47.7296 160.541 48.0115C161.069 48.237 162.085 48.331 164.909 48.3685L168.581 48.4249L165.474 47.9927C163.761 47.7484 161.859 47.4477 161.257 47.3349C159.92 47.0906 160.108 47.1094 159.958 47.2598Z" fill="white" fill-opacity="0.25"/>
<path d="M95.9231 47.6732C95.7725 47.9175 96.3562 48.1054 96.8081 47.955C97.1093 47.8611 97.1281 47.8047 96.921 47.6732C96.5821 47.4664 96.0549 47.4664 95.9231 47.6732Z" fill="white" fill-opacity="0.25"/>
<path d="M57.7962 48.2369C57.5703 48.3873 57.6268 48.4437 58.0221 48.5376C58.3046 48.6128 58.6811 48.6128 58.8506 48.5376C59.1707 48.4061 59.1518 48.3873 58.8129 48.2557C58.3046 48.049 58.1163 48.049 57.7962 48.2369Z" fill="white" fill-opacity="0.25"/>
<path d="M71.6161 48.2558C71.3525 48.3685 71.6537 48.4249 72.5575 48.4249C73.4612 48.4249 73.7625 48.3685 73.4989 48.2558C73.2918 48.1618 72.8776 48.0867 72.5575 48.0867C72.2562 48.0867 71.8232 48.1618 71.6161 48.2558Z" fill="white" fill-opacity="0.25"/>
<path d="M69.3566 48.6317C69.0554 48.9699 69.0554 49.0075 69.3378 49.1203C69.7897 49.2894 70.2039 49.0639 70.2039 48.6317C70.2039 48.143 69.7897 48.143 69.3566 48.6317Z" fill="white" fill-opacity="0.25"/>
<path d="M176.79 51.8828C176.771 52.954 177.261 54.0063 178.089 54.7205C178.729 55.2467 178.823 55.2655 179.294 55.0963C179.765 54.9084 179.652 54.5138 178.993 54.1191C178.014 53.5177 177.336 52.6909 177.054 51.8076L176.79 50.9807V51.8828Z" fill="white" fill-opacity="0.25"/>
<path d="M44.1647 57.6333C43.9011 58.2723 43.8822 58.5729 44.0329 59.1555C44.1458 59.569 44.2965 59.926 44.3906 59.9824C44.5977 60.1139 44.8048 57.7461 44.6165 57.2387C44.4847 56.8816 44.4471 56.9192 44.1647 57.6333Z" fill="white" fill-opacity="0.25"/>
<path d="M185.244 57.577C185.244 57.9716 185.319 58.1972 185.432 58.122C185.545 58.0656 185.62 57.7649 185.62 57.4455C185.62 57.1448 185.545 56.9005 185.432 56.9005C185.338 56.9005 185.244 57.2011 185.244 57.577Z" fill="white" fill-opacity="0.25"/>
<path d="M61.3547 58.8924C61.0346 59.5313 60.9782 59.7944 61.1476 59.9636C61.5618 60.377 62.0137 59.8508 62.0702 58.8924C62.1079 58.4226 62.0514 58.0279 61.9384 58.0279C61.8443 58.0279 61.5807 58.4226 61.3547 58.8924Z" fill="white" fill-opacity="0.25"/>
<path d="M120.287 58.9676C116.992 59.0616 115.58 59.2683 116.088 59.5878C116.483 59.8321 121.567 60.0952 129.23 60.2831C133.692 60.3959 139.058 60.6026 141.186 60.7529C146.853 61.1664 151.673 61.3167 151.447 61.0724C150.977 60.6026 138.136 59.2119 132.619 59.0616C126.707 58.8737 123.902 58.8549 120.287 58.9676Z" fill="white" fill-opacity="0.25"/>
<path d="M108.915 59.1179C108.613 59.1931 108.331 59.3435 108.293 59.475C108.18 59.7945 109.366 59.9636 110.91 59.8697C112.228 59.7757 112.812 59.5126 112.36 59.2495C112.04 59.0428 109.592 58.9676 108.915 59.1179Z" fill="white" fill-opacity="0.25"/>
<path d="M238.678 69.5854C238.509 69.8673 237.963 72.5923 237.963 73.1937C237.981 73.7011 237.981 73.7011 238.264 73.344C238.414 73.1373 238.622 72.6487 238.734 72.254C238.942 71.5023 238.904 69.266 238.678 69.5854Z" fill="white" fill-opacity="0.25"/>
<path d="M59.4719 69.7546C59.4719 70.0177 60.1309 70.4312 60.564 70.4312L61.0723 70.4124L60.6204 70.0553C60.2439 69.717 59.4719 69.5291 59.4719 69.7546Z" fill="white" fill-opacity="0.25"/>
<path d="M165.7 70.6755C165.474 70.9198 165.286 71.2205 165.286 71.3332C165.286 71.7091 166.001 71.5775 166.303 71.1453C166.924 70.2621 166.435 69.8862 165.7 70.6755Z" fill="white" fill-opacity="0.25"/>
<path d="M230.902 72.6675C230.846 72.8742 230.864 73.1937 230.977 73.3816C231.128 73.6823 231.166 73.6447 231.279 73.1937C231.448 72.5547 231.09 72.0661 230.902 72.6675Z" fill="white" fill-opacity="0.25"/>
<path d="M229.923 85.9916C229.019 86.7057 228.661 87.0816 228.85 87.1191C229.207 87.1943 230.281 86.3674 230.958 85.503C231.203 85.1835 231.392 84.9016 231.354 84.9204C231.316 84.9204 230.657 85.409 229.923 85.9916Z" fill="white" fill-opacity="0.25"/>
<path d="M209.909 92.6065C209.701 92.7381 209.965 92.7944 210.756 92.7757C211.565 92.7757 211.773 92.7193 211.509 92.6065C211.001 92.381 210.247 92.381 209.909 92.6065Z" fill="white" fill-opacity="0.25"/>
<path d="M164.571 79.1322C164.269 79.4893 164.476 79.6396 165.23 79.6396C165.738 79.6396 165.87 79.5645 165.813 79.3014C165.738 78.9067 164.872 78.7752 164.571 79.1322Z" fill="white" fill-opacity="0.25"/>
<path d="M72.3691 80.0154C72.2938 80.1282 72.5951 80.2034 73.1034 80.2034C73.5741 80.2034 73.9695 80.1094 73.9695 80.0154C73.9695 79.9027 73.6306 79.8275 73.2352 79.8275C72.821 79.8275 72.4256 79.9027 72.3691 80.0154Z" fill="white" fill-opacity="0.25"/>
<path d="M98.9169 80.5793C98.8416 80.692 99.1428 80.7672 99.6512 80.7672C100.122 80.7672 100.517 80.6732 100.517 80.5793C100.517 80.4665 100.178 80.3914 99.783 80.3914C99.3687 80.3914 98.9734 80.4665 98.9169 80.5793Z" fill="white" fill-opacity="0.25"/>
<path d="M72.1621 81.237C72.0114 81.6316 72.1997 81.8384 72.8399 81.9511C74.0825 82.2142 75.0616 81.6316 74.1767 81.143C73.6118 80.8611 72.275 80.8987 72.1621 81.237Z" fill="white" fill-opacity="0.25"/>
<path d="M161.144 96.1772C161.144 96.2711 161.445 96.3651 161.822 96.3651C162.217 96.3651 162.443 96.2899 162.368 96.1772C162.311 96.0644 162.01 95.9893 161.69 95.9893C161.389 95.9893 161.144 96.0644 161.144 96.1772Z" fill="white" fill-opacity="0.25"/>
<path d="M167.451 96.1772C167.508 96.2711 167.809 96.3651 168.129 96.3651C168.43 96.3651 168.675 96.2711 168.675 96.1772C168.675 96.0644 168.374 95.9893 167.997 95.9893C167.602 95.9893 167.376 96.0644 167.451 96.1772Z" fill="white" fill-opacity="0.25"/>
<path d="M157.943 96.741C157.943 96.835 158.376 96.929 158.884 96.929C159.412 96.929 159.826 96.835 159.826 96.741C159.826 96.6283 159.412 96.5531 158.884 96.5531C158.376 96.5531 157.943 96.6283 157.943 96.741Z" fill="white" fill-opacity="0.25"/>
<path d="M154.366 97.3047C154.366 97.3987 154.705 97.4927 155.119 97.4927C155.533 97.4927 155.872 97.3987 155.872 97.3047C155.872 97.192 155.533 97.1168 155.119 97.1168C154.705 97.1168 154.366 97.192 154.366 97.3047Z" fill="white" fill-opacity="0.25"/>
<path d="M159.675 97.5867C158.903 97.7182 158.225 97.9062 158.169 97.9813C157.924 98.2256 161.445 97.9062 162.104 97.6243L162.744 97.3424H161.897C161.426 97.3424 160.428 97.4551 159.675 97.5867Z" fill="white" fill-opacity="0.25"/>
<path d="M149.282 97.8685C149.282 97.9624 149.715 98.0564 150.224 98.0564C150.751 98.0564 151.165 97.9624 151.165 97.8685C151.165 97.7557 150.751 97.6805 150.224 97.6805C149.715 97.6805 149.282 97.7557 149.282 97.8685Z" fill="white" fill-opacity="0.25"/>
<path d="M95.4336 100.124C95.4336 100.236 96.375 100.312 97.9001 100.312C99.4816 100.312 100.31 100.236 100.235 100.124C100.159 100.011 99.1427 99.9357 97.7683 99.9357C96.3373 99.9357 95.4336 100.011 95.4336 100.124Z" fill="white" fill-opacity="0.25"/>
<path d="M124.9 100.124C124.824 100.236 125.201 100.312 125.879 100.312C126.651 100.312 126.895 100.255 126.688 100.124C126.312 99.8793 125.05 99.8793 124.9 100.124Z" fill="white" fill-opacity="0.25"/>
<path d="M93.5508 101.251C93.3625 101.383 93.7014 101.439 94.6805 101.42C95.6407 101.42 95.9796 101.364 95.716 101.251C95.2077 101.026 93.8897 101.026 93.5508 101.251Z" fill="white" fill-opacity="0.25"/>
<path d="M55.8945 101.928C55.8945 102.322 55.9698 102.548 56.0828 102.473C56.1958 102.416 56.2711 102.116 56.2711 101.796C56.2711 101.495 56.1958 101.251 56.0828 101.251C55.9887 101.251 55.8945 101.552 55.8945 101.928Z" fill="white" fill-opacity="0.25"/>
<path d="M171.48 107.678C171.16 108.806 171.141 111.249 171.462 111.343C171.838 111.474 172.309 110.103 172.309 108.843C172.29 106.851 171.876 106.269 171.48 107.678Z" fill="white" fill-opacity="0.25"/>
<path d="M59.4719 111.662C59.4719 111.7 59.6414 112.151 59.8673 112.658C60.0744 113.147 60.338 113.974 60.4322 114.5C60.7334 116.098 61.9949 118.183 62.4844 117.883C62.861 117.657 62.6539 117.037 61.9384 116.21C61.3924 115.571 61.1476 115.12 61.0535 114.463C60.9029 113.41 60.5263 112.395 60.0933 111.926C59.8108 111.625 59.4719 111.474 59.4719 111.662Z" fill="white" fill-opacity="0.25"/>
<path d="M124.052 132.973C124.052 133.218 126.067 133.255 126.218 133.011C126.293 132.898 125.935 132.823 125.201 132.823C124.561 132.823 124.052 132.898 124.052 132.973Z" fill="white" fill-opacity="0.25"/>
<path d="M96.921 139.419C97.2034 139.532 97.5612 139.532 97.8624 139.419C98.2766 139.269 98.2201 139.25 97.4105 139.231C96.6198 139.231 96.5444 139.269 96.921 139.419Z" fill="white" fill-opacity="0.25"/>
<path d="M143.031 140.678C141.826 141.017 141.544 141.524 142.391 141.844C143.106 142.107 143.182 142.426 142.617 142.915C142.109 143.347 142.109 143.347 142.542 143.347C143.332 143.328 147.23 142.84 147.324 142.727C147.38 142.67 146.59 142.576 145.592 142.501L143.747 142.351L144.33 141.844C144.989 141.242 145.366 140.641 145.196 140.453C145.008 140.284 144.217 140.359 143.031 140.678Z" fill="white" fill-opacity="0.25"/>
<path d="M195.129 84.1499C194.921 84.4694 195.411 84.9016 195.995 84.9016C196.785 84.9016 196.842 84.5445 196.089 84.2439C195.298 83.9056 195.279 83.9056 195.129 84.1499Z" fill="white" fill-opacity="0.25"/>
<path d="M180.876 126.734C180.386 126.884 179.953 127.072 179.897 127.166C179.727 127.411 181.12 127.561 181.911 127.373C182.777 127.185 182.871 127.11 182.74 126.715C182.589 126.377 182.043 126.377 180.876 126.734Z" fill="white" fill-opacity="0.25"/>
<path d="M179.972 131.883C179.52 132.334 179.482 132.635 179.897 132.635C180.405 132.635 180.913 132.259 180.913 131.883C180.913 131.395 180.462 131.395 179.972 131.883Z" fill="white" fill-opacity="0.25"/>
<path d="M167.376 132.353C166.811 133.011 166.604 133.763 166.981 133.763C167.169 133.763 168.298 132.128 168.298 131.846C168.298 131.526 167.941 131.733 167.376 132.353Z" fill="white" fill-opacity="0.25"/>
<path d="M180.725 133.575C180.725 133.669 181.026 133.763 181.403 133.763C181.798 133.763 182.024 133.687 181.949 133.575C181.892 133.462 181.591 133.387 181.271 133.387C180.97 133.387 180.725 133.462 180.725 133.575Z" fill="white" fill-opacity="0.25"/>
<path d="M51.47 131.132C51.3005 131.395 51.7147 132.071 52.0348 132.071C52.3737 132.071 52.4114 131.489 52.0913 131.169C51.8089 130.887 51.6206 130.887 51.47 131.132Z" fill="white" fill-opacity="0.25"/>
<path d="M153.142 148.985C152.972 149.248 153.387 149.924 153.707 149.924C154.046 149.924 154.083 149.342 153.763 149.022C153.481 148.74 153.292 148.74 153.142 148.985Z" fill="white" fill-opacity="0.25"/>
<path d="M71.6161 154.81C71.4843 155.036 72.3692 155.28 72.6516 155.092C72.8211 154.98 72.8211 154.904 72.6328 154.792C72.2751 154.566 71.7667 154.585 71.6161 154.81Z" fill="white" fill-opacity="0.25"/>
<path d="M75.3816 155.562C75.0804 155.637 74.0072 155.712 73.0093 155.731C70.8629 155.75 70.0156 155.9 70.0156 156.239C70.0156 156.69 70.4675 156.765 72.5386 156.727C74.1013 156.69 74.6662 156.746 74.8921 156.953C75.4005 157.385 76.5678 157.611 78.959 157.723C80.2016 157.78 81.5949 157.874 82.0656 157.911C82.5552 157.968 82.8188 157.949 82.7246 157.836C82.4987 157.629 79.5803 157.122 77.8293 156.972C75.6452 156.784 74.9674 156.333 75.9088 155.694C76.3607 155.374 76.2477 155.337 75.3816 155.562Z" fill="white" fill-opacity="0.25"/>
<path d="M156.625 155.769C155.778 155.882 154.949 156.126 154.554 156.37C153.933 156.765 153.669 156.784 149.753 156.802C147.305 156.802 145.309 156.896 144.857 157.009C141.732 157.892 116.935 158.475 102.682 158.024C94.6052 157.761 89.6157 157.498 87.7894 157.235C86.4902 157.047 86.3773 157.066 84.871 157.648L83.2895 158.268L84.0426 158.419C85.9066 158.832 85.8877 158.926 83.9484 158.832C82.0468 158.738 79.3355 158.513 76.8502 158.268C76.0971 158.193 75.6641 158.212 75.6641 158.325C75.6641 158.569 76.3419 158.851 77.8293 159.208C79.2979 159.565 87.4693 160.824 88.373 160.824H89.0697L88.9379 160.072C88.7873 159.227 88.7684 159.245 90.1805 159.509C90.7266 159.621 93.7391 159.866 96.8457 160.072C99.9523 160.26 102.795 160.505 103.153 160.58C103.774 160.693 103.793 160.711 103.341 160.843C103.078 160.918 102.4 160.993 101.835 161.012C100.856 161.05 100.837 161.068 101.459 161.2C104.528 161.933 127.667 162.121 129.494 161.425C130.266 161.144 127.743 161.031 117.877 160.899C112.887 160.824 108.82 160.749 108.839 160.711C108.877 160.693 111.532 160.58 114.732 160.467C122.96 160.166 132.506 159.734 138.456 159.415C141.261 159.264 145.196 159.058 147.211 158.945C154.422 158.55 154.102 158.607 154.479 157.93C154.761 157.404 155.326 157.291 158.866 157.066C163.742 156.746 166.773 156.502 167.075 156.389C167.489 156.22 167.414 155.994 166.943 155.844C166.265 155.618 158.188 155.581 156.625 155.769Z" fill="white" fill-opacity="0.25"/>
<path d="M84.1367 156.483L83.666 156.615L84.212 156.727C84.5321 156.784 84.9463 156.765 85.1534 156.69C85.3794 156.596 85.4547 156.521 85.3229 156.521C85.2099 156.502 85.0028 156.464 84.8522 156.427C84.7204 156.389 84.4003 156.408 84.1367 156.483Z" fill="white" fill-opacity="0.25"/>
<path d="M128.741 157.272C129.023 157.385 129.381 157.385 129.682 157.272C130.096 157.122 130.04 157.103 129.23 157.084C128.439 157.084 128.364 157.122 128.741 157.272Z" fill="white" fill-opacity="0.25"/>
<path d="M68.1328 159.452C68.1328 159.565 68.6412 159.697 69.2437 159.772C69.9215 159.847 70.5428 160.054 70.8441 160.279C71.3713 160.693 72.7457 161.031 75.5699 161.482C76.7749 161.67 77.641 161.914 77.9611 162.14C78.5259 162.553 78.6766 162.591 78.6766 162.346C78.6766 161.895 77.6222 160.993 76.6996 160.655C74.7791 159.941 68.1328 159.02 68.1328 159.452Z" fill="white" fill-opacity="0.25"/>
<path d="M133.09 161.2C133.09 161.294 133.523 161.388 134.05 161.388C134.634 161.388 134.954 161.313 134.879 161.2C134.822 161.087 134.389 161.012 133.918 161.012C133.466 161.012 133.09 161.087 133.09 161.2Z" fill="white" fill-opacity="0.25"/>
<path d="M139.491 161.294C139.36 161.444 139.322 161.707 139.378 161.877C139.586 162.403 140.998 161.877 140.998 161.275C140.998 160.918 139.793 160.937 139.491 161.294Z" fill="white" fill-opacity="0.25"/>
<path d="M90.0488 161.858C89.9923 162.008 89.9923 162.196 90.0488 162.309C90.2371 162.591 91.8187 162.779 92.2894 162.572C92.6848 162.403 92.6659 162.365 91.9128 161.97C90.9902 161.519 90.1995 161.463 90.0488 161.858Z" fill="white" fill-opacity="0.25"/>
<path d="M95.716 162.328C95.6407 162.44 96.0361 162.516 96.7328 162.516C97.3729 162.516 97.8813 162.44 97.8813 162.328C97.8813 162.215 97.4294 162.14 96.8646 162.14C96.2997 162.14 95.7725 162.215 95.716 162.328Z" fill="white" fill-opacity="0.25"/>
<path d="M104.565 164.019C104.32 164.132 104.697 164.169 105.695 164.169C106.768 164.169 107.032 164.113 106.636 164.019C105.864 163.831 105.017 163.831 104.565 164.019Z" fill="white" fill-opacity="0.25"/>
<path d="M129.362 164.019C128.703 164.169 128.439 164.338 128.609 164.489C128.985 164.865 133.128 165.09 134.483 164.789C135.387 164.601 135.274 164.263 134.22 164.038C133.146 163.812 130.303 163.793 129.362 164.019Z" fill="white" fill-opacity="0.25"/>
</svg>
