<svg width="453" height="460" viewBox="0 0 453 460" fill="none" xmlns="http://www.w3.org/2000/svg">
<path d="M243.598 0.301392C237.579 1.28409 234.038 4.02753 228.904 11.7255C226.497 15.3697 225.364 17.458 224.479 20.0376C222.177 26.7529 218.92 37.8084 218.672 39.692C218.389 41.8212 218.07 42.2716 216.512 42.722C213.998 43.4181 208.227 45.7111 206.527 46.7348C205.501 47.308 203.837 48.2908 202.81 48.864C201.818 49.4373 200.367 50.5019 199.588 51.198C198.242 52.4673 198.101 52.5083 194.56 52.5083H190.948L189.284 54.1461C186.275 57.0943 184.823 58.855 184.115 60.4928C183.442 62.0079 183.265 62.1307 181.92 62.1307C181.141 62.1307 179.972 62.4583 179.37 62.9087C178.769 63.3181 177.883 63.8095 177.388 63.9733C176.078 64.4237 172.679 67.2081 171.581 68.7231C170.342 70.4429 169.704 72.2445 169.421 74.9879C169.138 77.4857 168.961 77.7723 167.014 78.5093C166.235 78.796 164.925 79.8196 164.039 80.7614C162.517 82.4811 162.481 82.563 162.694 84.4056C162.942 86.1254 162.871 86.2892 162.092 86.6577C159.968 87.5995 158.091 91.5303 158.41 94.4376C158.516 95.4612 158.587 97.181 158.587 98.2046C158.587 99.2283 158.764 100.58 158.976 101.235C159.259 102.135 159.224 102.832 158.764 104.347C158.162 106.271 158.162 106.353 158.799 107.172C159.33 107.827 159.755 107.991 160.534 107.827C161.313 107.622 161.773 107.786 162.375 108.441C163.26 109.424 163.508 109.383 167.545 108.032L169.952 107.213L171.793 108.851C173.67 110.448 175.334 111.185 179.264 112.086L181.282 112.536V115.361C181.282 117.941 181.176 118.268 180.043 119.865C179.37 120.807 178.804 121.749 178.804 121.995C178.804 122.199 178.025 123.346 177.069 124.492C174.378 127.85 172.254 131.412 171.369 134.197L170.554 136.735L171.262 139.028C171.9 141.076 172.112 141.403 173.245 141.772C174.945 142.304 175.051 142.55 174.378 143.778C173.705 144.966 173.635 148.856 174.201 152.827C174.378 154.179 174.555 155.325 174.555 155.366C174.555 155.407 175.015 156.062 175.617 156.84C176.573 158.109 176.609 158.273 176.113 159.092C175.83 159.584 175.37 159.993 175.122 159.993C174.874 159.993 174.378 160.321 174.059 160.771C173.741 161.18 172.749 161.754 171.9 162.04C171.05 162.327 170.094 162.859 169.775 163.269C169.492 163.637 168.324 164.292 167.191 164.702C161.065 166.913 158.764 168.264 151.718 173.505C150.16 174.652 148.071 176.167 147.08 176.904C146.053 177.641 144.141 179.074 142.831 180.098C141.485 181.162 138.724 183.046 136.705 184.315C134.687 185.626 132.067 187.427 130.899 188.328C129.73 189.27 126.862 190.99 124.49 192.218C122.153 193.405 119.852 194.675 119.356 195.043C118.86 195.453 117.975 195.862 117.409 196.067C116.807 196.231 115.355 196.804 114.187 197.377C113.018 197.91 110.398 199.056 108.345 199.875C106.291 200.735 103.423 202.004 101.971 202.659C98.0766 204.502 97.2269 204.83 92.9427 206.222C89.1187 207.45 80.5149 210.767 79.134 211.545C77.8594 212.241 72.4776 213.265 68.8661 213.469C66.9187 213.592 63.6613 213.92 61.6077 214.247C51.8354 215.803 49.534 216.09 47.5512 216.09C45.2852 216.09 42.7005 217.073 41.8507 218.26C41.4613 218.792 41.5321 219.12 42.2048 220.348C42.6651 221.167 43.3732 221.945 43.8335 222.068C44.5771 222.314 48.224 221.822 52.2249 220.922C56.2259 220.062 57.6422 219.816 59.4125 219.816C60.4039 219.775 61.2536 219.939 61.2536 220.144C61.2536 220.758 58.6335 222.6 55.4115 224.197C52.2957 225.753 44.5063 230.012 41.4967 231.772C40.6469 232.264 39.1598 233.451 38.1685 234.393C37.1771 235.335 35.8316 236.399 35.1943 236.809C34.557 237.218 33.7426 238.16 33.424 238.856C32.4326 240.944 33.1053 241.518 36.4335 241.436C38.7704 241.395 39.4077 241.518 41.0718 242.5C42.7359 243.483 43.267 243.606 45.1082 243.401C46.7369 243.237 47.5158 243.36 48.4718 243.933C50.4546 245.08 53.6766 245.694 56.0843 245.408C58.8814 245.039 66.7771 242.951 68.512 242.132C69.2202 241.763 70.1053 241.477 70.4594 241.477C70.778 241.477 72.0881 240.903 73.3273 240.248C75.558 239.02 76.2661 238.488 79.8068 235.539C80.7627 234.761 81.7541 234.106 82.002 234.106C82.7455 234.106 82.6039 235.253 81.7895 235.744C80.9398 236.276 80.9044 236.686 81.6479 237.546C82.3206 238.365 84.0556 238.406 84.5867 237.628C84.7991 237.341 86.0383 236.973 87.313 236.85C88.5876 236.686 90.9599 236.154 92.5532 235.58C94.1111 235.048 96.3063 234.475 97.3685 234.311C99.2096 234.024 101.476 233.165 105.866 231.035C106.928 230.544 109.159 229.52 110.823 228.783C112.487 228.046 115.284 226.695 117.019 225.794C118.79 224.893 120.702 223.993 121.268 223.829C123.747 223.051 127.57 221.372 128.951 220.471C129.801 219.898 131.288 219.161 132.315 218.792C135.289 217.646 149.098 207.819 149.523 206.467C149.664 206.14 149.912 205.853 150.125 205.853C150.337 205.853 151.328 205.075 152.355 204.092C155.577 201.062 160.428 197.541 160.817 197.991C161.03 198.237 161.03 199.547 160.817 201.595C160.64 203.396 160.463 208.146 160.428 212.2C160.392 216.254 160.286 219.898 160.18 220.266C160.074 220.635 158.551 222.068 156.781 223.378C154.09 225.467 152.603 226.204 147.327 228.21C139.467 231.158 131.359 234.639 129.27 235.949C126.969 237.382 122.295 239.839 121.87 239.839C121.693 239.839 121.339 240.125 121.056 240.494C120.808 240.822 119.887 241.559 119.002 242.091C116.878 243.36 108.451 251.55 106.68 254.006C105.937 255.071 104.379 257.241 103.246 258.838C102.113 260.435 100.838 262.564 100.449 263.588C100.059 264.612 99.068 266.454 98.2537 267.682C97.4393 268.911 96.0939 271.286 95.2441 272.924C94.3943 274.562 93.0135 276.814 92.1637 277.919C90.6412 279.885 88.8709 284.061 88.8709 285.658C88.8709 286.108 88.6939 286.968 88.446 287.542C88.0919 288.442 87.8441 288.565 86.2154 288.565C85.224 288.565 83.0642 288.074 81.4001 287.501C79.7714 286.927 76.9034 285.904 75.0269 285.29C70.8843 283.938 62.1034 280.171 58.2441 278.124C54.7388 276.322 53.1455 275.094 50.5608 272.309C49.4632 271.122 48.3302 270.139 48.0469 270.139C47.7637 270.139 46.312 268.993 44.7895 267.601C43.267 266.167 41.5321 264.612 40.9302 264.161C39.3369 262.892 34.8402 257.323 34.1321 255.726C32.3263 251.59 26.6967 244.793 20.9962 239.921C13.7378 233.738 11.6488 232.264 8.85168 231.445C7.57704 231.076 5.31101 230.339 3.78852 229.766C0 228.415 0 228.415 0 230.79C0 232.796 0 232.796 1.52249 233.41C9.24116 236.645 13.7024 239.347 17.4909 243.115C18.3053 243.893 19.6507 245.203 20.5359 245.981C25.422 250.28 28.5378 254.17 32.7512 261.09C34.3445 263.752 39.6201 270.262 40.6823 270.917C41.178 271.245 41.9216 271.859 42.3464 272.35C42.7359 272.842 44.1522 274.316 45.4976 275.667C46.8431 277.018 48.7551 279.066 49.711 280.212C51.1273 281.85 52.0479 282.505 53.9244 283.201C55.2345 283.734 57.2173 284.757 58.3149 285.535C60.6517 287.173 66.4584 289.835 69.7513 290.817C70.9905 291.186 72.3359 291.677 72.69 291.882C73.0441 292.128 74.5666 292.537 76.1245 292.865C77.6469 293.192 79.913 293.888 81.1522 294.462C84.6929 296.058 87.7025 297.164 89.3666 297.41C91.1015 297.696 92.0575 296.959 92.0575 295.24C92.0575 293.52 93.4384 287.255 94.1465 285.699C94.536 284.921 95.4919 282.341 96.3063 279.966C98.7848 272.637 99.4929 270.999 101.369 267.969C104.769 262.523 108.84 258.306 110.823 258.224C112.983 258.142 117.586 258.756 119.852 259.452C124.03 260.763 131.784 261.991 136.67 262.155C141.45 262.318 146.336 262.933 152.249 264.12C159.295 265.553 164.216 266.413 168.182 266.823C170.023 267.027 172.325 267.396 173.245 267.642C174.201 267.887 176.113 268.092 177.494 268.051C178.91 268.01 180.751 268.215 181.637 268.46C182.522 268.706 184.257 268.911 185.531 268.911C186.806 268.911 190.63 269.279 194.029 269.73C201.039 270.631 207.59 271.204 216.902 271.777C220.442 271.982 225.86 272.432 229.011 272.801C233.791 273.374 237.402 273.456 251.777 273.251C261.195 273.128 271.003 272.842 273.517 272.637C276.066 272.391 286.582 272.064 296.885 271.859C310.836 271.572 316.501 271.286 319.015 270.835C325.211 269.648 327.654 269.361 334.948 268.911C344.826 268.338 350.881 267.723 352.332 267.273C353.005 267.027 354.351 266.864 355.377 266.864C356.404 266.864 357.856 266.618 358.564 266.29C360.193 265.553 362.954 264.898 366.389 264.407C367.805 264.202 370.921 263.465 373.293 262.81C375.665 262.155 379.525 261.213 381.862 260.763C387.774 259.616 388.483 259.452 389.297 258.961C389.686 258.715 391.138 258.388 392.484 258.224C396.378 257.732 399.069 257.077 400.875 256.217C401.796 255.767 403.283 255.399 404.203 255.399C405.301 255.399 406.292 255.071 407.142 254.498C408.133 253.761 408.983 253.556 410.895 253.515C414.365 253.474 414.365 253.474 415.817 252.164C417.41 250.69 419.747 250.567 419.747 251.877C419.747 252.983 416.383 255.03 411.639 256.832C409.479 257.651 405.903 259.002 403.708 259.821C399.742 261.295 398.609 262.237 400.981 262.073C402.15 261.991 406.717 260.517 414.79 257.651C417.162 256.832 420.207 256.054 421.659 255.931C424.031 255.685 424.243 255.767 424.137 256.422C424.031 256.954 423.323 257.364 421.765 257.855C419.499 258.592 416.206 260.844 415.852 261.909C415.746 262.237 415.887 262.769 416.135 263.096C416.596 263.588 416.843 263.547 418.012 262.81C421.234 260.844 424.881 259.043 425.164 259.248C425.341 259.37 425.695 260.189 425.943 261.131C426.368 262.646 426.368 262.892 425.73 263.874C424.881 265.185 416.596 270.18 412.134 272.064C405.69 274.766 403.424 275.544 399.211 276.527C394.785 277.592 393.687 278.288 394.502 279.475C395.033 280.171 398.184 279.885 399.742 278.943C400.308 278.615 401.194 278.329 401.689 278.329C402.22 278.329 403.141 278.042 403.743 277.714C406.151 276.445 413.763 272.924 414.613 272.719C415.108 272.596 416.56 271.9 417.906 271.081C420.561 269.525 425.73 267.273 426.686 267.273C427.607 267.273 428.138 268.624 427.749 269.853C427.501 270.59 426.828 271.122 425.447 271.736C422.65 272.924 415.675 277.059 415.675 277.469C415.675 278.042 412.488 279.966 411.532 279.966C410.399 279.966 409.302 280.663 409.302 281.4C409.302 282.259 410.789 282.178 411.816 281.277C412.276 280.826 413.232 280.294 413.905 280.007C414.577 279.762 415.71 279.107 416.383 278.574C417.552 277.673 421.694 275.79 423.996 275.094C424.597 274.93 425.412 274.562 425.837 274.316C426.722 273.743 428.032 273.702 428.669 274.152C428.917 274.357 429.236 275.34 429.342 276.404C429.519 277.919 429.484 278.329 429.094 278.329C428.811 278.329 427.961 278.82 427.182 279.434C425.943 280.417 423.358 282.137 419.393 284.593C418.826 284.962 417.233 285.863 415.852 286.6L413.374 287.951L415.108 288.074C416.56 288.197 416.985 288.033 417.799 287.132C418.295 286.559 419.959 285.535 421.446 284.88C425.093 283.242 426.085 282.628 427.678 280.949C428.563 280.048 429.094 279.721 429.2 280.048C429.413 280.744 428.953 291.8 428.28 302.078C427.749 310.595 427.43 312.642 425.589 318.866C425.058 320.79 424.35 323.411 424.031 324.68C423.641 326.236 423.252 327.096 422.792 327.26C422.402 327.383 421.871 327.915 421.588 328.447C420.951 329.553 419.499 334.425 418.685 338.111C417.552 343.27 412.453 356.496 410.753 358.789C410.399 359.239 409.302 361.368 408.346 363.497C407.354 365.627 405.903 368.575 405.124 370.049C404.345 371.523 402.929 374.185 402.008 375.986C401.052 377.788 399.884 379.999 399.388 380.9C397.901 383.602 397.653 384.094 396.909 385.691C396.52 386.509 396.06 387.328 395.847 387.451C395.458 387.738 391.952 393.593 391.952 394.003C391.952 394.248 388.978 398.507 386.5 401.783C385.65 402.888 384.198 405.099 383.242 406.696C381.33 409.972 380.091 411.773 376.48 416.728C370 425.491 368.69 427.128 367.451 428.029C366.743 428.562 365.929 429.421 365.716 429.913C365.468 430.445 364.796 431.551 364.194 432.37C363.556 433.189 362.707 434.663 362.317 435.645C361.892 436.628 361.219 437.734 360.795 438.102C360.405 438.512 360.086 439.085 360.086 439.371C360.086 439.699 359.768 440.272 359.378 440.682C358.387 441.746 354.138 443.63 352.085 443.957C351.129 444.121 349.641 444.531 348.756 444.858C345.499 446.087 343.233 446.66 339.763 447.028C331.513 447.929 328.645 448.298 327.052 448.707C326.131 448.953 323.83 449.199 321.918 449.281C320.041 449.321 317.528 449.608 316.359 449.854C315.191 450.099 310.021 450.427 304.852 450.55C294.832 450.837 287.892 451 280.775 451.205C276.42 451.287 261.372 450.918 252.981 450.509C250.644 450.386 245.9 450.222 242.43 450.099C238.96 450.018 236.021 449.813 235.844 449.731C235.313 449.321 218.389 448.953 199.8 448.912C187.408 448.871 180.964 448.748 181.035 448.462C181.07 448.216 182.876 448.052 185.496 448.052C188.435 448.052 189.957 447.888 190.028 447.602C190.24 446.865 189.107 446.537 185.885 446.373C180.964 446.128 175.865 445.513 174.909 445.104C174.414 444.858 172.749 444.531 171.192 444.408C165.562 443.835 156.604 441.951 154.161 440.846C153.594 440.6 151.718 439.945 149.947 439.412C144.955 437.815 142.831 436.833 141.698 435.441C140.458 433.885 138.724 430.486 139.007 430.158C139.219 429.872 135.325 421.478 131.43 413.862C128.491 408.129 123.747 398.302 121.374 392.979C120.631 391.3 119.179 388.352 118.188 386.428C115.213 380.736 109.938 368.821 108.345 364.275C107.53 361.942 105.937 357.724 104.769 354.94C103.635 352.155 102.68 349.617 102.68 349.289C102.68 348.961 102.042 346.587 101.263 344.048C100.484 341.509 99.847 339.093 99.847 338.725C99.847 338.356 99.1034 337.087 98.1829 335.899C95.1379 332.01 93.9695 329.266 91.9159 321.282C90.8891 317.351 90.5704 313.911 90.4996 306.786C90.4642 302.487 90.3934 301.873 89.8623 301.75C89.5082 301.668 89.225 301.668 89.1895 301.75C89.1541 301.832 89.0479 304.33 88.9063 307.278C88.6939 311.905 88.5522 312.806 88.0211 313.256C87.3838 313.788 87.3838 313.829 88.1273 314.443C89.0479 315.221 89.7206 318.047 89.3666 319.807C89.2604 320.463 89.2958 321.118 89.4728 321.282C89.6498 321.404 89.9685 322.346 90.1809 323.37C90.3934 324.393 90.6766 325.622 90.8183 326.113C91.2431 327.669 90.1101 327.71 87.7025 326.318C86.4986 325.622 84.4805 324.516 83.2058 323.82C81.9312 323.165 78.8154 321.486 76.3015 320.135C73.7522 318.743 70.2469 317.105 68.512 316.45C65.467 315.303 58.9876 312.191 58.2441 311.495C58.067 311.332 56.3675 310.308 54.5264 309.243C49.357 306.336 48.8967 306.008 45.8517 303.92C41.2134 300.726 29.7417 291.882 27.0861 289.466C23.3684 286.068 20.9962 283.324 19.3675 280.581C18.5885 279.229 17.4909 277.551 16.9598 276.814C16.4287 276.077 15.6852 274.684 15.2957 273.743C14.5168 271.695 9.9847 264.857 7.11675 261.418C5.48804 259.452 0.814355 255.399 0.177034 255.399C0.0708135 255.399 0 256.627 0 258.101V260.803L4.28421 265.963C6.65646 268.829 9.24116 272.187 10.0201 273.415C10.7991 274.643 12.1799 276.691 13.1005 277.919C14.0211 279.148 15.6498 281.563 16.712 283.283C17.8096 285.003 19.155 286.805 19.6861 287.296C20.2526 287.828 21.4919 289.302 22.4833 290.654C25.2096 294.38 30.0957 299.293 34.0967 302.323C36.0795 303.797 38.8766 306.131 40.2929 307.483C41.6737 308.834 44.223 310.717 45.9579 311.659C47.6575 312.642 49.9943 314.28 51.1981 315.303C53.7474 317.555 54.7742 318.047 56.757 318.047C57.5713 318.047 60.0498 318.784 62.245 319.685C66.8125 321.568 67.8393 322.1 70.2824 324.025C71.2737 324.803 72.867 325.786 73.823 326.195C74.8144 326.646 76.7618 327.546 78.1781 328.242C80.7981 329.594 82.2144 329.88 83.312 329.348C83.7369 329.102 83.9139 329.184 83.9139 329.635C83.9139 329.962 84.2326 330.699 84.6221 331.273C85.5427 332.624 89.4728 335.654 90.2872 335.654C91.0661 335.654 93.8278 337.701 93.8278 338.274C93.8278 338.479 94.2527 339.38 94.7484 340.199C95.7752 341.919 98.4661 348.593 99.4929 351.869C100.449 354.981 104.556 364.972 106.008 367.756C106.716 369.107 107.282 370.376 107.282 370.54C107.282 371.236 115.036 389.294 115.886 390.604C116.382 391.341 117.267 393.348 117.869 395.026C118.506 396.705 119.816 399.858 120.808 401.987C121.799 404.116 123.145 407.065 123.817 408.498C124.49 409.931 125.411 411.651 125.871 412.306C126.367 412.961 126.756 413.739 126.756 414.026C126.756 414.312 127.216 415.254 127.783 416.073C128.349 416.892 129.73 419.717 130.828 422.338C131.961 424.999 133.377 427.988 134.014 429.012C134.652 430.036 135.856 432.492 136.635 434.458C137.449 436.464 138.724 439.044 139.467 440.19C141.344 443.179 142.689 445.923 142.689 446.865C142.689 447.602 142.406 447.643 138.547 447.643C130.438 447.643 101.794 448.298 101.192 448.503C100.874 448.625 99.6699 448.789 98.5369 448.871C84.4096 449.813 81.7895 450.099 76.5139 451.164C75.4517 451.369 73.9292 451.533 73.1503 451.533C71.6632 451.533 69.3618 452.679 69.1139 453.498C69.0431 453.826 69.5034 453.989 70.4594 453.989C71.7694 453.989 71.9111 454.071 71.5216 454.604C70.7072 455.75 71.4862 455.791 73.3627 454.685C74.8852 453.785 76.2661 453.457 80.8336 452.884C85.2594 452.352 86.4986 452.311 86.8173 452.679C87.5254 453.498 86.4986 454.03 84.445 453.907C83.0288 453.826 82.6747 453.907 82.5685 454.481C82.4623 455.136 83.135 455.177 91.0661 455.136C95.8106 455.095 101.759 455.259 104.273 455.504C107.53 455.832 110.186 455.832 113.302 455.545C119.285 454.972 133.59 455.382 135.608 456.201C136.422 456.528 137.626 456.692 138.263 456.569C138.971 456.446 139.821 456.61 140.529 457.06C141.556 457.634 141.769 457.675 142.441 457.142C143.893 456.037 152.214 455.504 163.19 455.791C174.13 456.078 177.742 456.405 180.22 457.388C181.955 458.043 195.233 459.026 198.632 458.739C199.694 458.657 205.288 458.739 211.024 458.944C216.76 459.108 224.974 459.353 229.259 459.476C233.543 459.599 238.571 459.804 240.412 459.927C242.253 460.09 246.006 459.968 248.732 459.681C251.459 459.435 255.92 459.149 258.646 459.067C264.701 458.903 268.702 458.698 275.641 458.084C281.873 457.552 289.733 457.019 298.833 456.446C309.349 455.791 316.288 454.972 325.034 453.457C328.256 452.884 332.823 452.188 335.195 451.942C337.568 451.696 340.046 451.287 340.684 451.041C341.321 450.796 344.083 450.468 346.809 450.304C349.535 450.14 352.722 449.813 353.89 449.567C357.077 448.871 363.025 447.847 363.91 447.847C365.043 447.847 364.866 448.584 363.733 448.748C362.848 448.912 362.813 448.953 363.415 449.281C364.371 449.772 375.347 448.83 382.641 447.643C388.022 446.783 390.005 446.537 397.228 446.005C398.467 445.882 400.415 445.595 401.548 445.35C403.637 444.858 404.699 445.022 404.699 445.8C404.699 446.005 404.416 446.21 404.097 446.21C402.858 446.21 399.423 447.561 399.636 447.97C399.919 448.543 404.274 448.052 407.885 447.069C409.55 446.578 411.603 446.21 412.488 446.21C413.374 446.21 416.312 445.841 419.039 445.391C425.412 444.367 433.732 443.835 433.732 444.49C433.732 444.776 433.414 444.981 433.024 444.981C432.599 444.981 431.643 445.35 430.864 445.841C429.554 446.619 429.377 446.619 428.598 446.046C428.103 445.677 427.43 445.391 427.005 445.391C426.439 445.391 426.297 445.636 426.297 446.824C426.297 447.725 426.014 448.584 425.553 449.117C425.022 449.731 424.916 450.099 425.199 450.427C425.483 450.755 426.545 450.386 428.953 449.158C434.441 446.373 444.956 443.548 448.78 443.835L450.551 443.957L451.825 440.886C452.533 439.208 453.064 437.693 452.994 437.57C452.923 437.406 450.975 437.365 448.709 437.447C431.927 438.102 426.651 438.184 426.757 437.815C426.828 437.57 429.448 437.406 433.52 437.365C440.141 437.324 441.522 437.038 440.566 435.932C439.716 434.949 412.418 435.277 404.168 436.382C402.433 436.587 398.29 437.078 394.962 437.406C391.669 437.734 387.031 438.389 384.694 438.839C382.357 439.29 378.923 439.863 377.082 440.109C375.241 440.313 372.833 440.764 371.735 441.091C369.328 441.828 367.876 441.869 367.876 441.255C367.876 441.009 368.372 440.149 368.938 439.371C369.54 438.634 370 437.611 370 437.16C370 436.71 370.992 434.908 372.196 433.189C375.382 428.603 375.276 428.684 375.665 429.421C375.949 429.913 376.338 429.667 377.79 427.988C378.746 426.883 379.56 425.654 379.56 425.245C379.56 424.835 379.702 424.508 379.843 424.508C380.374 424.508 385.225 415.827 385.225 414.967C385.19 414.722 384.659 415.213 383.986 416.073C383.313 416.974 382.747 417.424 382.747 417.097C382.747 416.319 386.677 409.767 387.42 409.317C387.774 409.112 388.058 408.621 388.058 408.293C388.058 407.965 389.545 405.263 391.351 402.274C394.927 396.419 397.582 391.71 399.14 388.352C399.707 387.165 400.84 385.199 401.654 383.971C403.672 380.982 413.551 361.082 413.551 360.058C413.551 359.894 414.082 358.83 414.719 357.642C416.029 355.185 418.649 348.798 420.278 344.048C420.915 342.246 421.871 339.667 422.438 338.315C422.969 336.964 423.677 335.121 423.996 334.221C426.722 326.687 428.067 322.592 428.421 320.79C428.669 319.603 429.059 318.006 429.342 317.228C429.767 315.959 430.227 313.338 431.608 304.739C431.82 303.388 432.174 300.44 432.352 298.188C432.529 295.936 432.812 292.619 433.024 290.817C433.768 283.529 434.157 274.193 433.768 272.391C433.555 271.409 433.378 269.484 433.378 268.092C433.378 266.454 433.095 264.693 432.564 263.056C432.104 261.663 431.537 259.862 431.289 259.084C430.086 255.235 429.484 253.72 428.846 252.655C428.457 252 428.032 250.813 427.89 249.953C427.749 249.134 427.359 247.987 427.005 247.496C426.651 246.964 425.908 245.285 425.412 243.811C423.854 239.307 417.587 232.55 416.348 233.983C416.1 234.27 416.348 234.721 417.162 235.335C418.72 236.604 420.278 238.283 420.278 238.733C420.278 238.938 419.676 238.529 418.897 237.832C418.153 237.136 416.525 236.031 415.285 235.376C414.046 234.721 411.993 233.165 410.753 231.895C408.098 229.275 403.141 226.613 399.954 226.163C398.821 225.999 395.989 225.139 393.617 224.238C391.28 223.378 389.226 222.641 389.014 222.641C388.837 222.641 388.199 222.396 387.597 222.068C386.96 221.74 386.146 221.413 385.756 221.331C385.225 221.208 385.048 220.881 385.119 220.062C385.19 219.038 384.871 218.71 383.986 218.956C382.818 219.243 381.26 218.915 379.914 218.137C378.179 217.113 375.842 216.213 373.541 215.68C372.656 215.517 371.24 215.025 370.354 214.657C369.328 214.206 367.416 213.92 365.043 213.838C358.529 213.633 355.271 211.586 352.368 205.853C351.553 204.256 351.412 203.478 351.306 199.916C351.235 197.664 351.341 194.061 351.518 191.931C351.943 187.263 351.66 186.608 349.287 186.608C348.084 186.608 347.517 186.322 346.065 184.848C344.083 182.882 342.383 181.858 338.311 180.057C336.753 179.361 334.877 178.337 334.169 177.764C333.425 177.232 332.611 176.781 332.328 176.781C332.044 176.781 329.849 175.921 327.441 174.898C323.44 173.137 322.98 173.014 321.67 173.423C320.36 173.833 320.148 173.792 319.015 172.727C317.067 170.926 317.209 170.189 319.758 168.633C320.927 167.855 322.98 166.422 324.29 165.398C325.565 164.374 328.291 162.327 330.345 160.894C332.398 159.42 335.62 156.922 337.532 155.325C339.444 153.728 341.285 152.254 341.604 152.008C344.437 150.166 346.49 148.2 351.235 142.836C354.244 139.438 356.829 136.653 356.935 136.653C357.077 136.653 359.555 133.582 362.423 129.815C370.461 119.415 384.765 102.954 388.27 100.17C389.616 99.1055 392.767 94.7651 394.502 91.5713C394.82 90.9571 396.414 89.6468 398.042 88.6231C399.671 87.6404 402.504 85.7569 404.345 84.4466C406.186 83.1363 408.983 81.2527 410.541 80.2291C412.099 79.2464 414.259 77.7314 415.321 76.9124C417.941 74.906 427.111 64.5465 428.846 61.5984L430.263 59.2235L429.023 59.4692C428.351 59.633 427.713 59.592 427.607 59.3873C427.359 58.8959 428.775 56.3982 430.617 54.0642C431.36 53.0815 431.962 51.976 431.962 51.5255C431.962 50.7885 431.785 50.7476 429.484 50.9523L427.005 51.198V50.0105C427.005 49.3554 427.395 48.127 427.89 47.308C428.953 45.5064 429.023 44.5237 428.103 44.5237C427.253 44.5237 414.825 52.1807 412.524 54.1052C411.568 54.9241 409.833 55.9887 408.7 56.4391C407.567 56.8896 406.08 57.6675 405.372 58.2408C404.239 59.1006 400.556 60.4928 399.423 60.4928C398.928 60.4928 399.105 59.9605 402.362 51.976C403.849 48.3727 405.195 44.6465 405.372 43.7457C405.726 41.8622 405.513 40.0196 404.911 40.0196C404.699 40.0196 403.53 40.9613 402.327 42.0669C400.733 43.5819 399.388 45.4245 397.37 48.9459C395.847 51.5665 393.687 55.2517 392.554 57.1352C391.386 59.0188 390.076 61.6393 389.651 62.9906C388.376 66.7577 386.464 70.0334 383.703 73.2682C382.286 74.906 380.516 77.24 379.773 78.4274C378.852 79.9015 377.4 81.3756 375.524 82.8087C370.036 87.0262 361.042 95.1746 360.688 96.2802C360.582 96.5668 359.095 98.2046 357.36 99.8425C355.661 101.48 352.686 104.633 350.81 106.844C348.579 109.424 347.092 110.857 346.596 110.857C345.393 110.857 341.427 113.232 339.551 115.075C338.595 116.016 337.107 117.49 336.222 118.35C335.337 119.21 333.956 121.176 333.213 122.691C331.619 125.844 330.309 127.195 324.963 131.167C316.288 137.636 313.314 139.11 308.853 139.11C305.914 139.11 301.665 138.455 301.205 137.923C301.063 137.759 301.807 136.94 302.869 136.08C304.002 135.179 305.206 133.787 305.702 132.764C306.197 131.822 306.835 130.921 307.118 130.798C308.64 130.102 311.083 120.807 310.765 117.081C310.659 115.894 310.305 114.911 309.632 114.133L308.676 112.986L309.419 109.588C310.269 105.657 310.375 101.931 309.632 99.5968C309.349 98.696 309.136 97.2219 309.101 96.3211C309.101 94.4785 306.728 88.5412 305.1 86.3301C304.569 85.5931 304.144 84.5285 304.144 83.9962C304.144 82.3993 303.223 80.7205 302.019 80.1472C301.276 79.7787 300.603 78.9188 299.824 77.199C299.116 75.6431 297.7 73.6776 295.894 71.7122C292.707 68.2318 292.991 69.0916 292.105 60.0834C291.893 57.9542 291.504 55.1698 291.256 53.9414C290.972 52.713 290.548 50.5838 290.335 49.2325C290.087 47.8813 289.521 45.7521 289.061 44.4827C288.6 43.2134 288.211 41.8622 288.211 41.5346C288.211 41.166 287.326 38.5455 286.228 35.6383C285.166 32.772 283.997 29.3734 283.643 28.1451C282.829 25.2379 282.121 23.6409 281.129 22.6173C280.705 22.1668 280.103 21.266 279.855 20.6518C278.261 17.1714 270.366 8.16312 266.471 5.46066C260.594 1.366 250.786 -0.845123 243.598 0.301392ZM258.469 3.37238C265.55 6.40244 269.233 9.51437 273.942 16.4753C274.721 17.5808 275.641 18.8092 275.995 19.1368C277.27 20.3652 279.819 25.4016 281.696 30.438C282.758 33.2634 283.997 36.3753 284.458 37.3171C285.839 40.0605 289.839 55.9478 290.654 61.926C292.105 72.6949 293.239 86.453 293.38 95.0927C293.805 119.374 293.805 144.392 293.345 148.323C293.061 150.575 292.743 155.653 292.637 159.584C292.495 163.555 292.141 167.855 291.858 169.206C290.654 174.816 290.937 203.765 292.283 211.79C292.53 213.346 292.849 215.558 292.955 216.663C293.061 217.769 293.416 219.12 293.699 219.611C294.372 220.799 294.372 221.577 293.699 222.232C293.061 222.846 293.309 223.46 294.265 223.46C294.726 223.46 294.938 223.747 294.938 224.402C294.938 224.893 295.257 226.081 295.682 226.941C296.071 227.841 296.708 229.479 297.062 230.626C298.337 234.475 301.772 238.447 306.693 241.763C309.455 243.606 312.818 247.291 313.81 249.461C314.376 250.731 314.518 251.836 314.518 254.375C314.518 256.217 314.341 258.06 314.128 258.51C313.916 258.961 312.889 259.821 311.862 260.435C310.021 261.5 309.951 261.541 305.666 261.172C300.603 260.763 300.072 260.476 298.656 257.364C297.771 255.439 297.664 254.784 297.735 251.754C297.771 249.83 297.7 247.987 297.594 247.619C297.487 247.25 296.638 246.349 295.682 245.653C293.557 244.056 290.229 238.61 288.671 234.106C287.113 229.766 285.98 225.057 286.334 224.648C286.511 224.443 287.963 224.074 289.556 223.788C291.15 223.542 292.46 223.174 292.46 222.969C292.46 222.723 291.15 222.641 289.45 222.682C287.786 222.764 286.299 222.641 286.122 222.437C285.945 222.191 285.626 220.799 285.449 219.284L285.166 216.581L287.361 214.902C290.725 212.364 291.716 209.456 290.477 205.853C289.804 203.888 288.529 202.987 286.44 202.987H284.989L285.166 201.226C285.307 200.284 285.484 191.931 285.626 182.718C285.874 162.614 285.874 161.18 285.626 153.032C285.414 146.685 285.909 136.817 286.972 125.803C287.786 117.204 287.644 108.523 286.405 90.998C286.193 88.0499 285.98 83.1772 285.909 80.1063C285.803 76.2163 285.484 72.8997 284.847 69.2554C284.281 66.1435 283.997 63.3181 284.104 62.3764C284.174 61.4756 284.104 60.4109 283.927 60.0015C283.714 59.592 283.431 57.7085 283.254 55.8659C282.616 49.3554 280.669 42.3126 277.341 34.287C275.323 29.4554 274.898 28.6774 271.216 23.0267C263.78 11.6026 263.391 11.1932 256.699 7.05756C254.539 5.74728 252.946 5.17401 250.573 4.9693C248.414 4.76456 247.635 4.84647 245.546 5.70633C244.2 6.27957 242.501 6.97568 241.828 7.2623C238.854 8.49069 236.871 9.92383 234.428 12.7082C232.41 14.9603 231.525 16.3524 230.604 18.7273C228.692 23.5181 226.072 32.8539 225.435 37.358C225.045 39.8148 224.868 40.2243 224.125 40.47C222.496 41.0023 221.009 40.8794 220.796 40.1833C220.442 39.1187 221.54 33.9595 222.744 31.2979C223.346 29.9058 224.16 27.7765 224.514 26.5481C224.904 25.3197 225.505 23.7228 225.86 23.0267C226.214 22.3306 226.78 20.7337 227.134 19.5053C228.727 13.7728 234.357 6.07486 238.889 3.41333C240.766 2.30777 243.492 1.98019 249.794 2.10303C255.389 2.22586 255.991 2.30777 258.469 3.37238ZM254.327 9.06393C255.884 9.96478 257.973 11.5617 259.106 12.7901C260.239 14.0185 261.833 15.2878 262.647 15.6563C264.134 16.3524 266.506 19.1778 269.339 23.6819C272.278 28.3088 278.97 45.1788 279.713 49.7648C280.173 52.7949 279.961 53.491 278.863 52.3854C277.305 50.7476 273.729 48.7821 265.019 44.6875C263.851 44.1142 261.868 43.1315 260.594 42.4763C255.743 39.8967 252.521 38.9959 248.838 39.0778C245.652 39.1597 245.369 39.1597 241.651 39.1187C239.774 39.1187 237.579 39.3644 236.305 39.7739C234.888 40.1833 232.693 40.429 230.179 40.429H226.249V39.4054C226.249 38.873 226.603 37.1533 226.993 35.6383C227.701 33.0586 228.267 31.2979 231.808 20.529C233.366 15.7792 235.773 12.1759 238.393 10.7018C239.42 10.1286 241.58 9.30963 243.209 8.85922C244.838 8.40881 246.431 7.8765 246.749 7.67175C247.953 6.81189 251.423 7.42609 254.327 9.06393ZM402.964 47.2262C402.539 48.2908 401.123 51.3618 399.777 54.1052C397.228 59.2644 396.343 61.7622 396.697 62.7449C396.909 63.4001 398.149 63.5638 398.467 62.9906C398.574 62.8268 399.884 62.1307 401.406 61.5165C402.929 60.8614 404.593 60.0015 405.124 59.5511C405.655 59.1006 406.682 58.6912 407.461 58.6093C408.487 58.5274 410.01 57.7085 413.09 55.4564C419.109 51.1161 424.279 48.2498 424.704 49.0278C425.164 49.8467 420.313 54.7603 415.533 58.3227C408.7 63.4001 405.372 65.9797 405.195 66.3073C404.168 68.2318 411.78 63.0315 418.649 57.1352C420.561 55.4973 422.721 53.8595 423.464 53.45C424.208 53.0815 424.916 52.5901 425.022 52.3445C425.412 51.6074 426.014 51.8122 425.872 52.6311C425.66 53.9823 415.356 65.0379 411.426 68.1089C409.373 69.7468 407.39 71.4256 407.036 71.9169C404.38 75.3155 414.223 67.6176 420.065 61.7213C424.102 57.6675 427.288 54.7603 427.678 54.7603C427.89 54.7603 428.067 54.5556 428.067 54.3509C428.067 54.1052 428.244 53.9414 428.421 53.9414C429.307 53.9414 428.563 55.3745 425.766 58.8959C424.102 60.9842 421.517 63.8914 420.03 65.2836C416.56 68.5184 411.922 72.654 411.143 73.1453C410.824 73.3501 410.683 73.6776 410.824 73.8414C411.32 74.4556 415.64 71.4256 418.614 68.4365C422.508 64.5465 426.191 61.8441 426.757 62.4992C427.076 62.9087 426.97 63.1953 426.297 63.8095C424.775 65.2426 421.942 68.1089 419.499 70.8114C418.224 72.2036 416.383 73.9233 415.427 74.5785C412.453 76.6667 406.894 81.0071 406.434 81.6213C406.221 81.9489 405.797 82.1945 405.478 82.1945C405.195 82.1945 404.203 82.7678 403.283 83.4229C401.052 85.1017 397.334 86.7805 396.591 86.4939C396.201 86.3711 395.352 84.5694 394.396 81.9079C393.227 78.5912 392.413 76.9534 391.032 75.2746C390.04 74.0052 389.155 72.654 389.014 72.2855C388.66 71.1799 389.97 65.8159 391.386 62.5811C392.094 60.9842 393.617 58.4865 394.785 56.9714C395.953 55.4973 396.909 53.9005 396.909 53.491C396.909 51.6484 399.99 46.6529 402.327 44.6465C403.424 43.7047 403.46 43.6638 403.566 44.4827C403.637 44.9331 403.353 46.1615 402.964 47.2262ZM256.84 59.7968C257.407 60.2472 257.442 60.4928 257.088 61.2708C256.734 62.0488 256.451 62.1307 255.53 61.885C253.972 61.5165 253.866 61.3937 253.866 60.2472C253.866 59.3873 254.043 59.2644 255.035 59.2644C255.672 59.2644 256.486 59.5101 256.84 59.7968ZM260.523 60.9842C260.31 61.7213 259.531 61.8441 259.531 61.148C259.531 60.7795 259.779 60.4928 260.098 60.4928C260.416 60.4928 260.594 60.6976 260.523 60.9842ZM267.533 62.4173C268.1 63.3181 268.135 63.7686 267.675 63.7686C267.498 63.7686 267.321 63.4819 267.321 63.1544C267.321 62.8268 267.179 62.5402 266.967 62.5402C266.79 62.5402 266.613 62.3354 266.613 62.1307C266.613 61.5165 267.002 61.6393 267.533 62.4173ZM223.629 64.7922C224.054 65.9797 223.027 66.7577 221.363 66.512C219.451 66.2663 218.92 65.734 219.699 64.8332C220.478 63.9733 223.346 63.9323 223.629 64.7922ZM217.043 65.2017C216.795 65.5702 216.512 65.734 216.441 65.6521C216.193 65.3655 216.689 64.5875 217.114 64.5875C217.326 64.5875 217.326 64.8332 217.043 65.2017ZM226.922 67.6176C226.851 67.6994 226.426 67.9861 226.001 68.2318C225.328 68.6412 225.187 68.6003 225.187 68.068C225.187 67.6585 225.505 67.4538 226.143 67.4538C226.638 67.4538 226.993 67.5356 226.922 67.6176ZM177.423 69.1326C176.75 69.7468 176.503 69.8286 176.29 69.4192C175.971 68.805 176.573 68.2727 177.565 68.2727C178.237 68.3136 178.202 68.3546 177.423 69.1326ZM272.065 69.1735C272.349 69.7058 272.313 70.0334 272.03 70.361C271.428 71.0571 269.728 69.7468 270.047 68.8459C270.295 68.068 271.57 68.2727 272.065 69.1735ZM224.479 73.1453C224.479 73.2682 224.302 73.6776 224.125 74.0052C223.806 74.5375 223.7 74.4966 223.239 73.8414C222.956 73.391 222.708 72.5721 222.708 71.9988V71.0161L223.593 71.9579C224.089 72.4902 224.479 73.0225 224.479 73.1453ZM389.934 79.9425C391.528 82.2355 392.484 84.5285 392.838 86.8215C393.085 88.2546 393.05 88.3774 391.988 88.7869C391.067 89.1554 390.89 89.4421 390.89 90.5886C390.89 91.3665 390.713 92.4721 390.536 93.1273C390.04 94.6013 380.658 105.534 379.843 105.534C379.489 105.534 378.994 105.125 378.675 104.592C378.002 103.405 372.479 89.4011 372.479 88.9098C372.479 88.705 373.47 87.5995 374.674 86.4939C378.569 82.8497 379.596 81.6622 380.976 79.3283C383.065 75.7659 383.455 75.6021 386.217 76.8305C388.058 77.6904 388.801 78.3046 389.934 79.9425ZM171.014 76.8715C171.014 77.0762 170.873 77.2809 170.66 77.2809C170.483 77.2809 170.306 77.0762 170.306 76.8715C170.306 76.6258 170.483 76.462 170.66 76.462C170.873 76.462 171.014 76.6258 171.014 76.8715ZM212.547 77.5266C214.14 77.8542 214.211 78.2636 212.794 79.1235C210.918 80.2291 209.502 79.6149 210.104 77.8951C210.316 77.199 210.599 77.1581 212.547 77.5266ZM295.292 79.3692C295.292 79.8196 295.15 80.0653 294.938 79.9425C294.761 79.8196 294.584 79.3283 294.584 78.8778C294.584 78.4274 294.761 78.1818 294.938 78.3046C295.15 78.4274 295.292 78.9188 295.292 79.3692ZM237.367 79.7787C238.429 81.2118 238.464 81.4984 237.827 82.1126C237.154 82.7678 236.411 82.0307 236.694 81.0071C236.836 80.4338 236.765 80.1472 236.446 80.1472C235.667 80.1472 234.994 79.4511 235.242 78.9597C235.667 78.1818 236.411 78.4684 237.367 79.7787ZM225.895 89.5649C225.895 89.7696 225.647 89.9744 225.328 89.9744C225.045 89.9744 224.904 89.7696 225.01 89.5649C225.116 89.3192 225.364 89.1554 225.576 89.1554C225.753 89.1554 225.895 89.3192 225.895 89.5649ZM371.912 91.6941C372.373 92.6768 372.868 93.9052 373.01 94.4785C373.151 95.0518 374.355 98.1227 375.701 101.358C377.046 104.551 378.144 107.377 378.144 107.581C378.144 107.991 357.714 131.699 353.288 136.449C352.049 137.8 350.774 139.479 350.527 140.216C350.243 140.953 349.677 141.608 349.287 141.731C348.898 141.854 347.552 142.877 346.278 144.024C343.941 146.112 336.045 152.582 333.177 154.793C332.292 155.448 330.239 157.045 328.574 158.314C326.91 159.584 324.786 160.976 323.795 161.344C321.847 162.163 320.82 162.695 315.757 165.521C312.464 167.363 312.11 167.486 307.968 167.855C305.454 168.06 303.294 168.469 302.869 168.797C301.984 169.452 300.851 172.031 301.028 173.014C301.17 173.997 304.25 174.161 306.197 173.301C311.579 171.008 312.252 170.844 312.5 171.622C312.606 171.99 312.358 172.809 311.969 173.464C310.977 175.102 311.048 175.553 312.287 175.553C312.889 175.553 313.35 175.716 313.35 175.962C313.35 176.208 312.075 176.372 310.269 176.372C308.003 176.372 306.445 176.658 304.356 177.395C301.205 178.501 294.655 179.77 294.124 179.361C293.557 178.951 294.088 171.499 294.903 168.51C295.611 166.012 295.646 165.398 295.292 161.344C294.726 154.547 294.513 145.989 294.867 144.638C295.115 143.737 295.363 143.451 295.859 143.533C296.85 143.778 305.808 144.515 308.039 144.556C311.048 144.638 315.155 142.14 325.317 133.869C326.238 133.173 327.795 131.945 328.751 131.208C329.743 130.43 331.69 128.669 333.142 127.277C334.558 125.885 335.939 124.82 336.151 124.902C336.683 125.107 336.647 129.979 336.045 133.787C335.302 138.783 335.195 140.175 335.585 139.724C335.797 139.479 336.222 137.595 336.541 135.507C336.86 133.419 337.249 131.208 337.462 130.634C337.639 130.02 337.922 128.096 338.028 126.335L338.24 123.1L340.046 121.38C341.817 119.702 344.472 116.876 352.828 107.786C355.094 105.288 357.218 103.077 357.573 102.873C358.139 102.463 359.697 100.866 364.689 95.4612C367.168 92.7997 370.284 89.9744 370.744 89.9744C370.885 89.9744 371.417 90.7523 371.912 91.6941ZM252.804 93.2501C253.194 93.5367 253.016 93.6596 252.025 93.6596C251.317 93.6596 250.609 93.4548 250.503 93.2501C250.219 92.7178 252.096 92.7178 252.804 93.2501ZM304.144 93.7005C304.144 93.9462 303.967 94.5194 303.754 94.9698C303.436 95.625 303.294 95.7069 303.082 95.2565C302.905 94.9698 302.94 94.3966 303.117 93.9871C303.506 93.1682 304.144 93.0044 304.144 93.7005ZM247.847 95.2974C247.847 95.9935 247.741 96.0754 247.174 95.7069C246.289 95.1746 245.723 95.1746 246.431 95.7069C246.891 96.0754 246.891 96.1573 246.431 96.5258C245.687 97.0991 244.873 96.8534 244.731 95.9935C244.59 95.2565 245.652 94.5604 247.068 94.5194C247.635 94.4785 247.847 94.7242 247.847 95.2974ZM230.639 96.4849C231.489 97.5904 231.241 99.1055 230.144 99.433C228.621 99.9244 226.249 99.8425 226.249 99.3102C226.249 98.5732 228.798 95.7069 229.436 95.7069C229.79 95.7069 230.321 96.0754 230.639 96.4849ZM206.775 97.7133C206.775 97.918 206.457 98.1637 206.067 98.2865C205.288 98.5322 205.04 97.5495 205.819 97.2219C206.315 97.0172 206.775 97.2628 206.775 97.7133ZM199.694 98.0818C200.154 98.4913 200.402 99.0645 200.26 99.3102C199.977 99.8425 196.189 100.784 195.87 100.416C195.622 100.129 198.207 97.3448 198.667 97.3448C198.809 97.3448 199.269 97.6723 199.694 98.0818ZM195.091 98.1227C195.091 99.0645 193.887 99.8835 192.86 99.6378C191.621 99.3511 190.771 98.655 191.055 98.1227C191.303 97.6314 195.091 97.6314 195.091 98.1227ZM207.483 98.9826C207.483 99.1873 207.236 99.3921 206.917 99.3921C206.634 99.3921 206.492 99.1873 206.598 98.9826C206.704 98.7369 206.952 98.5732 207.165 98.5732C207.342 98.5732 207.483 98.7369 207.483 98.9826ZM189.603 102.832C190.488 103.773 190.524 103.937 190.099 105.493C189.851 106.435 189.532 107.172 189.355 107.172C188.966 107.172 188.187 105.084 187.833 103.159C187.549 101.521 188.258 101.398 189.603 102.832ZM250.078 103.814C250.609 104.388 251.034 105.125 251.034 105.411C251.034 106.271 249.228 105.616 248.307 104.428C247.847 103.896 247.493 103.077 247.493 102.627C247.493 101.931 247.599 101.89 248.307 102.299C248.732 102.545 249.511 103.241 250.078 103.814ZM246.714 105.247C246.82 106.885 246.289 107.336 245.935 105.821C245.581 104.347 245.687 103.405 246.183 103.569C246.395 103.691 246.643 104.428 246.714 105.247ZM161.101 105.944C161.101 106.148 160.924 106.353 160.711 106.353C160.534 106.353 160.463 106.148 160.57 105.944C160.676 105.698 160.853 105.534 160.959 105.534C161.03 105.534 161.101 105.698 161.101 105.944ZM255.46 106.517L257.23 107.049L256.026 107.909C255.141 108.523 254.645 108.646 254.185 108.359C253.406 107.909 252.733 106.558 253.052 106.189C253.335 105.862 253.335 105.862 255.46 106.517ZM264.63 111.144C264.984 112.659 264.736 116.59 264.311 116.59C264.063 116.59 263.78 116.18 263.638 115.648C263.532 115.157 263.037 114.215 262.541 113.56L261.62 112.331L262.612 111.389C263.816 110.284 264.382 110.202 264.63 111.144ZM229.117 111.348C229.896 111.594 230.498 111.922 230.498 112.045C230.498 112.208 230.038 112.945 229.506 113.682C228.409 115.238 227.524 115.197 226.249 113.601C224.514 111.471 226.001 110.243 229.117 111.348ZM190.488 112.495C190.488 113.273 189.78 113.601 189.32 113.027C189.037 112.741 189.709 111.676 190.17 111.676C190.347 111.676 190.488 112.045 190.488 112.495ZM241.828 112.536C242.288 112.823 242.288 112.904 241.757 113.109C241.084 113.396 239.704 112.7 239.704 112.045C239.704 111.635 240.766 111.881 241.828 112.536ZM209.466 113.887C209.82 114.215 210.033 114.624 209.891 114.747C209.466 115.238 207.837 114.583 207.837 113.928C207.837 113.15 208.546 113.15 209.466 113.887ZM246.431 114.624C246.431 115.075 245.333 115.034 244.696 114.583C244.448 114.379 244.306 114.01 244.448 113.764C244.731 113.273 246.431 114.01 246.431 114.624ZM195.587 116.057C197.64 117.245 197.994 117.695 197.711 118.76C197.57 119.251 197.747 119.743 198.207 120.111C198.667 120.48 198.986 121.258 199.057 122.24C199.127 123.387 199.375 123.837 200.013 124.165C203.235 125.721 203.766 126.171 204.084 127.973C204.474 130.225 203.801 131.249 201.677 131.412C200.544 131.535 200.367 131.658 200.898 131.904C201.287 132.149 202.42 132.067 203.801 131.781C205.005 131.494 206.492 131.371 207.059 131.535C207.873 131.74 208.298 131.535 209.183 130.593C209.962 129.774 210.21 129.16 210.104 128.587C209.997 128.096 210.068 127.604 210.281 127.481C210.458 127.318 212.617 127.154 215.025 127.072C217.433 127.031 219.628 126.785 219.911 126.622C220.194 126.417 221.292 125.393 222.39 124.288C224.939 121.749 225.789 121.708 227.807 124.124C229.188 125.762 229.542 125.925 231.595 126.212C233.684 126.499 233.968 126.663 235.242 128.3C236.446 129.856 236.694 129.979 237.438 129.611C238.075 129.283 238.783 129.324 240.376 129.856C241.545 130.225 243.421 130.552 244.554 130.593C247.139 130.634 248.555 131.412 248.555 132.764C248.555 133.296 248.803 134.401 249.157 135.179C249.724 136.613 249.724 136.613 248.626 138.087C247.67 139.315 247.493 139.888 247.493 141.608C247.493 144.188 247.953 145.17 249.44 145.907C251.565 146.931 254.185 146.644 256.097 145.252C257.017 144.556 257.903 144.024 258.08 144.024C258.363 144.024 260.841 139.888 262.222 137.145C263.037 135.466 263.355 135.507 263.957 137.227C264.24 138.005 265.126 139.479 265.905 140.543C267.392 142.55 267.569 143.164 266.931 144.515C266.436 145.539 260.735 148.692 258.115 149.347C257.053 149.593 253.902 151.108 251.14 152.664C246.608 155.243 245.829 155.571 243.527 155.735C240.093 155.98 236.942 156.594 235.065 157.372C230.215 159.338 226.284 159.502 223.735 157.823C221.186 156.144 220.867 157.127 221.327 165.93L221.469 168.387L219.168 168.264C216.371 168.1 213.927 167.363 210.033 165.644C207.448 164.497 206.704 163.924 204.332 161.221C200.508 156.881 198.384 151.927 197.393 145.129C197.286 144.31 197.038 143.614 196.861 143.614C196.366 143.614 196.401 151.64 196.897 152.705C197.109 153.155 197.286 154.629 197.322 156.021C197.393 158.56 197.393 158.56 196.153 159.256C195.445 159.665 193.285 160.28 191.303 160.689C187.868 161.344 187.62 161.344 185.673 160.648C184.08 160.075 183.088 159.338 181.353 157.413C178.344 154.056 177.388 151.763 177.388 147.996C177.388 141.567 180.185 139.847 186.735 142.14C191.019 143.614 193.923 143.164 196.259 140.584C197.003 139.684 197.215 139.11 197.215 137.636C197.215 136.08 197.074 135.753 196.33 135.343C195.693 135.016 195.445 134.565 195.445 133.787C195.445 132.313 194.489 131.289 194.17 132.395C194.029 132.845 193.639 133.951 193.285 134.893L192.648 136.653H190.488C188.859 136.653 188.222 136.49 187.797 135.916C187.266 135.179 187.195 135.179 185.956 135.916C185.248 136.326 184.327 136.653 183.903 136.653C183.478 136.653 182.451 137.022 181.601 137.431C180.079 138.209 178.308 138.496 176.042 138.373C175.192 138.291 174.803 138.046 174.484 137.268C174.166 136.408 174.237 136.039 174.98 134.729C175.476 133.869 176.361 132.149 176.927 130.921C179.725 124.943 181.459 121.831 182.415 120.971C182.982 120.48 184.221 119.292 185.106 118.391C186.523 116.958 188.258 115.853 190.842 114.788C191.727 114.419 193.71 114.952 195.587 116.057ZM229.79 116.18C229.79 116.385 229.719 116.59 229.648 116.59C229.542 116.59 229.365 116.385 229.259 116.18C229.152 115.935 229.223 115.771 229.4 115.771C229.613 115.771 229.79 115.935 229.79 116.18ZM215.839 116.753C216.193 117.081 216.406 117.49 216.264 117.654C215.875 118.064 214.14 117.081 214.388 116.59C214.671 116.016 215.025 116.057 215.839 116.753ZM253.016 117.081C253.158 117.327 252.839 118.023 252.238 118.637C251.671 119.251 251.034 120.07 250.821 120.48C250.29 121.544 249.617 121.708 249.617 120.807C249.617 120.029 251.954 116.59 252.485 116.59C252.627 116.59 252.875 116.794 253.016 117.081ZM220.726 119.251C221.682 119.579 222.992 119.865 223.664 119.865C224.443 119.865 224.833 120.07 224.833 120.48C224.833 120.93 224.443 121.012 222.992 120.848C220.407 120.521 218.814 119.906 218.814 119.21C218.814 118.883 218.849 118.637 218.92 118.637C218.955 118.637 219.77 118.924 220.726 119.251ZM203.943 120.725C203.943 120.971 203.801 121.012 203.589 120.889C203.412 120.766 203.235 120.439 203.235 120.234C203.235 119.988 203.412 119.947 203.589 120.07C203.801 120.193 203.943 120.521 203.943 120.725ZM210.599 121.954C211.06 122.158 211.838 122.322 212.299 122.322C212.865 122.322 213.148 122.527 213.078 122.814C212.865 123.469 208.616 124.001 207.802 123.51C207.129 123.1 206.669 121.995 206.988 121.462C207.2 121.053 209.148 121.339 210.599 121.954ZM213.998 124.82C213.75 125.311 211.024 125.311 211.024 124.82C211.024 124.41 213.007 124.042 213.75 124.288C213.998 124.369 214.104 124.615 213.998 124.82ZM254.22 125.598C254.22 125.803 254.149 126.007 254.079 126.007C253.972 126.007 253.795 125.803 253.689 125.598C253.583 125.352 253.654 125.188 253.831 125.188C254.043 125.188 254.22 125.352 254.22 125.598ZM239.704 126.417C239.704 126.908 238.004 127.44 237.65 127.072C237.367 126.703 238.287 126.007 239.102 126.007C239.42 126.007 239.704 126.171 239.704 126.417ZM257.69 130.716C258.009 131.044 257.23 131.863 256.132 132.395C254.362 133.255 252.45 132.19 252.946 130.634C253.123 130.102 253.548 130.061 255.389 130.307C256.593 130.43 257.619 130.634 257.69 130.716ZM256.132 139.11C256.097 141.69 255.991 142.14 255.105 143.205C254.574 143.86 253.972 144.31 253.725 144.188C253.512 144.106 253.3 142.755 253.229 140.953L253.123 137.923L254.468 137.104C255.212 136.653 255.884 136.285 255.991 136.244C256.097 136.244 256.168 137.554 256.132 139.11ZM295.54 137.964C295.434 138.291 295.328 138.168 295.328 137.718C295.292 137.268 295.398 137.022 295.505 137.186C295.611 137.309 295.646 137.677 295.54 137.964ZM283.537 141.444C284.033 142.55 284.387 161.303 284.104 171.008L283.856 179.647H282.192C281.129 179.647 280.35 179.893 280.067 180.262C279.678 180.794 278.297 180.876 270.897 180.835C266.117 180.794 259.921 180.999 257.124 181.285C250.821 181.94 250.75 181.899 251.352 177.928C251.565 176.454 251.742 174.447 251.742 173.464C251.742 172.482 252.096 170.844 252.485 169.82C252.91 168.797 253.548 166.872 253.937 165.521C255.424 160.321 256.628 158.069 259.992 154.138C263.037 150.575 265.515 148.119 266.117 148.119C266.259 148.119 267.427 147.136 268.702 145.907C272.986 141.936 275.287 140.994 281.377 140.789C282.829 140.748 283.289 140.912 283.537 141.444ZM257.407 154.097C257.407 154.22 256.77 155.038 255.991 155.898C252.733 159.502 248.661 162.859 243.35 166.299C240.27 168.305 237.119 170.434 236.34 171.09C233.366 173.546 228.055 176.126 227.453 175.43C227.311 175.307 227.205 173.833 227.17 172.195L227.134 169.206L229.329 168.346C231.489 167.486 235.101 164.784 235.101 164.047C235.101 163.433 234.64 163.637 233.72 164.661C232.587 165.889 228.55 167.855 227.524 167.691C226.886 167.568 226.745 167.159 226.461 164.988C226.284 163.392 226.284 162.245 226.461 162.04C226.674 161.795 227.771 161.467 228.904 161.221C230.073 160.976 231.737 160.607 232.622 160.362C233.507 160.116 235.88 159.87 237.933 159.747C243.811 159.461 247.847 158.519 251.034 156.676C252.698 155.694 254.291 155.079 255.07 155.079C255.955 155.079 256.345 154.916 256.345 154.465C256.345 154.138 256.593 153.851 256.876 153.851C257.159 153.851 257.407 153.974 257.407 154.097ZM180.326 161.795C180.928 162.327 180.893 162.409 179.866 162.655C178.662 162.941 177.848 162.45 178.237 161.672C178.592 161.058 179.548 161.14 180.326 161.795ZM196.507 164.743C201.925 164.866 203.235 165.111 205.076 166.176C206.421 166.954 206.457 167.036 205.89 167.732C205.536 168.223 203.943 168.837 201.535 169.411C197.286 170.434 193.215 170.393 189.886 169.206C187.904 168.51 185.885 166.34 185.885 164.825C185.885 164.006 185.992 163.965 189.001 164.292C190.701 164.456 194.064 164.661 196.507 164.743ZM176.432 166.585C176.219 166.831 175.37 167.118 174.52 167.241C172.962 167.486 172.856 166.872 174.378 166.422C175.794 166.053 176.857 166.094 176.432 166.585ZM171.829 167.404C171.156 168.182 168.501 168.674 167.934 168.141C167.191 167.404 168.005 166.954 170.306 166.954C171.652 166.954 172.112 167.077 171.829 167.404ZM248.555 169.37C248.555 170.066 248.237 172.113 247.847 173.997C247.458 175.88 247.139 178.091 247.139 178.91C247.139 181.858 245.687 182.473 239.172 182.227C238.393 182.186 236.198 182.145 234.322 182.145C232.445 182.145 230.816 181.94 230.71 181.736C230.604 181.531 231.064 180.835 231.737 180.18C232.445 179.565 233.791 178.255 234.711 177.272C235.632 176.331 236.623 175.553 236.871 175.553C237.367 175.553 242.89 171.908 245.9 169.575C248.095 167.855 248.555 167.855 248.555 169.37ZM164.287 169.37C164.287 169.861 163.579 170.393 163.331 170.107C163.083 169.82 163.544 169.001 163.969 169.001C164.146 169.001 164.287 169.165 164.287 169.37ZM219.77 170.68C220.938 170.639 222.036 170.762 222.142 170.967C222.283 171.212 220.371 171.499 217.291 171.663C211.874 171.99 210.458 171.908 210.564 171.253C210.67 170.516 212.193 170.271 214.919 170.516C216.371 170.68 218.566 170.721 219.77 170.68ZM178.733 171.949C178.839 172.523 178.627 172.686 177.813 172.686C176.573 172.686 176.219 172.318 176.75 171.581C177.281 170.803 178.592 171.09 178.733 171.949ZM167.474 172.482C167.474 173.587 164.287 174.488 163.756 173.505C163.65 173.26 163.792 173.096 164.075 173.096C164.393 173.096 164.641 172.932 164.641 172.768C164.641 172.605 165.279 172.441 166.058 172.4C166.837 172.359 167.474 172.4 167.474 172.482ZM223.062 173.301C223.062 174.57 222.354 176.863 221.682 177.764C221.363 178.173 220.478 178.869 219.734 179.32L218.353 180.139L217.433 179.279C216.937 178.828 215.592 177.764 214.494 176.904C213.361 176.044 212.44 175.061 212.44 174.693C212.44 173.342 217.964 172.523 218.814 173.71C219.451 174.57 219.982 174.488 219.557 173.546C219.061 172.482 219.38 172.277 221.327 172.359C222.885 172.359 223.062 172.482 223.062 173.301ZM162.871 173.055C162.871 173.505 161.49 174.079 161.207 173.792C161.101 173.669 161.136 173.383 161.278 173.137C161.561 172.605 162.871 172.523 162.871 173.055ZM173.493 173.096C173.493 173.301 173.351 173.505 173.174 173.505C172.962 173.505 172.714 173.301 172.608 173.096C172.502 172.85 172.643 172.686 172.926 172.686C173.245 172.686 173.493 172.85 173.493 173.096ZM197.711 175.43C197.853 175.594 198.561 175.676 199.269 175.635C200.26 175.553 200.437 175.635 200.048 175.921C199.765 176.167 199.304 176.372 199.021 176.372C198.738 176.372 197.676 176.822 196.649 177.395C194.631 178.501 190.488 180.098 190.488 179.77C190.488 178.46 192.471 177.191 194.56 177.191C195.658 177.191 197.109 175.962 196.614 175.43C196.507 175.266 196.614 175.143 196.932 175.143C197.215 175.143 197.57 175.266 197.711 175.43ZM184.115 175.921C184.115 176.413 183.124 176.822 182.911 176.413C182.805 176.208 182.805 175.962 182.947 175.798C183.265 175.43 184.115 175.512 184.115 175.921ZM166.943 176.372C167.58 176.658 167.615 176.699 167.049 176.986C166.27 177.354 165.243 176.945 165.526 176.372C165.774 175.88 165.987 175.88 166.943 176.372ZM159.614 177.272C159.507 177.641 158.197 177.887 155.577 178.091C153.453 178.255 151.647 178.296 151.576 178.173C151.187 177.723 152.143 177.436 154.975 177.191C159.826 176.74 159.755 176.74 159.614 177.272ZM208.404 178.91C208.156 179.074 207.2 179.074 206.209 178.869L204.474 178.583L205.855 177.764L207.2 176.904L208.015 177.764C208.616 178.378 208.723 178.706 208.404 178.91ZM204.297 177.559C204.297 177.764 204.014 178.05 203.695 178.173C202.951 178.378 198.986 178.419 198.986 178.173C198.986 178.091 199.517 177.846 200.154 177.641C201.677 177.15 204.297 177.109 204.297 177.559ZM170.483 178.01C170.377 178.214 169.952 178.419 169.563 178.419C169.209 178.419 168.89 178.214 168.89 178.01C168.89 177.764 169.315 177.6 169.811 177.6C170.306 177.6 170.625 177.764 170.483 178.01ZM230.498 178.214C230.498 178.992 225.753 181.777 224.727 181.613C223.452 181.408 223.948 180.794 226.143 179.852C227.276 179.361 228.692 178.665 229.259 178.296C230.569 177.477 230.498 177.477 230.498 178.214ZM325.105 178.214C325.848 178.337 328.079 179.279 330.062 180.262C332.08 181.244 335.266 182.514 337.143 183.087C339.055 183.66 341.179 184.479 341.923 184.929C343.799 186.035 345.57 188.164 345.57 189.27C345.57 190.498 344.72 190.826 343.976 189.884C342.985 188.615 341.604 188.533 338.595 189.516C334.417 190.867 331.832 191.522 329.07 191.89C327.654 192.054 325.777 192.668 324.821 193.16C323.653 193.856 322.166 194.224 320.077 194.388C318.413 194.552 316.749 194.839 316.324 195.125C315.934 195.371 312.748 195.78 309.242 196.026C305.772 196.272 301.453 196.763 299.647 197.091C295.859 197.828 295.15 197.582 294.584 195.289C294.407 194.47 294.23 191.44 294.23 188.615V183.455L299.647 183.005C302.586 182.718 306.02 182.514 307.224 182.514C310.588 182.514 316.147 181.326 321.883 179.402C322.272 179.279 322.414 178.91 322.307 178.378C322.13 177.682 322.237 177.6 322.945 177.764C323.405 177.887 324.396 178.091 325.105 178.214ZM162.694 179.238C162.836 179.484 162.517 179.647 161.986 179.647C161.455 179.647 161.136 179.484 161.278 179.238C161.384 178.992 161.703 178.828 161.986 178.828C162.269 178.828 162.588 178.992 162.694 179.238ZM188.187 179.238C188.081 179.443 187.833 179.647 187.62 179.647C187.443 179.647 187.302 179.443 187.302 179.238C187.302 178.992 187.549 178.828 187.868 178.828C188.151 178.828 188.293 178.992 188.187 179.238ZM168.536 180.057C168.536 180.262 168.394 180.466 168.182 180.466C168.005 180.466 167.828 180.262 167.828 180.057C167.828 179.811 168.005 179.647 168.182 179.647C168.394 179.647 168.536 179.811 168.536 180.057ZM155.081 180.466C155.081 180.671 154.975 180.876 154.834 180.876C154.657 180.876 154.196 180.999 153.771 181.121C153.311 181.285 152.957 181.203 152.957 180.958C152.957 180.548 153.63 180.221 154.657 180.098C154.869 180.098 155.081 180.221 155.081 180.466ZM152.249 181.285C152.249 181.49 151.682 181.695 150.974 181.695C150.231 181.695 149.806 181.531 149.947 181.285C150.054 181.04 150.62 180.876 151.222 180.876C151.789 180.876 152.249 181.04 152.249 181.285ZM198.348 181.858C199.198 182.186 200.827 182.555 201.995 182.718C203.164 182.882 205.89 183.251 208.015 183.537C210.174 183.865 216.441 184.315 222 184.561C227.559 184.807 233.543 185.093 235.278 185.257C241.368 185.789 254.008 185.503 265.019 184.602C271.747 184.07 281.873 184.029 283.041 184.561C283.927 184.929 283.962 185.052 283.927 188.533C283.891 193.856 283.466 198.073 282.935 198.483C282.121 199.056 278.97 199.343 273.836 199.343C271.109 199.343 265.727 199.547 261.797 199.793C255.247 200.203 254.61 200.162 253.76 199.506C252.91 198.892 252.131 198.851 246.714 199.056C243.35 199.22 235.88 199.138 230.144 198.892C224.408 198.647 216.689 198.442 212.971 198.442C208.369 198.442 204.474 198.196 200.615 197.623C197.534 197.173 193.285 196.722 191.196 196.64C189.143 196.558 186.664 196.272 185.779 196.026C182.84 195.289 173.139 190.908 173.139 190.334C173.139 190.048 180.928 186.813 182.522 186.404C183.619 186.117 190.842 182.964 192.79 181.899C194.17 181.162 196.472 181.121 198.348 181.858ZM159.224 182.8C159.436 183.455 156.923 184.233 156.179 183.742C155.719 183.455 155.825 183.251 156.852 182.759C158.233 182.063 159.012 182.063 159.224 182.8ZM165.987 182.841C166.093 183.251 165.81 183.374 164.96 183.251C164.323 183.169 163.756 182.882 163.65 182.596C163.544 182.186 163.827 182.063 164.677 182.186C165.314 182.268 165.881 182.555 165.987 182.841ZM146.371 183.292C147.292 184.479 146.796 184.97 144.707 184.97C141.946 184.97 141.485 184.397 143.397 183.374C145.415 182.35 145.628 182.35 146.371 183.292ZM161.596 184.807C162.517 185.216 162.234 185.789 161.101 185.789C160.038 185.789 159.649 185.216 160.499 184.848C160.711 184.725 160.959 184.602 160.994 184.602C161.03 184.561 161.278 184.684 161.596 184.807ZM154.303 185.871C154.125 186.485 151.293 187.673 150.939 187.263C150.797 187.1 151.045 186.608 151.505 186.158C152.426 185.298 154.515 185.052 154.303 185.871ZM170.66 186.608C170.66 187.1 168.748 188.246 167.934 188.246C167.403 188.205 167.474 188.041 168.288 187.223C169.28 186.199 170.66 185.83 170.66 186.608ZM146.761 187.632C146.761 187.837 145.238 188.287 143.397 188.533C141.556 188.819 139.609 189.27 139.078 189.516C138.157 189.966 137.378 189.761 137.378 189.106C137.378 188.738 139.325 188.041 141.981 187.468C143.999 186.977 146.761 187.1 146.761 187.632ZM159.224 188.942C159.401 189.516 156.533 191.522 155.506 191.522C152.957 191.522 153.17 189.925 155.931 188.492C157.029 187.919 159.012 188.164 159.224 188.942ZM150.302 189.475C150.585 190.007 147.54 191.522 146.159 191.522C144.814 191.522 144.991 190.744 146.619 189.802C147.965 189.024 149.983 188.86 150.302 189.475ZM162.163 191.276C162.163 193.569 161.278 194.879 158.693 196.395C156.569 197.582 152.249 200.981 149.239 203.847C141.556 211.012 131.359 217.154 119.498 221.781C115.426 223.337 109.548 225.958 105.866 227.882C102.75 229.479 101.83 229.807 100.13 229.766C98.8556 229.725 98.1474 229.889 98.1829 230.175C98.2183 230.421 97.8642 230.667 97.3685 230.749C96.8728 230.831 94.89 231.322 92.9427 231.854C90.9953 232.387 88.7293 232.878 87.9149 232.96L86.3924 233.083L86.2862 227.76C86.18 222.969 86.0383 222.068 84.9761 218.751C84.3388 216.704 83.8077 214.534 83.7723 213.838C83.7369 212.732 83.8785 212.568 85.5427 211.954C89.2604 210.562 89.3666 210.562 90.0393 212.241C90.4642 213.183 90.7474 215.23 90.8891 218.137L91.1015 222.559L89.8977 225.262C88.1628 229.111 89.1895 229.643 91.4202 226.04C92.3762 224.566 92.5178 223.952 92.6594 220.758L92.8364 217.113L94.8546 214.82C97.5101 211.79 98.6786 210.89 99.2451 211.545C99.4575 211.79 99.9178 211.995 100.272 211.995C100.661 211.995 100.909 212.282 100.909 212.814C100.909 213.838 101.051 213.838 102.255 212.855C102.786 212.405 103.848 211.995 104.627 211.913C105.795 211.831 106.043 211.913 106.008 212.487C105.937 213.469 106.22 213.428 107.636 212.2C108.345 211.586 109.301 211.176 109.973 211.176C110.611 211.176 111.248 210.971 111.354 210.767C111.673 210.153 114.364 210.234 114.364 210.89C114.364 211.176 113.833 211.995 113.231 212.691C112.346 213.633 111.319 214.165 108.982 214.82C105.087 215.926 105.052 215.926 105.229 214.657C105.477 213.305 105.229 213.346 103.954 215.025C103.069 216.131 102.467 216.458 100.98 216.704C98.7848 217.032 98.4307 216.827 99.3159 215.68C99.6699 215.23 99.8116 214.861 99.6345 214.861C99.2451 214.861 95.5982 218.997 95.5982 219.447C95.5982 219.98 96.7666 219.816 98.7494 218.956C99.7762 218.465 100.909 218.219 101.263 218.342C101.653 218.465 102.538 218.219 103.281 217.81C104.556 217.032 108.38 216.09 110.08 216.09C110.717 216.09 110.823 216.254 110.646 216.909C110.292 218.137 110.929 217.891 111.602 216.54C112.062 215.558 112.487 215.271 113.903 215.066C114.824 214.902 116.205 214.616 116.984 214.37C118.754 213.879 119.214 214.37 118.258 215.803C117.692 216.622 117.621 216.909 118.011 216.909C118.258 216.909 119.002 216.172 119.604 215.312C120.489 214.042 121.091 213.633 122.507 213.265C124.986 212.65 125.977 212.65 125.411 213.305C125.163 213.592 124.986 214.083 124.986 214.411C124.986 214.82 125.375 214.575 126.154 213.715C126.969 212.773 128.102 212.159 129.907 211.586C133.377 210.48 133.306 210.48 133.2 211.258C133.058 212.364 134.085 212.159 134.758 210.971C135.325 209.948 135.962 209.62 135.962 210.316C135.962 210.521 135.537 211.258 135.041 211.954C134.546 212.65 134.333 213.224 134.581 213.224C134.793 213.224 136.458 211.545 138.228 209.497C142.052 205.075 142.477 204.707 144.495 204.297C145.734 204.052 146.017 203.806 145.947 203.233C145.805 202.25 146.513 201.349 147.504 201.349C147.965 201.349 148.496 201.021 148.673 200.571C148.885 200.162 149.877 199.179 150.868 198.442C152.32 197.377 153.063 197.091 154.267 197.173C155.825 197.254 156.108 196.968 155.365 196.108C155.046 195.739 155.188 195.33 155.967 194.388C157.029 193.078 158.481 192.75 159.259 193.651C159.614 194.061 159.791 194.061 160.038 193.569C160.251 193.16 160.18 192.75 159.826 192.341C159.366 191.809 159.436 191.604 160.463 190.621C161.101 190.007 161.738 189.475 161.915 189.475C162.057 189.475 162.163 190.293 162.163 191.276ZM134.191 190.253C134.191 191.481 129.482 194.552 128.066 194.265C127.429 194.142 127.535 193.979 128.88 193.242C129.766 192.75 131.182 191.809 132.067 191.153C133.802 189.843 134.191 189.679 134.191 190.253ZM143.043 190.908C142.406 191.768 139.361 192.75 137.236 192.75C135.077 192.75 135.431 191.972 137.803 191.481C138.653 191.317 139.892 190.99 140.565 190.785C141.237 190.539 142.193 190.375 142.654 190.334C143.362 190.293 143.397 190.375 143.043 190.908ZM174.945 192.586C175.936 193.16 176.68 193.692 176.609 193.815C176.326 194.102 173.21 192.709 172.749 192.095C172.112 191.194 172.891 191.358 174.945 192.586ZM134.191 193.16C134.191 193.364 134.05 193.569 133.837 193.569C133.66 193.569 133.483 193.364 133.483 193.16C133.483 192.914 133.66 192.75 133.837 192.75C134.05 192.75 134.191 192.914 134.191 193.16ZM345.888 195.494C345.818 197.541 345.888 197.869 346.561 198.196C347.305 198.606 347.34 198.81 347.34 204.952C347.34 213.592 348.048 216.131 349.96 214.083C350.385 213.633 350.987 213.224 351.27 213.224C351.978 213.224 353.819 215.476 353.642 216.09C353.395 217.032 347.34 218.874 341.498 219.775C338.347 220.266 336.399 220.799 331.23 222.559C326.344 224.238 323.547 225.016 320.431 225.508C318.979 225.753 317.315 226.122 316.713 226.326C316.147 226.531 314.27 226.777 312.606 226.859C310.906 226.982 309.242 227.268 308.888 227.514C307.826 228.292 319.05 227.76 321.493 226.941C322.555 226.572 325.105 226.204 327.158 226.122C331.655 225.958 337.851 224.238 350.527 219.57C352.757 218.751 355.236 218.055 356.015 218.055C358.139 218.014 361.503 218.751 363.096 219.57C364.158 220.144 365.468 220.348 368.407 220.389C370.567 220.389 372.62 220.635 373.01 220.881C373.399 221.126 375.842 221.986 378.462 222.805C383.419 224.361 384.269 224.73 385.402 225.917C385.792 226.326 387.42 226.941 389.014 227.35C390.607 227.719 392.908 228.333 394.148 228.783C395.387 229.193 397.83 230.012 399.565 230.626C401.335 231.24 403.743 232.305 404.911 233.083C407.815 234.925 411.957 238.651 413.869 241.149C415.392 243.115 415.392 243.196 414.754 243.933C413.905 244.875 410.576 246.472 405.584 248.315C403.46 249.093 400.273 250.526 398.503 251.509C396.768 252.45 394.36 253.474 393.192 253.761C392.023 254.088 390.501 254.621 389.828 254.989C389.155 255.358 387.42 256.013 385.969 256.422C384.517 256.791 382.605 257.487 381.72 257.937C380.835 258.388 378.887 259.084 377.436 259.493C372.089 260.967 368.372 261.868 366.637 262.155C365.681 262.278 363.379 262.851 361.573 263.424C359.732 263.956 357.573 264.407 356.794 264.407C355.979 264.407 354.209 264.652 352.828 264.98C351.483 265.308 347.128 265.799 343.162 266.004C334.452 266.536 334.487 266.536 334.735 266.086C334.912 265.758 336.753 265.512 342.56 265.021C344.543 264.857 347.977 264.202 352.12 263.219C353.111 262.974 355.484 262.482 357.431 262.114C359.378 261.745 361.928 261.254 363.096 261.049C368.903 259.944 374.709 258.47 375.984 257.855C376.586 257.528 376.728 257.282 376.48 256.995C376.232 256.709 375.453 256.75 374.037 257.2C370.85 258.142 364.441 259.575 361.68 259.944C360.334 260.107 358.635 260.353 357.962 260.476C353.147 261.295 344.897 262.482 340.436 262.974C337.532 263.342 332.965 263.874 330.345 264.243C327.725 264.571 324.538 264.939 323.263 265.062C321.989 265.144 319.227 265.512 317.067 265.84C314.943 266.167 310.623 266.741 307.507 267.109C304.392 267.478 301.453 267.969 300.957 268.174C300.461 268.42 297.133 268.747 293.522 268.952C289.91 269.157 285.697 269.525 284.139 269.73C271.64 271.45 244.838 272.064 231.206 270.917C227.807 270.672 223.416 270.385 221.469 270.344C217.433 270.221 198.667 268.583 198.313 268.297C198.171 268.215 196.968 268.051 195.587 267.928C190.382 267.478 185.496 266.905 185.213 266.7C184.929 266.495 175.122 265.185 172.254 265.021C171.298 264.939 169.386 264.693 168.005 264.448C166.659 264.243 163.544 263.834 161.101 263.588C158.658 263.342 155.719 262.974 154.55 262.769C153.382 262.564 150.054 262.032 147.115 261.541C142.158 260.722 140.777 260.558 134.369 260.148C131.713 260.025 123.817 258.633 120.029 257.651C118.754 257.323 117.09 257.036 116.276 257.036C114.647 257.036 111.319 255.972 111 255.399C110.292 254.088 116.842 247.086 121.799 243.852C125.977 241.108 132.669 237.259 136.847 235.212C141.096 233.124 152.851 228.783 154.232 228.783C154.586 228.783 155.506 228.333 156.356 227.76C157.17 227.186 158.126 226.859 158.41 226.982C158.728 227.145 159.436 226.777 160.074 226.163C161.419 224.852 161.986 224.852 165.456 226.122C166.978 226.695 168.819 227.145 169.598 227.145C170.342 227.145 171.404 227.35 171.97 227.596C172.926 228.046 180.539 229.479 186.948 230.462C188.612 230.708 192.259 231.363 195.091 231.977C199.446 232.919 201.181 233.083 206.598 233.083C210.104 233.083 213.609 233.001 214.388 232.878C215.167 232.796 218.282 232.878 221.292 233.083C224.302 233.287 227.276 233.41 227.842 233.41C228.444 233.41 235.207 233.369 242.89 233.328C256.097 233.287 264.63 232.796 265.303 232.059C265.48 231.895 260.948 231.731 255.212 231.731C249.122 231.731 243.315 231.527 241.12 231.24C238.5 230.872 235.738 230.831 231.737 231.035C224.372 231.486 224.62 231.486 217.362 230.912C213.29 230.585 210.351 230.134 208.864 229.643C207.625 229.193 205.571 228.619 204.297 228.374C201.252 227.76 200.615 227.555 200.969 227.145C201.146 226.941 202.562 226.941 204.12 227.145C205.678 227.35 215.875 227.596 226.745 227.719C245.652 227.923 255.141 227.637 260.948 226.736C262.399 226.531 265.834 226.245 268.56 226.163C271.286 226.04 275.358 225.753 277.589 225.467C283.82 224.689 284.033 224.73 284.316 225.917C289.167 245.162 289.273 245.449 292.637 248.397L294.549 250.075L294.584 253.679C294.584 257.896 294.938 259.862 296.036 261.745C296.956 263.301 299.045 264.816 300.214 264.816C300.639 264.816 301.736 265.185 302.621 265.676C304.038 266.413 304.427 266.454 305.843 266.045C309.242 265.062 315.12 260.844 315.12 259.37C315.12 259.207 315.439 258.551 315.863 257.896C316.465 256.954 316.572 256.095 316.642 252.246L316.713 247.701L314.766 245.285C312.96 243.074 311.19 241.518 306.445 238.078C305.489 237.382 303.79 235.785 302.728 234.516C300.78 232.264 297.062 225.508 297.062 224.197C297.062 223.378 297.841 223.215 302.905 222.846C307.224 222.518 310.588 221.904 324.219 218.71C328.539 217.728 332.682 216.909 333.461 216.909C334.24 216.909 335.054 216.663 335.266 216.336C335.514 216.008 335.974 215.844 336.328 215.967C336.718 216.09 337.426 215.844 337.922 215.476C338.453 215.066 339.586 214.739 340.613 214.739C341.604 214.739 342.383 214.575 342.383 214.37C342.383 214.206 343.268 213.756 344.33 213.428C345.605 212.978 346.278 212.527 346.278 212.118C346.278 211.586 345.995 211.545 344.649 211.79C343.127 212.036 343.02 211.995 343.268 211.299C343.658 210.153 344.26 198.155 343.976 196.149C343.729 194.306 343.304 194.02 342.206 194.961C341.569 195.494 341.569 195.821 341.994 202.25C342.206 205.935 342.312 209.784 342.171 210.726C341.923 212.609 341.533 212.896 339.019 213.469L337.674 213.756L337.886 211.545C338.24 207.409 338.842 203.601 339.763 199.425C340.613 195.453 340.648 194.388 339.905 194.388C338.842 194.388 338.063 198.36 336.93 209.456C336.47 213.674 336.081 214.82 335.302 214.247C334.948 214.002 334.912 212.077 335.054 206.304C335.266 198.851 335.62 195.494 336.222 194.798C336.647 194.306 341.994 193.283 344.26 193.201L345.959 193.16L345.888 195.494ZM150.125 193.897C150.125 194.429 149.7 194.798 149.346 194.552C148.992 194.306 149.31 193.569 149.806 193.569C149.983 193.569 150.125 193.733 150.125 193.897ZM144.389 195.289C144.176 195.985 141.06 197.173 139.998 196.927C138.936 196.681 138.901 195.862 139.963 195.289C141.096 194.675 144.566 194.675 144.389 195.289ZM167.828 195.207C169.103 195.453 171.475 195.985 173.139 196.395C177.99 197.705 182.415 198.442 189.745 199.302C193.533 199.752 197.888 200.325 199.482 200.571C205.784 201.554 209.431 201.84 217.22 202.004C221.717 202.045 228.621 202.332 232.622 202.577C239.81 203.069 247.705 202.946 260.062 202.209C275.641 201.267 282.723 200.981 283.006 201.308C283.608 202.004 282.9 203.192 281.2 204.543C279.324 206.017 277.235 209.538 277.235 211.258C277.235 212.978 277.589 213.633 278.97 214.452C279.713 214.861 280.492 215.476 280.74 215.844C280.988 216.172 281.696 216.581 282.298 216.745C283.785 217.113 283.962 217.482 283.962 220.512C283.962 222.928 283.891 223.092 283.006 223.501C282.156 223.87 278.828 224.32 276.527 224.402C275.641 224.402 263.603 225.139 251.211 225.917C247.104 226.204 236.765 226.245 224.656 226.122C203.872 225.876 203.837 225.876 199.871 225.098C198.526 224.852 196.614 224.566 195.622 224.525C194.666 224.443 192.648 224.115 191.196 223.829C189.745 223.542 187.266 223.378 185.708 223.419C183.726 223.46 182.168 223.255 180.574 222.723C179.3 222.273 177.388 221.781 176.326 221.659C175.263 221.536 173.033 220.922 171.369 220.348C169.704 219.775 167.58 219.038 166.589 218.71C165.633 218.383 164.641 217.891 164.358 217.564C163.508 216.581 163.225 214.002 163.225 206.508C163.225 200.735 163.367 198.688 163.827 196.968C164.464 194.552 164.393 194.593 167.828 195.207ZM334.133 195.289C334.381 195.617 334.381 197.009 334.169 199.097C334.027 200.899 333.921 205.034 333.956 208.31C334.027 214.247 334.027 214.247 333.142 214.739C332.682 215.025 331.867 215.271 331.336 215.271C330.38 215.271 330.345 215.189 330.345 213.06C330.345 210.398 330.947 204.911 331.442 203.151C331.796 201.799 331.513 199.384 331.053 199.998C330.77 200.325 329.353 211.258 329.212 214.247L329.106 215.885L326.273 216.622C321.812 217.728 320.006 218.178 318.661 218.383C317.988 218.506 316.642 218.833 315.651 219.161C311.544 220.512 305.808 221.29 299.647 221.372C295.611 221.413 295.292 221.085 295.292 216.745C295.292 214.698 295.115 213.592 294.619 212.65C293.663 210.931 293.522 206.59 294.336 205.526C294.761 204.993 294.938 204.052 294.938 202.455C294.938 200.489 295.044 200.08 295.717 199.67C296.213 199.343 298.868 199.138 302.905 199.015C306.41 198.974 311.013 198.647 313.173 198.319C315.297 197.991 318.661 197.582 320.608 197.459C322.555 197.336 324.928 196.927 325.848 196.558C327.264 196.067 331.796 195.002 333.39 194.839C333.602 194.798 333.956 195.043 334.133 195.289ZM135.537 196.108C135.183 197.377 129.801 198.606 128.562 197.705C127.854 197.173 128.562 196.845 131.642 196.231C135.254 195.535 135.679 195.535 135.537 196.108ZM126.65 197.132C126.791 197.582 123.605 198.892 122.366 198.892C120.843 198.892 122.33 197.254 124.207 196.804C125.871 196.435 126.473 196.517 126.65 197.132ZM119.852 198.483C119.746 198.688 119.427 198.892 119.179 198.892C118.931 198.892 117.798 199.875 116.701 201.103C114.93 203.069 112.877 204.297 112.381 203.683C112.275 203.56 112.593 202.741 113.089 201.84C113.833 200.489 114.328 200.08 115.851 199.547C116.878 199.179 117.975 198.728 118.258 198.483C118.967 197.951 120.135 197.951 119.852 198.483ZM146.053 198.892C146.053 199.343 145.699 199.506 144.707 199.466C143.22 199.425 142.866 199.179 143.22 198.483C143.574 197.787 146.053 198.155 146.053 198.892ZM138.44 199.67C138.44 199.875 137.945 200.243 137.343 200.489C135.112 201.39 132.527 200.776 134.085 199.752C134.864 199.22 138.44 199.179 138.44 199.67ZM127.995 200.53C128.102 200.735 127.925 200.94 127.57 200.94C127.216 200.94 126.614 201.226 126.26 201.554C125.871 201.881 125.092 202.168 124.525 202.168C123.605 202.168 123.534 202.086 123.959 201.513C124.844 200.284 127.5 199.629 127.995 200.53ZM122.861 200.94C122.861 201.677 121.056 202.7 119.073 203.069C117.975 203.274 117.019 203.314 116.878 203.192C116.771 203.028 117.196 202.373 117.834 201.718C118.79 200.694 119.285 200.53 120.914 200.53C121.976 200.53 122.861 200.694 122.861 200.94ZM140.565 202.577C140.565 203.028 139.503 203.437 139.078 203.151C138.83 202.946 138.936 202.659 139.325 202.332C139.963 201.799 140.565 201.922 140.565 202.577ZM134.333 203.355C134.439 203.56 134.05 203.929 133.413 204.174C132.067 204.707 129.589 204.789 129.589 204.256C129.589 203.355 133.908 202.536 134.333 203.355ZM109.796 203.97C109.548 204.297 108.876 204.707 108.309 204.83C107.672 204.993 107.07 205.526 106.787 206.222C106.503 206.836 105.547 208.105 104.662 209.047C103.246 210.521 102.821 210.767 101.44 210.767C100.555 210.767 99.847 210.603 99.847 210.357C99.847 210.153 100.838 209.252 102.042 208.433C103.246 207.573 104.804 206.304 105.477 205.567C107.105 203.929 110.788 202.577 109.796 203.97ZM126.685 204.461C126.508 205.648 124.88 206.631 122.33 207.082C120.985 207.327 119.462 207.655 118.967 207.778L118.081 208.023L118.967 206.877C119.462 206.263 120.17 205.567 120.56 205.321C121.126 204.952 124.242 204.215 126.508 203.847C126.685 203.806 126.756 204.092 126.685 204.461ZM288.848 206.099C290.052 207.696 290.264 208.965 289.556 210.03C288.919 210.971 286.086 213.633 285.697 213.633C285.52 213.633 285.166 213.101 284.883 212.487C284.493 211.586 284.422 210.726 284.67 208.474C284.847 206.918 284.989 205.321 285.024 204.87C285.024 204.215 285.201 204.133 286.37 204.338C287.29 204.502 288.034 205.034 288.848 206.099ZM118.613 205.075C118.613 205.321 118.011 206.263 117.232 207.123C116.205 208.351 115.568 208.719 114.682 208.719C114.01 208.719 112.877 208.842 112.098 209.006C110.257 209.334 110.504 208.597 112.806 206.713C113.974 205.73 115.107 205.198 116.311 204.993C117.302 204.87 118.188 204.707 118.365 204.666C118.506 204.666 118.613 204.83 118.613 205.075ZM136.67 207.163C136.67 208.064 136.387 208.105 135.572 207.245C135.183 206.836 134.9 206.754 134.723 207.041C134.616 207.286 134.687 207.491 134.864 207.491C135.077 207.491 135.254 207.737 135.254 208.023C135.254 208.556 132.457 209.538 130.934 209.538C130.191 209.538 130.191 209.497 130.828 208.719C131.182 208.269 132.173 207.368 133.023 206.713C134.369 205.648 134.687 205.567 135.608 205.976C136.245 206.263 136.67 206.754 136.67 207.163ZM283.112 207.327C283.395 209.538 283.112 213.961 282.652 214.493C282.439 214.739 282.05 214.534 281.661 214.042C281.306 213.592 280.811 213.224 280.527 213.224C279.607 213.224 278.651 211.627 278.651 210.112C278.651 208.924 278.934 208.31 280.032 207.041C281.944 204.83 282.794 204.911 283.112 207.327ZM102.007 207.409C101.263 207.696 97.3685 211.176 95.2087 213.469C93.2967 215.476 92.9781 215.68 92.5178 215.148C92.2345 214.82 91.9159 213.838 91.845 212.978C91.7034 211.422 91.7388 211.34 93.8278 209.825C94.9608 208.965 97.0852 207.901 98.5015 207.45C99.8824 207 101.299 206.467 101.582 206.263C102.007 206.017 102.184 206.099 102.29 206.59C102.361 206.959 102.219 207.327 102.007 207.409ZM111.177 206.467C111.177 206.59 110.575 207.368 109.796 208.269C108.238 210.071 105.724 211.012 105.937 209.702C106.114 208.556 108.947 206.263 110.15 206.263C110.717 206.263 111.177 206.345 111.177 206.467ZM130.686 207.204C130.686 207.409 129.943 208.228 129.022 209.129C127.783 210.316 126.862 210.808 125.375 211.094C124.278 211.34 123.286 211.381 123.109 211.217C122.613 210.685 126.402 207.491 127.606 207.45C128.208 207.45 129.022 207.286 129.412 207.082C130.191 206.672 130.722 206.754 130.686 207.204ZM138.724 207.573C138.617 207.86 138.192 208.146 137.697 208.228C136.882 208.31 136.882 208.31 137.52 207.696C138.369 206.959 138.901 206.877 138.724 207.573ZM123.357 208.638C123.463 208.842 122.861 209.743 122.047 210.644C120.524 212.364 118.365 213.224 115.603 213.224C114.151 213.224 114.08 213.019 115.178 211.463C115.815 210.521 116.594 210.112 119.321 209.334C123.428 208.187 123.145 208.228 123.357 208.638ZM79.4173 215.312C81.046 216.54 82.4977 218.424 82.4977 219.325C82.4977 219.57 82.8163 220.43 83.1704 221.29C83.6307 222.314 83.9493 224.156 84.091 226.531C84.3742 230.912 84.1972 231.281 80.6211 233.328C79.4173 234.024 77.7178 235.212 76.8326 235.949C74.0001 238.324 71.8048 239.307 66.5646 240.617C63.7321 241.313 60.9704 242.091 60.3685 242.296C58.7044 242.91 52.5436 243.278 52.2957 242.828C51.9063 242.091 52.8268 241.6 56.8278 240.494C63.2364 238.733 70.8135 235.621 70.8135 234.68C70.8135 233.82 70.2469 233.943 65.6795 235.744C59.4479 238.242 54.845 239.429 50.4546 239.716C47.268 239.921 46.489 239.839 46.0996 239.347C45.7455 238.815 45.9933 238.61 47.9053 237.996C49.1091 237.587 50.9149 236.809 51.9063 236.317C52.8977 235.785 54.491 235.171 55.4469 234.925C58.4565 234.188 65.9981 231.158 66.7417 230.38C67.1312 229.971 67.8747 229.52 68.4412 229.397C69.468 229.07 69.7158 228.497 68.8661 228.128C68.2642 227.841 63.5551 229.602 59.7311 231.527C58.2087 232.305 56.1551 233.083 55.1283 233.287C54.1015 233.492 51.3398 234.475 48.9675 235.499C44.2584 237.546 43.7273 237.669 43.4441 236.809C43.2316 236.195 48.1886 233.574 54.491 230.994C56.2967 230.216 58.4565 229.152 59.2709 228.579C64.8651 224.648 66.7417 223.133 66.8479 222.518C66.9541 221.904 66.7417 221.904 65.0776 222.764C64.0508 223.337 62.0326 224.607 60.6163 225.63C59.1646 226.654 55.9072 228.456 53.3579 229.643C50.7732 230.831 47.9053 232.223 46.9847 232.755C46.0287 233.287 43.9752 234.27 42.3819 234.966C39.868 236.031 39.5847 236.113 40.1512 235.376C40.8594 234.475 44.7541 232.059 45.4976 232.059C45.7455 232.059 46.8077 231.404 47.8345 230.585C48.8967 229.766 51.9771 227.801 54.7034 226.286C57.4297 224.73 60.6163 222.641 61.7847 221.618C62.9178 220.594 64.0508 219.693 64.2632 219.611C65.1838 219.202 63.5551 218.424 61.289 218.178C59.9436 218.014 58.7044 217.769 58.5981 217.646C58.4565 217.482 58.9876 216.991 59.7311 216.54C61.112 215.762 67.3436 214.902 73.7522 214.657C75.0623 214.616 76.2307 214.452 76.3723 214.329C76.8326 213.756 77.824 214.083 79.4173 215.312ZM167.12 220.389C167.934 220.922 167.934 220.962 167.261 221.003C166.872 221.003 166.235 220.717 165.845 220.389C164.925 219.611 165.881 219.57 167.12 220.389ZM168.359 222.437C169.492 222.764 171.014 222.928 172.006 222.805C173.103 222.641 174.591 222.846 176.503 223.419C178.131 223.911 181.53 224.484 184.469 224.73C187.302 224.934 190.276 225.303 191.126 225.508C191.94 225.753 193.639 225.917 194.914 225.917C197.038 225.917 198.986 226.49 198.986 227.145C198.986 227.473 192.683 228.046 192.259 227.76C192.081 227.637 190.63 227.432 189.001 227.309C187.372 227.227 185.496 226.941 184.823 226.736C184.15 226.49 181.672 226.163 179.3 225.958C175.688 225.63 171.723 224.77 165.633 223.01C164.925 222.805 164.216 222.437 164.11 222.232C163.792 221.618 166.093 221.74 168.359 222.437ZM423.996 244.179C424.916 246.104 425.589 247.742 425.483 247.864C425.164 248.233 423.181 245.53 422.756 244.138C422.508 243.442 422.119 242.418 421.836 241.804C421.234 240.453 421.198 240.207 421.8 240.494C422.084 240.617 423.04 242.255 423.996 244.179ZM398.68 254.989C398.68 255.358 396.485 256.217 395.422 256.217C394.466 256.217 394.679 255.521 395.776 255.071C397.016 254.539 398.68 254.457 398.68 254.989ZM332.469 266.454C332.469 266.659 331.973 266.864 331.372 266.864C330.77 266.864 330.38 266.7 330.522 266.454C330.628 266.208 331.124 266.045 331.619 266.045C332.08 266.045 332.469 266.208 332.469 266.454ZM328.574 266.782C328.574 267.519 319.227 268.829 318.873 268.174C318.625 267.682 320.502 267.273 324.68 266.864C326.344 266.7 327.902 266.536 328.15 266.495C328.362 266.495 328.574 266.618 328.574 266.782ZM378.675 424.508C378.569 424.713 378.321 424.917 378.108 424.917C377.931 424.917 377.79 424.713 377.79 424.508C377.79 424.262 378.038 424.098 378.356 424.098C378.64 424.098 378.781 424.262 378.675 424.508ZM377.188 426.924C377.011 427.047 376.657 427.538 376.444 427.988C376.055 428.766 376.055 428.766 376.019 428.029C376.019 427.047 377.188 425.45 377.365 426.146C377.471 426.432 377.365 426.76 377.188 426.924ZM425.766 437.652C426.155 438.348 425.801 438.471 423.429 438.634C422.19 438.716 419.747 438.962 418.047 439.249C414.896 439.74 411.249 439.535 410.895 438.798C410.753 438.593 410.222 438.43 409.656 438.43C409.089 438.43 408.523 438.266 408.417 438.02C408.275 437.775 409.868 437.57 412.559 437.488C423.287 437.201 425.553 437.201 425.766 437.652ZM143.751 442.115C143.751 442.32 143.61 442.524 143.397 442.524C143.22 442.524 143.043 442.32 143.043 442.115C143.043 441.869 143.22 441.705 143.397 441.705C143.61 441.705 143.751 441.869 143.751 442.115ZM148.354 445.227C148.354 445.554 148.213 445.718 148 445.595C147.823 445.473 147.646 445.063 147.646 444.735C147.646 444.408 147.823 444.244 148 444.367C148.213 444.49 148.354 444.899 148.354 445.227ZM148.177 447.028C148.283 447.233 148.213 447.438 148.036 447.438C147.823 447.438 147.646 447.233 147.646 447.028C147.646 446.783 147.717 446.619 147.788 446.619C147.894 446.619 148.071 446.783 148.177 447.028ZM178.202 448.134C177.954 448.216 177.529 448.216 177.317 448.134C177.069 448.011 177.246 447.929 177.742 447.929C178.237 447.929 178.415 448.011 178.202 448.134ZM129.589 449.895C129.589 450.099 129.341 450.304 129.022 450.304C128.597 450.304 128.491 450.591 128.633 451.328C128.774 452.352 128.774 452.352 128.137 451.696C127.5 451.041 127.429 451.041 126.933 451.778C126.544 452.352 126.437 452.392 126.402 451.942C126.402 451.041 126.862 450.386 127.818 449.936C128.987 449.403 129.589 449.403 129.589 449.895ZM131.713 450.918C131.713 451.246 131.642 451.533 131.571 451.533C131.501 451.533 131.359 451.246 131.217 450.918C131.111 450.591 131.182 450.304 131.359 450.304C131.571 450.304 131.713 450.591 131.713 450.918Z" fill="white" fill-opacity="0.2"/>
<path d="M125.729 215.516C125.092 215.844 124.313 216.049 123.994 215.885C123.711 215.762 123.251 215.885 122.967 216.131C122.684 216.417 121.905 216.745 121.197 216.868C119.675 217.154 119.179 218.137 120.56 218.137C122.259 218.137 130.651 215.68 130.651 215.189C130.651 214.616 127.004 214.902 125.729 215.516Z" fill="white" fill-opacity="0.2"/>
<path d="M116.382 218.178C116.028 218.424 115.497 218.506 115.213 218.383C114.895 218.26 114.257 218.383 113.726 218.71C113.195 218.997 111.744 219.488 110.469 219.775C107.495 220.471 100.52 223.255 98.3598 224.607C97.4392 225.18 96.4124 226.081 96.1292 226.572C95.7043 227.309 95.244 227.555 94.2526 227.555C91.7742 227.555 89.1187 230.053 90.2517 231.363C90.5349 231.69 90.9598 231.445 91.8096 230.503C92.6593 229.52 93.5799 229.029 95.4211 228.578C99.9531 227.391 106.397 225.385 107.282 224.893C107.778 224.607 108.345 224.443 108.522 224.525C109.053 224.77 118.4 221.126 118.542 220.635C118.719 220.062 116.771 220.021 116.311 220.553C116.099 220.799 114.434 221.454 112.593 222.027C110.752 222.641 106.787 223.952 103.812 224.975C98.7493 226.736 97.3684 226.982 98.3598 225.835C98.8909 225.221 101.299 224.279 101.688 224.525C101.83 224.648 101.971 224.484 101.971 224.197C101.971 223.296 109.725 220.594 114.753 219.734C117.834 219.202 118.719 218.792 117.904 218.137C117.267 217.646 117.161 217.646 116.382 218.178Z" fill="white" fill-opacity="0.2"/>
<path d="M378.781 255.89C377.542 256.381 377.4 257.691 378.604 257.241C379.029 257.077 380.056 256.749 380.87 256.463C381.684 256.217 382.463 255.849 382.605 255.685C382.994 255.234 379.879 255.398 378.781 255.89Z" fill="white" fill-opacity="0.2"/>
<path d="M389.828 220.143C389.828 220.757 390.749 221.413 391.988 221.658C392.661 221.781 394.714 222.436 396.555 223.091C398.397 223.747 401.052 224.647 402.398 225.139C403.778 225.589 406.54 226.899 408.558 227.964C410.612 229.07 412.418 229.848 412.595 229.725C413.197 229.315 410.683 226.859 408.487 225.712C407.284 225.098 406.009 224.402 405.62 224.197C405.265 223.992 404.062 223.706 402.964 223.583C401.866 223.46 400.804 223.214 400.592 223.01C399.954 222.395 394.998 220.594 394.006 220.594C393.475 220.594 392.944 220.389 392.838 220.184C392.554 219.693 389.828 219.652 389.828 220.143Z" fill="white" fill-opacity="0.2"/>
<path d="M426.651 290.818C425.978 291.596 425.128 292.374 424.739 292.496C423.287 293.029 420.349 294.748 419.924 295.322C419.676 295.649 419.215 295.936 418.861 295.936C418.507 295.936 416.277 297.041 413.904 298.393C411.532 299.785 408.098 301.423 406.292 302.078C403.105 303.265 400.627 304.78 400.627 305.558C400.627 306.418 402.787 306.214 404.699 305.231C405.761 304.658 407.531 303.798 408.593 303.306C409.656 302.815 412.524 301.136 414.967 299.621C417.41 298.106 420.738 296.141 422.402 295.199C425.801 293.356 428.811 290.531 428.209 289.835C427.961 289.507 427.501 289.794 426.651 290.818Z" fill="white" fill-opacity="0.2"/>
<path d="M425.129 303.716C424.633 304.207 423.677 304.78 423.04 305.026C421.375 305.681 420.703 306.991 422.013 306.991C422.898 306.991 425.978 305.108 426.58 304.248C427.536 302.733 426.616 302.405 425.129 303.716Z" fill="white" fill-opacity="0.2"/>
<path d="M418.826 307.769C418.366 308.22 418.118 308.711 418.26 308.875C418.614 309.284 420.349 308.22 420.561 307.483C420.774 306.745 419.747 306.909 418.826 307.769Z" fill="white" fill-opacity="0.2"/>
<path d="M413.196 310.103C411.497 310.799 410.435 311.7 410.824 312.15C411.143 312.519 416.029 310.308 416.029 309.816C416.029 309.284 415.038 309.407 413.196 310.103Z" fill="white" fill-opacity="0.2"/>
<path d="M406.859 312.355C406.363 312.56 405.407 313.174 404.734 313.625L403.495 314.526L404.451 314.812C405.549 315.14 409.762 313.256 409.55 312.519C409.373 311.946 407.886 311.864 406.859 312.355Z" fill="white" fill-opacity="0.2"/>
<path d="M386.642 411.692C385.579 413.575 385.367 414.271 385.792 414.271C386.217 414.271 388.377 410.832 388.412 410.054C388.447 409.194 387.562 409.972 386.642 411.692Z" fill="white" fill-opacity="0.2"/>
<path d="M375.134 431.059C375.241 431.264 375.418 431.469 375.524 431.469C375.595 431.469 375.665 431.264 375.665 431.059C375.665 430.814 375.488 430.65 375.276 430.65C375.099 430.65 375.028 430.814 375.134 431.059Z" fill="white" fill-opacity="0.2"/>
</svg>
